<svg width="111" height="81" viewBox="0 0 111 81" fill="none" xmlns="http://www.w3.org/2000/svg">
    <path fill-rule="evenodd" clip-rule="evenodd" d="M59.1964 65.3534L62.9202 45.2211L63.194 54.9856L69.3272 62.7203L69.7105 73.2527L59.1964 65.3534Z" fill="#FF880C"/>
    <path fill-rule="evenodd" clip-rule="evenodd" d="M9.69289 66.9991L4.38112 54.9856L8.59768 57.5638L13.0881 42.2041L24.6425 32.6591L30.8852 30.3551L35.7042 36.7184L34.3352 74.295L25.8473 67.9865L15.2785 66.4506L9.69289 66.9991Z" fill="#FA6400"/>
    <path fill-rule="evenodd" clip-rule="evenodd" d="M0.383545 65.3534L4.16202 45.2211L4.38107 54.9856L9.69284 66.9991L10.9523 73.2527L0.383545 65.3534Z" fill="#FF880C"/>
    <path fill-rule="evenodd" clip-rule="evenodd" d="M10.9524 73.2528L9.6929 66.9991L15.2785 66.4506L22.7807 77.367L10.9524 73.2528Z" fill="#EB3D08"/>
    <path fill-rule="evenodd" clip-rule="evenodd" d="M22.7807 77.367L15.2785 66.4506L29.7353 65.1889L34.3351 74.2951L22.7807 77.367Z" fill="#D41E02"/>
    <path fill-rule="evenodd" clip-rule="evenodd" d="M7.66684 57.5089L11.3358 53.9981L9.63822 48.4028L4.16217 45.2211L4.38121 54.9856L7.66684 57.5089Z" fill="#FED406"/>
    <path fill-rule="evenodd" clip-rule="evenodd" d="M13.088 42.2041L4.43583 55.0404L8.26907 57.9478L16.6474 52.6268L12.3214 47.3057L24.6425 32.6591L13.088 42.2041Z" fill="#FFA600"/>
    <path fill-rule="evenodd" clip-rule="evenodd" d="M24.6426 32.659L13.0881 42.204L21.8498 28.2705L30.0091 26.2408L24.6426 32.659Z" fill="#FED406"/>
    <path fill-rule="evenodd" clip-rule="evenodd" d="M21.8497 28.2705L27.4353 26.8991L28.0377 13.4045L22.3973 19.8775L21.8497 28.2705Z" fill="#FED406"/>
    <path fill-rule="evenodd" clip-rule="evenodd" d="M30.6662 22.5106L28.0377 13.4045L27.4353 26.8991L24.6425 32.6591L22.3426 43.0269L30.8853 30.3551L35.7042 36.7184L36.4708 32.6591L30.6662 22.5106Z" fill="#FFA600"/>
    <path fill-rule="evenodd" clip-rule="evenodd" d="M7.44765 54.5467L10.0214 50.213L12.9785 52.8461L16.7569 53.6141L16.5379 59.2094L5.96911 58.99L10.5142 58.3317L11.1166 54.3821L9.91187 52.2975L7.44765 54.5467Z" fill="#030303"/>
    <path fill-rule="evenodd" clip-rule="evenodd" d="M11.1166 54.3822L10.5142 58.3319L7.50238 58.7707L8.21427 53.8336L9.91185 52.2977L11.1166 54.3822Z" fill="#EB3D08"/>
    <path fill-rule="evenodd" clip-rule="evenodd" d="M12.4308 56.4666L12.6498 54.4918L10.8975 54.437L10.6236 56.4118L12.4308 56.4666Z" fill="white"/>
    <path fill-rule="evenodd" clip-rule="evenodd" d="M30.6661 54.5467L28.1471 50.213L25.1353 52.8461L21.4116 53.6141L21.5759 59.2094L32.1447 58.99L27.6543 58.3317L26.9972 54.3821L28.2019 52.2975L30.6661 54.5467Z" fill="#030303"/>
    <path fill-rule="evenodd" clip-rule="evenodd" d="M26.997 54.3822L27.6541 58.3319L30.6112 58.7707L29.8993 53.8336L28.2018 52.2977L26.997 54.3822Z" fill="#EB3D08"/>
    <path fill-rule="evenodd" clip-rule="evenodd" d="M25.683 56.4666L25.5187 54.4918L27.2163 54.437L27.4901 56.4118L25.683 56.4666Z" fill="white"/>
    <path fill-rule="evenodd" clip-rule="evenodd" d="M9.69276 66.9991L10.5142 68.0414L15.2783 66.4505L33.3493 71.0585L31.4327 63.5432L15.8807 65.2437L9.69276 66.9991Z" fill="#030303"/>
    <path fill-rule="evenodd" clip-rule="evenodd" d="M31.6517 69.1385L17.7425 66.0117L30.447 64.5854L31.6517 69.1385Z" fill="#E5E4E2"/>
    <path fill-rule="evenodd" clip-rule="evenodd" d="M68.5058 66.5603L63.1941 54.9856L69.3273 59.7032L71.8462 42.2041L83.4555 32.6591L89.6434 30.3551L93.86 41.9298L97.5289 44.508L95.2838 32.6591L102.567 45.2212L106.4 63.2689L96.598 75.9956L89.6434 75.2276L80.7722 70.7294L68.5058 66.5603Z" fill="#FA6400"/>
    <path fill-rule="evenodd" clip-rule="evenodd" d="M69.3272 59.7032L70.1486 53.9981L62.9202 45.2211L63.194 54.9856L69.3272 59.7032Z" fill="#FED406"/>
    <path fill-rule="evenodd" clip-rule="evenodd" d="M69.7106 73.2527L69.3273 62.7203L80.7723 70.7294L81.5937 77.367L69.7106 73.2527Z" fill="#EB3D08"/>
    <path fill-rule="evenodd" clip-rule="evenodd" d="M81.5936 77.367L80.7722 70.7294L82.196 63.0495L89.3696 68.8643L98.7337 66.4506L96.7623 75.9956L81.5936 77.367Z" fill="#D41E02"/>
    <path fill-rule="evenodd" clip-rule="evenodd" d="M71.8463 42.2041L69.3273 59.7032L76.3367 62.3363L75.2962 47.8543L83.4555 32.6591L71.8463 42.2041Z" fill="#FFA600"/>
    <path fill-rule="evenodd" clip-rule="evenodd" d="M83.4554 32.659L71.8462 42.204L80.6626 28.2705L88.7672 26.2408L83.4554 32.659Z" fill="#FED406"/>
    <path fill-rule="evenodd" clip-rule="evenodd" d="M80.6627 28.2705L86.1935 26.8991L86.8506 13.4045L81.2103 19.8775L80.6627 28.2705Z" fill="#FED406"/>
    <path fill-rule="evenodd" clip-rule="evenodd" d="M89.4243 22.5106L86.8506 13.4045L86.1934 26.8991L83.4554 32.6591L81.1007 43.0269L89.6434 30.3551L93.8599 41.9298L97.5289 44.508L95.2837 32.6591L89.4243 22.5106Z" fill="#FFA600"/>
    <path fill-rule="evenodd" clip-rule="evenodd" d="M109.795 61.6232L98.6789 66.8894L96.598 75.9956L103.115 72.9785L109.795 61.6232Z" fill="#EB3D08"/>
    <path fill-rule="evenodd" clip-rule="evenodd" d="M104.538 42.2041L106.072 50.4874L108.043 56.6313L111 48.4577L109.795 61.6232L106.4 63.2689L104.593 53.7239L98.2955 50.8714L102.567 45.2212L95.2837 32.6591L104.538 42.2041Z" fill="#FFA600"/>
    <path fill-rule="evenodd" clip-rule="evenodd" d="M108.043 56.6313L106.071 50.4874L108.864 47.4703L111 48.4577L108.043 56.6313Z" fill="#FED406"/>
    <path fill-rule="evenodd" clip-rule="evenodd" d="M106.564 54.5467L104.045 50.213L101.088 52.8461L97.3098 53.6141L97.4741 59.2094L108.043 58.99L103.553 58.3317L102.95 54.3821L104.155 52.2975L106.564 54.5467Z" fill="#030303"/>
    <path fill-rule="evenodd" clip-rule="evenodd" d="M102.95 54.3822L103.553 58.3319L106.51 58.7707L105.853 53.8336L104.155 52.2977L102.95 54.3822Z" fill="#EB3D08"/>
    <path fill-rule="evenodd" clip-rule="evenodd" d="M101.636 56.4666L101.417 54.4918L103.114 54.437L103.388 56.4118L101.636 56.4666Z" fill="white"/>
    <path fill-rule="evenodd" clip-rule="evenodd" d="M83.4008 54.5467L85.9198 50.213L88.8769 52.8461L92.6554 53.6141L92.4911 59.2094L81.9223 58.99L86.4127 58.3317L87.0698 54.3821L85.8103 52.2975L83.4008 54.5467Z" fill="#030303"/>
    <path fill-rule="evenodd" clip-rule="evenodd" d="M87.0697 54.3822L86.4125 58.3319L83.4554 58.7707L84.1673 53.8336L85.8102 52.2977L87.0697 54.3822Z" fill="#EB3D08"/>
    <path fill-rule="evenodd" clip-rule="evenodd" d="M88.3291 56.4666L88.5481 54.4918L86.8505 54.437L86.5767 56.4118L88.3291 56.4666Z" fill="white"/>
    <path fill-rule="evenodd" clip-rule="evenodd" d="M104.374 66.9991L103.498 68.0414L98.7884 66.4505L80.6627 71.0585L82.634 63.5432L98.186 65.2437L104.374 66.9991Z" fill="#030303"/>
    <path fill-rule="evenodd" clip-rule="evenodd" d="M82.3603 69.1385L96.3243 66.0117L83.6198 64.5854L82.3603 69.1385Z" fill="#E5E4E2"/>
    <path fill-rule="evenodd" clip-rule="evenodd" d="M34.3352 74.2949L47.423 80.1646H70.5867L85.2625 68.151L85.7554 59.8129L86.303 49.0062L82.3055 32.8236L79.7317 31.3973L76.9937 40.3937L68.9986 16.3667L53.8299 11.0456L36.4708 32.659L32.7471 51.6393L27.7091 47.3605L26.3401 58.5512L34.3352 74.2949Z" fill="#FFA600"/>
    <path fill-rule="evenodd" clip-rule="evenodd" d="M68.9986 16.3667L53.8299 11.0456L47.9706 0.348633L59.6893 3.42059L68.9986 16.3667Z" fill="#FED406"/>
    <path fill-rule="evenodd" clip-rule="evenodd" d="M53.8299 11.0456L47.9705 0.348633L47.2586 10.4971L53.8299 11.0456Z" fill="#FFA600"/>
    <path fill-rule="evenodd" clip-rule="evenodd" d="M53.8299 11.0455L47.2587 10.4969L36.4708 32.6589L53.8299 11.0455Z" fill="#FED406"/>
    <path fill-rule="evenodd" clip-rule="evenodd" d="M76.9935 40.3938L68.9985 16.3667L75.1864 51.9136L76.9935 40.3938Z" fill="#FF880C"/>
    <path fill-rule="evenodd" clip-rule="evenodd" d="M36.4708 32.659L44.7396 22.4009L32.747 51.6393L36.4708 32.659Z" fill="#FF880C"/>
    <path fill-rule="evenodd" clip-rule="evenodd" d="M32.747 51.6393L27.709 47.3605L30.8852 35.6213L34.3351 43.6852L32.747 51.6393Z" fill="#FED406"/>
    <path fill-rule="evenodd" clip-rule="evenodd" d="M76.9936 40.3938L77.2674 30.8488L79.7316 31.3973L80.4435 43.356L75.1864 51.9136L76.9936 40.3938Z" fill="#FED406"/>
    <path fill-rule="evenodd" clip-rule="evenodd" d="M34.335 74.295L38.223 67.2734L46.6014 73.527L47.4228 80.1646L34.335 74.295Z" fill="#EB3D08"/>
    <path fill-rule="evenodd" clip-rule="evenodd" d="M47.4229 80.1646L46.6015 73.527L69.5462 73.3624L70.5867 80.1646H47.4229Z" fill="#D41E02"/>
    <path fill-rule="evenodd" clip-rule="evenodd" d="M70.5866 80.1646L69.5462 73.3624L78.6912 66.6151L78.5817 61.9523L85.2625 68.151L70.5866 80.1646Z" fill="#EB3D08"/>
    <path fill-rule="evenodd" clip-rule="evenodd" d="M69.5462 73.3624L46.6015 73.5269L38.2231 67.2733L35.1018 58.3317L73.3795 57.6735L78.6912 66.615L69.5462 73.3624Z" fill="#FA6400"/>
    <path fill-rule="evenodd" clip-rule="evenodd" d="M75.1865 51.9135L73.3794 57.6734L36.3065 61.7877L32.747 51.6392L43.973 33.8658L47.1491 40.1194L55.2536 29.4224L55.8012 15.8181L66.4796 32.4944L75.1865 51.9135Z" fill="#FED406"/>
    <path fill-rule="evenodd" clip-rule="evenodd" d="M38.4422 48.4576L41.7278 42.8074L45.561 46.2633L50.4347 47.2507L50.2157 54.4918L36.5255 54.2723L42.3302 53.3398L43.1516 48.2381L41.6183 45.5502L38.4422 48.4576Z" fill="#030303"/>
    <path fill-rule="evenodd" clip-rule="evenodd" d="M43.1516 48.2381L42.3302 53.3398L38.497 53.9432L39.3731 47.525L41.6183 45.5502L43.1516 48.2381Z" fill="#FF880C"/>
    <path fill-rule="evenodd" clip-rule="evenodd" d="M44.8492 50.9809L45.123 48.4027L42.9326 48.293L42.5493 50.8712L44.8492 50.9809Z" fill="white"/>
    <path fill-rule="evenodd" clip-rule="evenodd" d="M70.8604 48.4576L67.5748 42.8074L63.7415 46.2633L58.8131 47.2507L59.0869 54.4918L72.777 54.2723L66.9177 53.3398L66.0962 48.2381L67.6843 45.5502L70.8604 48.4576Z" fill="#030303"/>
    <path fill-rule="evenodd" clip-rule="evenodd" d="M66.0962 48.2381L66.9176 53.3398L70.8056 53.9432L69.8746 47.525L67.6842 45.5502L66.0962 48.2381Z" fill="#FF880C"/>
    <path fill-rule="evenodd" clip-rule="evenodd" d="M64.4535 50.9809L64.1797 48.4027L66.3701 48.293L66.7535 50.8712L64.4535 50.9809Z" fill="white"/>
    <path fill-rule="evenodd" clip-rule="evenodd" d="M41.2897 64.6402L42.385 65.9568L48.5729 63.9271L72.0652 69.9065L69.4915 60.142L49.3396 62.3363L41.2897 64.6402Z" fill="#030303"/>
    <path fill-rule="evenodd" clip-rule="evenodd" d="M69.8747 67.383L51.7489 63.3237L68.2319 61.4586L69.8747 67.383Z" fill="white"/>
    <path fill-rule="evenodd" clip-rule="evenodd" d="M38.2231 67.2733L32.747 51.6393L34.3351 74.2949L38.2231 67.2733Z" fill="#FF880C"/>
    <path fill-rule="evenodd" clip-rule="evenodd" d="M85.2624 68.151L78.6912 66.615L73.3794 57.6735L86.3029 49.0062L85.7553 59.8129L85.2624 68.151Z" fill="#FF880C"/>
    <path fill-rule="evenodd" clip-rule="evenodd" d="M86.0839 49.1708L85.2625 68.1511L88.0553 50.9262L82.3054 32.8236L86.0839 49.1708Z" fill="white"/>
    <path fill-rule="evenodd" clip-rule="evenodd" d="M34.8828 40.8875L30.8853 35.6213L34.0066 45.2211L34.8828 40.8875Z" fill="white"/>
    <path fill-rule="evenodd" clip-rule="evenodd" d="M54.3228 9.78392L47.9706 0.348633L53.8299 11.0456L66.4797 17.1347L75.5152 51.365L68.9986 16.3667L54.3228 9.78392Z" fill="white"/>
</svg>