<svg width="92" height="43" viewBox="0 0 92 43" fill="none" xmlns="http://www.w3.org/2000/svg">
<path d="M87.9114 6.54468C87.9114 10.7011 87.9114 13.0036 87.9114 13.4671C37.6156 13.4671 9.67182 13.4671 4.08008 13.4671C4.08008 9.31065 4.08008 7.00816 4.08008 6.54468C54.3759 6.54468 82.3196 6.54468 87.9114 6.54468Z" fill="#DBDBDB"/>
<path d="M91.0652 13.4673C91.0652 15.2614 91.0652 16.2632 91.0652 16.4575C36.9868 16.4575 6.94983 16.4575 0.939453 16.4575C0.939453 14.6634 0.939453 13.6617 0.939453 13.4673C55.003 13.4673 85.0548 13.4673 91.0652 13.4673Z" fill="white"/>
<path d="M91.0652 16.4573C91.0652 18.1019 91.0652 19.0139 91.0652 19.1933C36.9868 19.1933 6.94983 19.1933 0.939453 19.1933C0.939453 17.5487 0.939453 16.6367 0.939453 16.4573C55.003 16.4573 85.0548 16.4573 91.0652 16.4573Z" fill="#BABABA"/>
<path d="M84.5476 19.1936C84.5476 24.1275 84.5476 26.8635 84.5476 27.4018C38.2886 27.4018 12.5875 27.4018 7.44434 27.4018C7.44434 22.4829 7.44434 19.7468 7.44434 19.1936C53.7033 19.1936 79.4193 19.1936 84.5476 19.1936Z" fill="white"/>
<path d="M41.8608 13.4673C41.8608 15.2614 41.8608 16.2632 41.8608 16.4575C17.311 16.4575 3.66057 16.4575 0.939453 16.4575C0.939453 14.6634 0.939453 13.6617 0.939453 13.4673C25.4893 13.4673 39.1397 13.4673 41.8608 13.4673Z" fill="#E8E5E5"/>
<path d="M41.862 19.1936C41.862 24.1275 41.862 26.8635 41.862 27.4018C21.2144 27.4018 9.73187 27.4018 7.44434 27.4018C7.44434 22.4829 7.44434 19.7468 7.44434 19.1936C28.0919 19.1936 39.5744 19.1936 41.862 19.1936Z" fill="#BABABA"/>
<path d="M91.0652 27.4167C91.0652 32.0666 91.0652 34.6382 91.0652 35.1615C36.9868 35.1615 6.94983 35.1615 0.939453 35.1615C0.939453 30.5116 0.939453 27.9251 0.939453 27.4167C55.003 27.4167 85.0548 27.4167 91.0652 27.4167Z" fill="white"/>
<path d="M91.0652 35.1614C91.0652 39.4225 91.0652 41.7848 91.0652 42.2632C36.9868 42.2632 6.94983 42.2632 0.939453 42.2632C0.939453 38.0021 0.939453 35.6398 0.939453 35.1614C55.003 35.1614 85.0548 35.1614 91.0652 35.1614Z" fill="#BABABA"/>
<path d="M41.8608 27.4167C41.8608 32.0666 41.8608 34.6382 41.8608 35.1615C17.311 35.1615 3.66057 35.1615 0.939453 35.1615C0.939453 30.5116 0.939453 27.9251 0.939453 27.4167C25.4893 27.4167 39.1397 27.4167 41.8608 27.4167Z" fill="#E8E5E5"/>
<path d="M91.0652 0.818481C91.0652 2.61262 91.0652 3.61435 91.0652 3.80872C36.9868 3.80872 6.94983 3.80872 0.939453 3.80872C0.939453 2.01458 0.939453 1.01285 0.939453 0.818481C55.003 0.818481 85.0548 0.818481 91.0652 0.818481Z" fill="white"/>
<path d="M91.0652 3.80884C91.0652 5.45347 91.0652 6.36547 91.0652 6.54489C36.9868 6.54489 6.94983 6.54489 0.939453 6.54489C0.939453 4.90025 0.939453 3.98825 0.939453 3.80884C55.003 3.80884 85.0548 3.80884 91.0652 3.80884Z" fill="#BABABA"/>
<path d="M41.8608 0.818481C41.8608 2.61262 41.8608 3.61435 41.8608 3.80872C17.311 3.80872 3.66057 3.80872 0.939453 3.80872C0.939453 2.01458 0.939453 1.01285 0.939453 0.818481C25.4893 0.818481 39.1397 0.818481 41.8608 0.818481Z" fill="#E8E5E5"/>
<path d="M41.7421 6.54468C41.7421 10.7011 41.7421 13.0036 41.7421 13.4671C19.1509 13.4671 6.59188 13.4671 4.08008 13.4671C4.08008 9.31065 4.08008 7.00816 4.08008 6.54468C26.6863 6.54468 39.2303 6.54468 41.7421 6.54468Z" fill="#BABABA"/>
</svg>
