<svg width="7281" height="4096" viewBox="0 0 7281 4096" fill="none" xmlns="http://www.w3.org/2000/svg">
<g clip-path="url(#clip0)">
<path d="M7281 4096L7281 0L0 0L0 4096L7281 4096Z" fill="#36C2FF"/>
<path d="M7149.03 1418.43C7236.63 1291 7109.22 1126.02 6963.6 1178.36L6960.94 1179.12C6849.45 1219.32 6735.69 1260.28 6641.26 1332.34C6576.42 1381.64 6523.33 1443.08 6476.3 1509.83C6402.35 1614.89 6392.87 1752.18 6451.27 1866.33L6496.02 1953.56C6551.01 2060.89 6700.8 2070.76 6769.44 1971.01L7149.03 1418.43Z" fill="#1CBBFF"/>
<path d="M4375.81 2048C4375.81 2454.19 4046.64 2783.38 3640.5 2783.38C3234.36 2783.38 2905.2 2454.19 2905.2 2048C2905.2 1641.81 3234.36 1312.62 3640.5 1312.62C4046.64 1312.62 4375.81 1641.81 4375.81 2048Z" fill="#1CBBFF"/>
<path d="M0 435.388L793.705 786.203C888.51 706.179 1172.17 163.459 1172.17 163.459L0 346.641L0 435.388Z" fill="#1CBBFF"/>
<path d="M5102.77 687.214L5258.63 986.449L6076.6 560.162L5920.75 261.306L5102.77 687.214Z" fill="#1CBBFF"/>
<path d="M6578.31 804.786L6739.48 1100.61L7149.03 877.224L6987.86 581.402L6578.31 804.786Z" fill="#1CBBFF"/>
<path d="M5968.9 1146.88L6130.45 1442.7L6540.01 1219.32L6378.46 923.494L5968.9 1146.88Z" fill="#1CBBFF"/>
<path d="M3967.39 657.256L4326.51 474.833L4085.71 0L3633.68 0L3967.39 657.256Z" fill="#1CBBFF"/>
<path d="M4998.1 1120.33L4716.34 1273.56L4611.68 1080.89L4893.44 927.671L4998.1 1120.33Z" fill="#1CBBFF"/>
<path d="M4828.97 808.96L4547.21 962.18L4442.55 769.517L4724.3 616.296L4828.97 808.96Z" fill="#1CBBFF"/>
<path d="M6327.65 261.306C6283.28 261.306 6247.25 297.335 6247.25 341.709C6247.25 386.082 6283.28 422.112 6327.65 422.112C6372.01 422.112 6408.04 386.082 6408.04 341.709C6408.04 297.335 6372.01 261.306 6327.65 261.306Z" fill="#1CBBFF"/>
<path d="M4804.7 341.711C4760.33 341.711 4724.31 377.741 4724.31 422.114C4724.31 466.487 4760.33 502.517 4804.7 502.517C4849.07 502.517 4885.09 466.487 4885.09 422.114C4885.09 377.741 4849.07 341.711 4804.7 341.711Z" fill="#1CBBFF"/>
<path d="M5927.19 3258.98C5882.82 3258.98 5846.79 3295.01 5846.79 3339.38C5846.79 3383.75 5882.82 3419.78 5927.19 3419.78C5971.56 3419.78 6007.58 3383.75 6007.58 3339.38C6007.58 3295.01 5971.56 3258.98 5927.19 3258.98Z" fill="#1CBBFF"/>
<path d="M2637.84 3720.53C2593.48 3720.53 2557.45 3756.56 2557.45 3800.93C2557.45 3845.31 2593.48 3881.34 2637.84 3881.34C2682.21 3881.34 2718.24 3845.31 2718.24 3800.93C2718.24 3756.56 2682.21 3720.53 2637.84 3720.53Z" fill="#1CBBFF"/>
<path d="M2021.23 3486.15C1976.86 3486.15 1940.84 3522.18 1940.84 3566.56C1940.84 3610.93 1976.86 3646.96 2021.23 3646.96C2065.6 3646.96 2101.63 3610.93 2101.63 3566.56C2102.01 3522.18 2065.98 3486.15 2021.23 3486.15Z" fill="#1CBBFF"/>
<path d="M477.06 3181.23C432.692 3181.23 396.666 3217.26 396.666 3261.63C396.666 3306 432.692 3342.03 477.06 3342.03C521.429 3342.03 557.455 3306.38 557.455 3261.63C557.455 3217.26 521.429 3181.23 477.06 3181.23Z" fill="#1CBBFF"/>
<path d="M5599.54 3098.55C5555.17 3098.55 5519.15 3134.58 5519.15 3178.95C5519.15 3223.32 5555.17 3259.35 5599.54 3259.35C5643.91 3259.35 5679.94 3223.32 5679.94 3178.95C5680.32 3134.58 5643.91 3098.55 5599.54 3098.55Z" fill="#1CBBFF"/>
<path d="M5180.89 3521.42C5136.52 3521.42 5100.49 3557.45 5100.49 3601.83C5100.49 3646.2 5136.52 3682.23 5180.89 3682.23C5225.26 3682.23 5261.28 3646.2 5261.28 3601.83C5261.66 3557.45 5225.26 3521.42 5180.89 3521.42Z" fill="#1CBBFF"/>
<path d="M4191.89 708.833C4147.52 708.833 4111.49 744.863 4111.49 789.236C4111.49 833.609 4147.52 869.639 4191.89 869.639C4236.26 869.639 4272.28 833.609 4272.28 789.236C4272.28 744.863 4236.26 708.833 4191.89 708.833Z" fill="#1CBBFF"/>
<path d="M2556.69 0C2554.42 7.58518 2553.28 15.5496 2553.28 23.8933C2553.28 68.2667 2589.3 104.296 2633.67 104.296C2678.04 104.296 2714.07 68.2667 2714.07 23.8933C2714.07 15.5496 2712.93 7.58518 2710.65 0L2556.69 0V0Z" fill="#1CBBFF"/>
<path d="M223.74 1099.09C179.371 1099.09 143.345 1135.12 143.345 1179.49C143.345 1223.87 179.371 1259.89 223.74 1259.89C268.108 1259.89 304.134 1223.87 304.134 1179.49C304.134 1135.12 268.108 1099.09 223.74 1099.09Z" fill="#1CBBFF"/>
<path d="M3001.9 42.8535C2957.53 42.8535 2921.5 78.8831 2921.5 123.256C2921.5 167.63 2957.53 203.659 3001.9 203.659C3046.27 203.659 3082.29 167.63 3082.29 123.256C3082.29 78.8831 3046.27 42.8535 3001.9 42.8535Z" fill="#1CBBFF"/>
<path d="M2150.17 163.844L1679.56 1058.14L2232.84 1312.62L3082.29 502.902L2150.17 163.844Z" fill="#1CBBFF"/>
<path d="M5599.55 1383.54L4976.49 1682.39C5095.56 1955.08 5109.97 2286.18 4952.22 2538.38H6247.25L5599.55 1383.54Z" fill="#1CBBFF"/>
<path d="M5846.79 2971.12H6247.25V2679.85H5846.79V2971.12Z" fill="#1CBBFF"/>
<path d="M5220.33 2971.12H5620.78V2679.85H5220.33V2971.12Z" fill="#1CBBFF"/>
<path d="M3917.33 3356.83V4096H4594.23V3964.78L4281.38 3848.35V3225.98L3917.33 3356.83Z" fill="#1CBBFF"/>
<path d="M5481.99 4096V3800.94H4751.99V4096H5481.99Z" fill="#1CBBFF"/>
<path d="M4439.14 3703.46H4914.68V3339.38H4439.14V3703.46Z" fill="#1CBBFF"/>
<path d="M7281 2301.34L6868.41 3063.27L7281 3288.17V2301.34Z" fill="#1CBBFF"/>
<path d="M6772.85 3282.11L6587.03 3626.47L7281 4005.73V3555.17L6772.85 3282.11Z" fill="#1CBBFF"/>
<path d="M2267.73 2349.89C2224.5 2158.36 2260.14 2001.35 2260.14 2001.35L1492.98 1671.02L1410.69 2208.43L2267.73 2349.89Z" fill="#1CBBFF"/>
<path d="M1379.22 2445.84L1259.77 3225.98L2419.04 2765.18C2373.53 2711.7 2339.02 2655.57 2312.86 2599.82L1379.22 2445.84Z" fill="#1CBBFF"/>
<path d="M2905.19 3682.61V4089.93L1475.54 3800.94L960.94 4082.73L1022.37 4096L3357.6 4096L3368.6 3682.61H2905.19Z" fill="#1CBBFF"/>
<path d="M2419.03 3490.32H3218.05V3258.98H2419.03V3490.32Z" fill="#1CBBFF"/>
<path d="M98.2156 1878.85L98.2156 2271.76L782.705 2206.53L782.705 1671.02L98.2156 1878.85Z" fill="#1CBBFF"/>
<path d="M0 2629.41L782.708 2537.63L742.51 2923.71L0 3293.49L0 2629.41Z" fill="#1CBBFF"/>
<path d="M229.427 3815.73L638.604 3644.68L695.486 3356.82L229.427 3553.66L229.427 3815.73Z" fill="#1CBBFF"/>
<path d="M3560.48 4096V3175.54C3296.55 3156.95 3057.64 3048.11 2874.48 2879.34L282.518 4096H0L0 4052.01L805.461 3673.88L1009.86 2393.88L0 2480.36L0 2407.54L1021.62 2319.93L1184.68 1298.58L0 735.763L0 559.028L2544.94 1768.87C2595.75 1569 2699.66 1389.99 2841.11 1248.52C3027.68 1061.93 3279.1 940.184 3558.97 920.462C3553.66 777.481 3533.18 637.535 3499.05 502.519C3467.58 378.501 3335.99 160.806 3240.05 0L3424.72 0C3518.01 158.91 3624.57 346.643 3654.15 463.834C3691.69 611.745 3713.69 764.587 3719.38 920.462C4000 939.804 4252.56 1061.55 4439.89 1248.9C4511.57 1320.58 4573.38 1401.74 4623.81 1490.11L6644.29 378.501L6340.92 0.379259L6545.32 0.379259L6785.74 300.373L7281 28.0652V210.11L6414.11 686.839C6455.44 749.037 6494.5 812.373 6531.66 876.847C6573.76 950.044 6613.2 1024.76 6649.22 1099.85C6680.7 1165.08 6709.9 1231.45 6734.17 1299.72C6758.44 1368.75 6777.78 1439.29 6788.02 1512.49C6799.01 1589.1 6799.39 1668.74 6786.5 1745.35C6774.74 1816.27 6751.61 1885.3 6714.45 1947.88C6675.77 2013.49 6624.57 2068.86 6567.69 2118.16C6519.15 2160.26 6466.82 2197.81 6414.86 2234.22L6635.57 2617.65L7281 1584.92V1886.81L6142.21 3709.53L6822.15 4096H6498.29L6063.33 3848.72L5932.5 4096H5751.61L5924.16 3769.84L4387.56 2896.4C4207.05 3055.31 3975.35 3157.71 3720.52 3175.54V4096H3560.48ZM6249.52 0C5908.61 130.465 5529.39 227.935 5169.51 227.935C4876.37 227.935 4595.75 163.461 4358.74 0L4537.73 0C4728.86 96.3318 4944.63 136.154 5169.51 136.154C5433.07 136.154 5708.38 81.5407 5970.42 0L6249.52 0ZM1149.79 0L398.559 0L0 86.4711L0 249.553L1149.79 0ZM6003.03 3630.27L6592.34 2687.05L5674.63 1093.78L4692.83 1634.23C4743.27 1762.42 4770.95 1901.99 4770.95 2048C4770.95 2326.38 4670.46 2581.24 4503.6 2778.45L6003.03 3630.27ZM6350.4 722.11L5737.96 1058.89L6378.46 2171.26C6427.38 2137.13 6475.92 2101.85 6520.29 2063.55C6571.86 2018.8 6618.13 1969.11 6652.26 1911.47C6684.11 1857.23 6704.59 1796.55 6715.21 1733.97C6726.58 1664.57 6726.2 1592.89 6716.34 1522.73C6706.86 1455.22 6689.04 1389.23 6665.91 1323.99C6642.77 1258.38 6614.33 1194.29 6584 1131.71C6547.97 1057 6509.67 984.178 6469.09 913.256C6431.93 848.024 6392.11 784.308 6350.4 722.11ZM2759.57 2756.46C2603.34 2562.65 2510.05 2316.14 2510.05 2048C2510.05 2008.94 2511.94 1969.87 2516.12 1931.95L1334.85 1370.26L980.28 3591.96L2759.57 2756.46ZM4326.51 2734.08C4502.09 2558.48 4610.54 2315.76 4610.54 2048C4610.54 1780.24 4502.09 1537.52 4326.51 1361.92C4150.93 1186.32 3908.23 1077.85 3640.5 1077.85C3372.77 1077.85 3130.07 1186.32 2954.49 1361.92C2778.91 1537.52 2670.46 1780.24 2670.46 2048C2670.46 2316.14 2778.91 2558.48 2954.49 2734.08C3130.07 2909.68 3372.77 3018.15 3640.5 3018.15C3908.23 3018.15 4150.93 2909.68 4326.51 2734.08Z" fill="#4FCAFF"/>
</g>
<defs>
<clipPath id="clip0">
<rect width="7281" height="4096" fill="white"/>
</clipPath>
</defs>
</svg>
