<svg width="242" height="125" viewBox="0 0 242 125" fill="none" xmlns="http://www.w3.org/2000/svg">
<path d="M58 0H10C4.47715 0 0 4.47715 0 10V87.0133C0 92.5362 4.47715 97.0133 10 97.0133H58C63.5228 97.0133 68 92.5362 68 87.0133V10C68 4.47715 63.5228 0 58 0Z" fill="#363634"/>
<path d="M55.56 5.44H12.44C8.57401 5.44 5.44 8.57401 5.44 12.44V79.1333C5.44 82.9993 8.57401 86.1333 12.44 86.1333H55.56C59.426 86.1333 62.56 82.9993 62.56 79.1333V12.44C62.56 8.57401 59.426 5.44 55.56 5.44Z" fill="#454540"/>
<path d="M22.48 52.587H14.6933C13.5887 52.587 12.6933 53.4824 12.6933 54.587V56.9337C12.6933 58.0382 13.5887 58.9337 14.6933 58.9337H22.48C23.5846 58.9337 24.48 58.0382 24.48 56.9337V54.587C24.48 53.4824 23.5846 52.587 22.48 52.587Z" fill="#818181"/>
<path d="M22.48 62.56H14.6933C13.5887 62.56 12.6933 63.4554 12.6933 64.56V66.9067C12.6933 68.0112 13.5887 68.9067 14.6933 68.9067H22.48C23.5846 68.9067 24.48 68.0112 24.48 66.9067V64.56C24.48 63.4554 23.5846 62.56 22.48 62.56Z" fill="#818181"/>
<path d="M22.48 72.533H14.6933C13.5887 72.533 12.6933 73.4285 12.6933 74.533V76.8797C12.6933 77.9843 13.5887 78.8797 14.6933 78.8797H22.48C23.5846 78.8797 24.48 77.9843 24.48 76.8797V74.533C24.48 73.4285 23.5846 72.533 22.48 72.533Z" fill="#FF6F6F"/>
<path d="M37.8934 52.587H30.1067C29.0021 52.587 28.1067 53.4824 28.1067 54.587V56.9337C28.1067 58.0382 29.0021 58.9337 30.1067 58.9337H37.8934C38.998 58.9337 39.8934 58.0382 39.8934 56.9337V54.587C39.8934 53.4824 38.998 52.587 37.8934 52.587Z" fill="#818181"/>
<path d="M37.8934 62.56H30.1067C29.0021 62.56 28.1067 63.4554 28.1067 64.56V66.9067C28.1067 68.0112 29.0021 68.9067 30.1067 68.9067H37.8934C38.998 68.9067 39.8934 68.0112 39.8934 66.9067V64.56C39.8934 63.4554 38.998 62.56 37.8934 62.56Z" fill="#818181"/>
<path d="M37.8934 72.533H30.1067C29.0021 72.533 28.1067 73.4285 28.1067 74.533V76.8797C28.1067 77.9843 29.0021 78.8797 30.1067 78.8797H37.8934C38.998 78.8797 39.8934 77.9843 39.8934 76.8797V74.533C39.8934 73.4285 38.998 72.533 37.8934 72.533Z" fill="#FFF81A"/>
<path d="M53.3067 52.587H45.52C44.4154 52.587 43.52 53.4824 43.52 54.587V56.9337C43.52 58.0382 44.4154 58.9337 45.52 58.9337H53.3067C54.4113 58.9337 55.3067 58.0382 55.3067 56.9337V54.587C55.3067 53.4824 54.4113 52.587 53.3067 52.587Z" fill="#818181"/>
<path d="M53.3067 62.56H45.52C44.4154 62.56 43.52 63.4554 43.52 64.56V66.9067C43.52 68.0112 44.4154 68.9067 45.52 68.9067H53.3067C54.4113 68.9067 55.3067 68.0112 55.3067 66.9067V64.56C55.3067 63.4554 54.4113 62.56 53.3067 62.56Z" fill="#818181"/>
<path d="M53.3067 72.533H45.52C44.4154 72.533 43.52 73.4285 43.52 74.533V76.8797C43.52 77.9843 44.4154 78.8797 45.52 78.8797H53.3067C54.4113 78.8797 55.3067 77.9843 55.3067 76.8797V74.533C55.3067 73.4285 54.4113 72.533 53.3067 72.533Z" fill="#41B752"/>
<path d="M51.3066 12.693H16.6933C14.4842 12.693 12.6933 14.4839 12.6933 16.693V41.333C12.6933 43.5421 14.4842 45.333 16.6933 45.333H51.3066C53.5157 45.333 55.3066 43.5421 55.3066 41.333V16.693C55.3066 14.4839 53.5157 12.693 51.3066 12.693Z" fill="#363634"/>
<path d="M49.68 17.227H18.32C17.2154 17.227 16.32 18.1224 16.32 19.227V39.707C16.32 40.8115 17.2154 41.707 18.32 41.707H49.68C50.7846 41.707 51.68 40.8115 51.68 39.707V19.227C51.68 18.1224 50.7846 17.227 49.68 17.227Z" fill="#818181"/>
<path d="M25.6927 29.943L26.9779 31.64L25.5499 32.64L24.2647 30.911L23.0112 32.577L21.6149 31.577L22.9001 29.927L20.8533 29.245L21.4087 27.658L23.4237 28.356V26.293H25.1691V28.356L27.1841 27.721L27.7236 29.308L25.6927 29.943Z" fill="#E2E2E2"/>
<path d="M35.36 29.943L36.645 31.64L35.217 32.64L33.9316 30.911L32.6781 32.577L31.2818 31.577L32.567 29.927L30.5202 29.245L31.0756 27.658L33.0906 28.356V26.293H34.836V28.356L36.851 27.721L37.39 29.308L35.36 29.943Z" fill="#E2E2E2"/>
<path d="M45.026 29.943L46.312 31.64L44.884 32.64L43.598 30.911L42.345 32.577L40.949 31.577L42.234 29.927L40.187 29.245L40.742 27.658L42.758 28.356V26.293H44.503V28.356L46.518 27.721L47.057 29.308L45.026 29.943Z" fill="#E2E2E2"/>
<path d="M58 104H10C4.47715 104 0 108.477 0 114V115C0 120.523 4.47715 125 10 125H58C63.5228 125 68 120.523 68 115V114C68 108.477 63.5228 104 58 104Z" fill="#363634"/>
<path d="M60.6234 111H7.3765C6.54807 111 5.8765 111.672 5.8765 112.5C5.8765 113.328 6.54807 114 7.3765 114H60.6234C61.4518 114 62.1234 113.328 62.1234 112.5C62.1234 111.672 61.4518 111 60.6234 111Z" fill="#A5A5A5"/>
<path d="M232 0H167C161.477 0 157 4.47715 157 10V46C157 51.5228 161.477 56 167 56H232C237.523 56 242 51.5228 242 46V10C242 4.47715 237.523 0 232 0Z" fill="#363634"/>
<path d="M226 9H173C169.134 9 166 12.134 166 16V36C166 39.866 169.134 43 173 43H226C229.866 43 233 39.866 233 36V16C233 12.134 229.866 9 226 9Z" fill="#454540"/>
<path d="M225 24H174C172.895 24 172 24.8954 172 26C172 27.1046 172.895 28 174 28H225C226.105 28 227 27.1046 227 26C227 24.8954 226.105 24 225 24Z" fill="#A5A5A5"/>
<path d="M218 69H180C174.477 69 170 73.4772 170 79V115C170 120.523 174.477 125 180 125H218C223.523 125 228 120.523 228 115V79C228 73.4772 223.523 69 218 69Z" fill="#232323"/>
</svg>
