<svg width="26" height="30" viewBox="0 0 26 30" fill="none" xmlns="http://www.w3.org/2000/svg">
<circle cx="13" cy="17" r="13" fill="black" fill-opacity="0.25"/>
<circle cx="13" cy="13" r="12" fill="white" stroke="#232323" stroke-width="2"/>
<rect x="12.4338" y="19.7057" width="0.901554" height="1.69251" fill="#232323" stroke="#232323" stroke-width="0.5"/>
<rect x="12.4338" y="4.9944" width="0.901554" height="1.69251" fill="#232323" stroke="#232323" stroke-width="0.5"/>
<rect x="6.30655" y="12.7475" width="0.897322" height="1.70466" transform="rotate(90 6.30655 12.7475)" fill="#232323" stroke="#232323" stroke-width="0.5"/>
<rect x="21.1675" y="12.7475" width="0.897322" height="1.70466" transform="rotate(90 21.1675 12.7475)" fill="#232323" stroke="#232323" stroke-width="0.5"/>
<rect y="-0.351756" width="0.899443" height="1.69833" transform="matrix(0.710682 0.703513 -0.710682 0.703513 7.6643 17.731)" fill="#232323" stroke="#232323" stroke-width="0.5"/>
<rect y="-0.351757" width="0.899443" height="1.69833" transform="matrix(0.710681 0.703514 -0.710681 0.703514 18.1728 7.32837)" fill="#232323" stroke="#232323" stroke-width="0.5"/>
<rect x="0.355341" y="4.47035e-08" width="0.899443" height="1.69833" transform="matrix(-0.710682 0.703513 -0.710682 -0.703514 8.80651 8.02635)" fill="#232323" stroke="#232323" stroke-width="0.5"/>
<rect x="0.35534" y="4.47035e-08" width="0.899443" height="1.69833" transform="matrix(-0.710681 0.703515 -0.710681 -0.703515 19.3146 18.4286)" fill="#232323" stroke="#232323" stroke-width="0.5"/>
<ellipse cx="13.0603" cy="13.3938" rx="1.91997" ry="1.9006" fill="#232323"/>
<ellipse cx="13.0605" cy="13.394" rx="0.909519" ry="0.900345" fill="#232323"/>
</svg>
