<svg width="60" height="60" viewBox="0 0 60 60" fill="none" xmlns="http://www.w3.org/2000/svg">
<g filter="url(#filter0_d)">
<path fill-rule="evenodd" clip-rule="evenodd" d="M30 56C43.8071 56 55 44.8071 55 31C55 17.1929 43.8071 6 30 6C16.1929 6 5 17.1929 5 31C5 44.8071 16.1929 56 30 56Z" fill="#F7FF77"/>
</g>
<path fill-rule="evenodd" clip-rule="evenodd" d="M30 44.6364C37.5312 44.6364 43.6364 38.5312 43.6364 31C43.6364 23.4689 37.5312 17.3636 30 17.3636C22.4688 17.3636 16.3636 23.4689 16.3636 31C16.3636 38.5312 22.4688 44.6364 30 44.6364Z" fill="url(#paint0_linear)"/>
<path fill-rule="evenodd" clip-rule="evenodd" d="M30 44.6364C37.5312 44.6364 43.6364 38.5312 43.6364 31C43.6364 23.4689 37.5312 17.3636 30 17.3636C22.4688 17.3636 16.3636 23.4689 16.3636 31C16.3636 38.5312 22.4688 44.6364 30 44.6364Z" fill="#FF6868"/>
<path fill-rule="evenodd" clip-rule="evenodd" d="M10.5998 31.4084C10.5998 42.4663 19.3281 51.4304 30.095 51.4304C40.8619 51.4304 49.5902 42.4663 49.5902 31.4084C49.5902 20.3505 40.8619 11.3863 30.095 11.3863C19.3281 11.3863 10.5998 20.3505 10.5998 31.4084ZM46.091 31.4084C46.091 40.4815 38.9294 47.8367 30.095 47.8367C21.2606 47.8367 14.099 40.4815 14.099 31.4084C14.099 22.3353 21.2606 14.98 30.095 14.98C38.9294 14.98 46.091 22.3353 46.091 31.4084Z" fill="#FF6F6F"/>
<defs>
<filter id="filter0_d" x="0" y="0" width="60" height="60" filterUnits="userSpaceOnUse" color-interpolation-filters="sRGB">
<feFlood flood-opacity="0" result="BackgroundImageFix"/>
<feColorMatrix in="SourceAlpha" type="matrix" values="0 0 0 0 0 0 0 0 0 0 0 0 0 0 0 0 0 0 127 0"/>
<feOffset dy="-1"/>
<feGaussianBlur stdDeviation="2.5"/>
<feColorMatrix type="matrix" values="0 0 0 0 0 0 0 0 0 0 0 0 0 0 0 0 0 0 0.132812 0"/>
<feBlend mode="normal" in2="BackgroundImageFix" result="effect1_dropShadow"/>
<feBlend mode="normal" in="SourceGraphic" in2="effect1_dropShadow" result="shape"/>
</filter>
<linearGradient id="paint0_linear" x1="9.23822" y1="27.1142" x2="28.7394" y2="48.5668" gradientUnits="userSpaceOnUse">
<stop stop-color="white"/>
<stop offset="1" stop-color="#C0C0C0"/>
</linearGradient>
</defs>
</svg>
