<svg width="77" height="210" viewBox="0 0 77 210" fill="none" xmlns="http://www.w3.org/2000/svg">
<path d="M77 0V210H34.8164V0H77Z" fill="white"/>
<path d="M34.817 0C34.817 126.692 34.817 195.922 34.817 210C14.1694 210 2.28753 210 0 210C0 83.3078 0 14.0777 0 0C20.6476 0 32.5295 0 34.817 0Z" fill="#CFCFCF"/>
<path d="M73.8837 210V0H70.2207V210H73.8837Z" fill="#DBDBDB"/>
<path d="M66.4084 210L66.3935 0H62.7305L62.7454 210H66.4084Z" fill="#DBDBDB"/>
<path d="M58.4993 210L58.5292 0H54.8661L54.8213 210H58.4993Z" fill="#DBDBDB"/>
<path d="M50.8447 210V0H47.1816V210H50.8447Z" fill="#DBDBDB"/>
<path d="M43.1448 210L43.2943 0H39.6313L39.4668 210H43.1448Z" fill="#DBDBDB"/>
</svg>
