<?xml version="1.0" encoding="UTF-8" standalone="no"?>
<!DOCTYPE svg PUBLIC "-//W3C//DTD SVG 1.1//EN" "http://www.w3.org/Graphics/SVG/1.1/DTD/svg11.dtd">
<svg version="1.1" xmlns="http://www.w3.org/2000/svg" xmlns:xlink="http://www.w3.org/1999/xlink" preserveAspectRatio="xMidYMid meet" viewBox="0 0 79 60" width="79" height="60"><defs><path d="M68.83 11.81C66.83 12.34 50.83 16.63 48.83 17.17C48.69 17.2 48.62 17.37 48.54 17.52C48.53 17.55 48.52 17.58 48.5 17.61C48.41 17.79 48.44 18.04 48.49 18.23C48.5 18.27 48.58 18.57 48.59 18.61C48.73 19.14 48.87 19.66 48.98 20.24C49.03 20.44 49.15 20.71 49.32 20.82C49.34 20.84 49.37 20.86 49.4 20.88C49.54 20.98 49.69 21.08 49.83 21.04C51.69 20.54 66.61 16.54 68.48 16.04C68.65 16 68.76 15.76 68.84 15.54C68.92 15.28 69.61 13.26 69.69 13.01C69.75 12.74 69.69 12.34 69.5 12.14C69.36 11.92 69.08 11.74 68.83 11.81Z" id="bX6FhK5mU"></path><path d="M67.49 18.38C65.49 18.92 49.49 23.2 47.49 23.74C47.35 23.78 47.27 23.94 47.2 24.09C47.19 24.13 47.17 24.16 47.16 24.18C47.07 24.36 47.09 24.61 47.14 24.8C47.15 24.84 47.23 25.15 47.24 25.18C47.38 25.71 47.53 26.23 47.64 26.82C47.69 27.01 47.81 27.28 47.97 27.39C48 27.41 48.03 27.43 48.05 27.45C48.19 27.55 48.34 27.65 48.48 27.61C50.35 27.11 65.27 23.12 67.13 22.62C67.3 22.57 67.42 22.33 67.49 22.11C67.58 21.86 68.26 19.83 68.35 19.58C68.41 19.31 68.35 18.92 68.16 18.71C68.01 18.49 67.74 18.31 67.49 18.38Z" id="ejUs2mNaq"></path><path d="M66.81 25.28C67 25.49 67.06 25.88 67 26.15C66.92 26.41 66.23 28.43 66.15 28.68C66.07 28.91 65.96 29.14 65.79 29.19C63.92 29.69 49 33.69 47.14 34.19C47 34.22 46.85 34.12 46.71 34.02C46.68 34 46.65 33.98 46.63 33.96C46.46 33.85 46.34 33.58 46.29 33.39C46.18 32.81 46.04 32.28 45.9 31.76C45.89 31.72 45.81 31.41 45.8 31.37C45.75 31.18 45.72 30.93 45.81 30.76C45.83 30.73 45.84 30.7 45.85 30.67C45.93 30.51 46 30.35 46.14 30.31C47.48 29.95 54.14 28.17 66.14 24.95C66.49 25.03 66.72 25.14 66.81 25.28Z" id="adnNw3RIC"></path><path d="M47.02 20.62C46.92 20.12 46.8 19.66 46.66 19.13C46.65 19.09 46.57 18.79 46.56 18.75C46.47 18.42 46.29 17.57 46.71 16.72C46.71 16.72 46.71 16.72 46.71 16.72C46.72 16.71 46.72 16.7 46.73 16.68C47.82 17.19 48.42 17.47 48.54 17.52C48.53 17.55 48.52 17.58 48.5 17.61C48.41 17.79 48.44 18.04 48.49 18.23C48.5 18.27 48.58 18.57 48.59 18.61C48.73 19.14 48.87 19.66 48.98 20.24C49.03 20.44 49.15 20.71 49.32 20.82C49.34 20.84 49.37 20.86 49.4 20.88C49.54 20.98 49.69 21.08 49.83 21.04C51.69 20.54 66.61 16.54 68.48 16.04C68.65 16 68.76 15.76 68.84 15.54C68.92 15.28 69.61 13.26 69.69 13.01C69.75 12.74 69.69 12.34 69.5 12.14C69.36 11.92 69.08 11.74 68.83 11.81C66.83 12.34 50.83 16.63 48.83 17.17C48.69 17.2 48.62 17.37 48.54 17.52C48.36 17.44 46.91 16.77 46.73 16.68C46.73 16.68 46.73 16.67 46.74 16.67C46.76 16.61 46.87 16.37 47.02 16.15C47.2 15.9 47.6 15.43 48.31 15.23C50.31 14.7 66.31 10.41 68.31 9.88C69.07 9.67 69.73 9.88 70.16 10.11C70.54 10.31 70.84 10.59 71.07 10.9C71.43 11.33 71.59 11.82 71.66 12.16C71.73 12.56 71.74 13.01 71.64 13.45C71.64 13.46 71.63 13.49 71.62 13.55C71.09 15.12 70.79 16 70.74 16.17C70.74 16.17 70.73 16.17 70.73 16.18C70.67 16.36 70.56 16.65 70.38 16.94C70.28 17.08 70.1 17.34 69.81 17.57C70.11 17.98 70.25 18.41 70.31 18.73C70.39 19.13 70.4 19.58 70.3 20.03C70.3 20.03 70.29 20.07 70.27 20.12C69.74 21.7 69.45 22.57 69.39 22.74C69.39 22.74 69.39 22.75 69.39 22.75C69.33 22.93 69.22 23.22 69.03 23.51C68.94 23.65 68.76 23.91 68.46 24.14C68.76 24.55 68.9 24.99 68.97 25.31C69.04 25.7 69.05 26.15 68.95 26.6C68.95 26.6 68.94 26.64 68.93 26.7C68.4 28.27 68.1 29.14 68.05 29.32C68.05 29.32 68.05 29.32 68.04 29.32C67.98 29.51 67.87 29.79 67.69 30.08C67.53 30.33 67.11 30.9 66.31 31.12C64.44 31.62 49.52 35.62 47.65 36.12C46.94 36.31 46.35 36.1 46.08 35.97C45.83 35.85 45.62 35.7 45.57 35.66C45.56 35.66 45.56 35.66 45.56 35.66C45.55 35.65 45.53 35.64 45.53 35.63C45.52 35.63 45.52 35.63 45.52 35.63C45.03 35.3 44.77 34.87 44.65 34.65C44.51 34.39 44.42 34.13 44.36 33.91C44.36 33.9 44.35 33.88 44.34 33.84C44.33 33.79 44.33 33.77 44.33 33.76C44.23 33.26 44.11 32.81 43.97 32.27C43.96 32.24 43.88 31.93 43.87 31.89C43.78 31.57 43.6 30.72 44.02 29.87C44.02 29.87 44.02 29.87 44.02 29.86C44.03 29.86 44.04 29.83 44.04 29.83C44.04 29.82 44.04 29.82 44.05 29.81C44.07 29.75 44.18 29.52 44.34 29.3C44.51 29.05 44.91 28.57 45.63 28.38C45.67 28.37 46.05 28.26 46.1 28.25C46.06 28.18 46.02 28.12 46 28.08C45.86 27.82 45.76 27.55 45.71 27.33C45.7 27.33 45.7 27.31 45.69 27.26C45.68 27.22 45.67 27.2 45.67 27.19C45.58 26.69 45.46 26.23 45.31 25.7C45.3 25.66 45.22 25.36 45.21 25.32C45.12 25 44.94 24.14 45.37 23.3C45.37 23.3 45.37 23.29 45.37 23.29C45.37 23.28 45.38 23.26 45.39 23.25C45.39 23.25 45.39 23.25 45.39 23.25C45.39 23.25 45.39 23.25 45.39 23.24C45.4 23.23 45.41 23.2 45.42 23.17C45.42 23.17 45.42 23.17 45.42 23.17C45.47 23.07 45.56 22.89 45.68 22.72C45.86 22.47 46.26 22 46.97 21.81C47.02 21.79 47.4 21.69 47.44 21.68C47.4 21.61 47.37 21.55 47.34 21.5C47.2 21.24 47.11 20.98 47.05 20.76C47.05 20.76 47.04 20.73 47.03 20.69C47.02 20.65 47.02 20.62 47.02 20.62ZM47.16 24.18C47.07 24.36 47.09 24.61 47.14 24.8C47.15 24.84 47.23 25.15 47.24 25.18C47.38 25.71 47.53 26.23 47.64 26.82C47.69 27.01 47.81 27.28 47.97 27.39C48 27.41 48.03 27.43 48.05 27.45C48.19 27.55 48.34 27.65 48.48 27.61C50.35 27.11 65.27 23.12 67.13 22.62C67.3 22.57 67.42 22.33 67.49 22.11C67.58 21.86 68.26 19.83 68.35 19.58C68.41 19.31 68.35 18.92 68.16 18.71C68.01 18.49 67.74 18.31 67.49 18.38C65.49 18.92 49.49 23.2 47.49 23.74C47.35 23.78 47.27 23.94 47.2 24.09C47.19 24.13 47.17 24.16 47.16 24.18ZM66.14 24.95C64.14 25.49 48.14 29.77 46.14 30.31C46 30.35 45.93 30.51 45.85 30.67C45.84 30.7 45.83 30.73 45.81 30.76C45.72 30.93 45.75 31.18 45.8 31.37C45.81 31.41 45.89 31.72 45.9 31.76C46.04 32.28 46.18 32.81 46.29 33.39C46.34 33.58 46.46 33.85 46.63 33.96C46.65 33.98 46.68 34 46.71 34.02C46.85 34.12 47 34.22 47.14 34.19C49 33.69 63.92 29.69 65.79 29.19C65.96 29.14 66.07 28.91 66.15 28.68C66.23 28.43 66.92 26.41 67 26.15C67.06 25.88 67 25.49 66.81 25.28C66.67 25.07 66.39 24.88 66.14 24.95Z" id="hjhvT0KNp"></path><path d="M10.17 11.81C12.17 12.34 28.17 16.63 30.17 17.17C30.31 17.2 30.38 17.37 30.46 17.52C30.47 17.55 30.48 17.58 30.5 17.61C30.59 17.79 30.56 18.04 30.51 18.23C30.5 18.27 30.42 18.57 30.41 18.61C30.27 19.14 30.13 19.66 30.02 20.24C29.97 20.44 29.85 20.71 29.68 20.82C29.66 20.84 29.63 20.86 29.6 20.88C29.46 20.98 29.31 21.08 29.17 21.04C27.31 20.54 12.39 16.54 10.52 16.04C10.35 16 10.24 15.76 10.16 15.54C10.08 15.28 9.39 13.26 9.31 13.01C9.25 12.74 9.31 12.34 9.5 12.14C9.64 11.92 9.92 11.74 10.17 11.81Z" id="cC9u8fXTx"></path><path d="M11.51 18.38C13.51 18.92 29.51 23.2 31.51 23.74C31.65 23.78 31.73 23.94 31.8 24.09C31.81 24.13 31.83 24.16 31.84 24.18C31.93 24.36 31.91 24.61 31.86 24.8C31.85 24.84 31.77 25.15 31.76 25.18C31.62 25.71 31.47 26.23 31.36 26.82C31.31 27.01 31.19 27.28 31.03 27.39C31 27.41 30.97 27.43 30.95 27.45C30.81 27.55 30.66 27.65 30.52 27.61C28.65 27.11 13.73 23.12 11.87 22.62C11.7 22.57 11.58 22.33 11.51 22.11C11.42 21.86 10.74 19.83 10.65 19.58C10.59 19.31 10.65 18.92 10.84 18.71C10.99 18.49 11.26 18.31 11.51 18.38Z" id="a1AJnmHNf"></path><path d="M12.19 25.28C12 25.49 11.94 25.88 12 26.15C12.08 26.41 12.77 28.43 12.85 28.68C12.93 28.91 13.04 29.14 13.21 29.19C15.08 29.69 30 33.69 31.86 34.19C32 34.22 32.15 34.12 32.29 34.02C32.32 34 32.35 33.98 32.37 33.96C32.54 33.85 32.66 33.58 32.71 33.39C32.82 32.81 32.96 32.28 33.1 31.76C33.11 31.72 33.19 31.41 33.2 31.37C33.25 31.18 33.28 30.93 33.19 30.76C33.17 30.73 33.16 30.7 33.15 30.67C33.07 30.51 33 30.35 32.86 30.31C31.52 29.95 24.86 28.17 12.86 24.95C12.51 25.03 12.28 25.14 12.19 25.28Z" id="bMRtp4ym"></path><path d="M31.98 20.62C32.08 20.12 32.2 19.66 32.34 19.13C32.35 19.09 32.43 18.79 32.44 18.75C32.53 18.42 32.71 17.57 32.29 16.72C32.29 16.72 32.29 16.72 32.29 16.72C32.28 16.71 32.28 16.7 32.27 16.68C31.18 17.19 30.58 17.47 30.46 17.52C30.47 17.55 30.48 17.58 30.5 17.61C30.59 17.79 30.56 18.04 30.51 18.23C30.5 18.27 30.42 18.57 30.41 18.61C30.27 19.14 30.13 19.66 30.02 20.24C29.97 20.44 29.85 20.71 29.68 20.82C29.66 20.84 29.63 20.86 29.6 20.88C29.46 20.98 29.31 21.08 29.17 21.04C27.31 20.54 12.39 16.54 10.52 16.04C10.35 16 10.24 15.76 10.16 15.54C10.08 15.28 9.39 13.26 9.31 13.01C9.25 12.74 9.31 12.34 9.5 12.14C9.64 11.92 9.92 11.74 10.17 11.81C12.17 12.34 28.17 16.63 30.17 17.17C30.31 17.2 30.38 17.37 30.46 17.52C30.64 17.44 32.09 16.77 32.27 16.68C32.27 16.68 32.27 16.67 32.26 16.67C32.24 16.61 32.13 16.37 31.98 16.15C31.8 15.9 31.4 15.43 30.69 15.23C28.69 14.7 12.69 10.41 10.69 9.88C9.93 9.67 9.27 9.88 8.84 10.11C8.46 10.31 8.16 10.59 7.93 10.9C7.57 11.33 7.41 11.82 7.34 12.16C7.27 12.56 7.26 13.01 7.36 13.45C7.36 13.46 7.37 13.49 7.38 13.55C7.91 15.12 8.21 16 8.26 16.17C8.26 16.17 8.27 16.17 8.27 16.18C8.33 16.36 8.44 16.65 8.62 16.94C8.72 17.08 8.9 17.34 9.19 17.57C8.89 17.98 8.75 18.41 8.69 18.73C8.61 19.13 8.6 19.58 8.7 20.03C8.7 20.03 8.71 20.07 8.73 20.12C9.26 21.7 9.55 22.57 9.61 22.74C9.61 22.74 9.61 22.75 9.61 22.75C9.67 22.93 9.78 23.22 9.97 23.51C10.06 23.65 10.24 23.91 10.54 24.14C10.24 24.55 10.1 24.99 10.03 25.31C9.96 25.7 9.95 26.15 10.05 26.6C10.05 26.6 10.06 26.64 10.07 26.7C10.6 28.27 10.9 29.14 10.95 29.32C10.95 29.32 10.96 29.32 10.96 29.32C11.02 29.51 11.13 29.79 11.31 30.08C11.47 30.33 11.89 30.9 12.69 31.12C14.56 31.62 29.48 35.62 31.35 36.12C32.06 36.31 32.65 36.1 32.92 35.97C33.17 35.85 33.38 35.7 33.43 35.66C33.44 35.66 33.44 35.66 33.44 35.66C33.45 35.65 33.47 35.64 33.47 35.63C33.48 35.63 33.48 35.63 33.48 35.63C33.97 35.3 34.23 34.87 34.35 34.65C34.49 34.39 34.58 34.13 34.64 33.91C34.64 33.9 34.65 33.88 34.66 33.84C34.67 33.79 34.67 33.77 34.67 33.76C34.77 33.26 34.89 32.81 35.03 32.27C35.04 32.24 35.12 31.93 35.13 31.89C35.22 31.57 35.4 30.72 34.98 29.87C34.98 29.87 34.98 29.87 34.98 29.86C34.97 29.86 34.96 29.83 34.96 29.83C34.96 29.82 34.96 29.82 34.95 29.81C34.93 29.75 34.82 29.52 34.67 29.3C34.49 29.05 34.09 28.57 33.37 28.38C33.33 28.37 32.95 28.26 32.9 28.25C32.94 28.18 32.98 28.12 33 28.08C33.14 27.82 33.24 27.55 33.3 27.33C33.3 27.33 33.3 27.31 33.31 27.26C33.32 27.22 33.33 27.2 33.33 27.19C33.42 26.69 33.55 26.23 33.69 25.7C33.7 25.66 33.78 25.36 33.79 25.32C33.88 25 34.06 24.14 33.64 23.3C33.64 23.3 33.63 23.29 33.63 23.29C33.63 23.28 33.62 23.26 33.61 23.25C33.61 23.25 33.61 23.25 33.61 23.25C33.61 23.25 33.61 23.25 33.61 23.24C33.6 23.23 33.59 23.2 33.58 23.17C33.58 23.17 33.58 23.17 33.58 23.17C33.53 23.07 33.44 22.89 33.32 22.72C33.14 22.47 32.74 22 32.03 21.81C31.98 21.79 31.6 21.69 31.56 21.68C31.6 21.61 31.63 21.55 31.66 21.5C31.8 21.24 31.89 20.98 31.95 20.76C31.95 20.76 31.96 20.73 31.97 20.69C31.98 20.65 31.98 20.62 31.98 20.62ZM31.84 24.18C31.93 24.36 31.91 24.61 31.86 24.8C31.85 24.84 31.77 25.15 31.76 25.18C31.62 25.71 31.47 26.23 31.36 26.82C31.31 27.01 31.19 27.28 31.03 27.39C31 27.41 30.97 27.43 30.95 27.45C30.81 27.55 30.66 27.65 30.52 27.61C28.65 27.11 13.73 23.12 11.87 22.62C11.7 22.57 11.58 22.33 11.51 22.11C11.42 21.86 10.74 19.83 10.65 19.58C10.59 19.31 10.65 18.92 10.84 18.71C10.99 18.49 11.26 18.31 11.51 18.38C13.51 18.92 29.51 23.2 31.51 23.74C31.65 23.78 31.73 23.94 31.8 24.09C31.81 24.13 31.83 24.16 31.84 24.18ZM12.86 24.95C14.86 25.49 30.86 29.77 32.86 30.31C33 30.35 33.07 30.51 33.15 30.67C33.16 30.7 33.17 30.73 33.19 30.76C33.28 30.93 33.25 31.18 33.2 31.37C33.19 31.41 33.11 31.72 33.1 31.76C32.96 32.28 32.82 32.81 32.71 33.39C32.66 33.58 32.54 33.85 32.37 33.96C32.35 33.98 32.32 34 32.29 34.02C32.15 34.12 32 34.22 31.86 34.19C30 33.69 15.08 29.69 13.21 29.19C13.04 29.14 12.93 28.91 12.85 28.68C12.77 28.43 12.08 26.41 12 26.15C11.94 25.88 12 25.49 12.19 25.28C12.33 25.07 12.61 24.88 12.86 24.95Z" id="e3yMF2S6Kx"></path><path d="M39.44 4.06C40.9 4.31 52.54 6.3 54 6.55C56.22 6.93 57.73 8.7 57.73 10.66C57.73 12.92 57.73 30.94 57.73 33.2C57.73 34.94 56.89 36.94 55 39.19C53.33 41.16 50.94 43.22 47.86 45.3C45.27 47.04 42.63 48.49 40.6 49.52C39.36 50.15 37.85 50.15 36.61 49.52C34.58 48.49 31.94 47.04 29.34 45.3C26.27 43.22 23.87 41.16 22.21 39.19C20.32 36.95 19.48 34.94 19.48 33.2C19.48 30.94 19.48 12.92 19.48 10.66C19.48 8.7 20.99 6.93 23.21 6.55C24.18 6.39 29.03 5.56 37.76 4.06C38.51 4 39.07 4 39.44 4.06Z" id="a2deAVkDSq"></path><path d="M17.95 33.36L13.97 36.91L14.91 41.92L10 39.55L5.09 41.92L6.03 36.91L2.05 33.36L7.54 32.62L10 28.07L12.46 32.62L17.95 33.36ZM8.2 27.07C8.56 26.41 9.25 25.99 10 25.99C10.75 25.99 11.44 26.41 11.8 27.07C11.93 27.32 12.59 28.52 13.76 30.7C16.44 31.06 17.92 31.26 18.22 31.3C19.02 31.41 19.68 31.98 19.91 32.76C20.15 33.53 19.91 34.38 19.31 34.92C19.1 35.1 18.07 36.02 16.21 37.68C16.64 39.99 16.88 41.27 16.93 41.53C17.08 42.3 16.78 43.08 16.17 43.56C15.56 44.04 14.73 44.13 14.03 43.79C13.76 43.66 12.42 43.01 10 41.85C7.58 43.01 6.24 43.66 5.97 43.79C5.27 44.13 4.44 44.04 3.83 43.56C3.22 43.08 2.92 42.3 3.07 41.53C3.12 41.27 3.36 39.99 3.79 37.68C1.93 36.02 0.9 35.1 0.69 34.92C0.09 34.38 -0.15 33.53 0.09 32.76C0.32 31.98 0.98 31.41 1.78 31.3C2.08 31.26 3.56 31.06 6.24 30.7C7.41 28.52 8.07 27.32 8.2 27.07Z" id="b1EBvoxQVd"></path><path d="M10 27.99L7.53 32.59L2 33.34L6 36.93L5.05 41.99L10 39.6L14.95 41.99L14 36.93L18 33.34L12.47 32.59L10 27.99Z" id="gaXgAb933"></path><path d="M39 4L54 6L58 9L20 9L24 6L39 4Z" id="a1bBF55s"></path><path d="M39.94 4.56C41.4 4.81 53.04 6.8 54.5 7.05C56.72 7.43 58.23 9.2 58.23 11.16C58.23 13.42 58.23 31.44 58.23 33.7C58.23 35.44 57.39 37.44 55.5 39.69C53.83 41.66 51.44 43.72 48.36 45.8C45.77 47.54 43.13 48.99 41.1 50.02C39.86 50.65 38.35 50.65 37.11 50.02C35.08 48.99 32.44 47.54 29.84 45.8C26.77 43.72 24.37 41.66 22.71 39.69C20.82 37.45 19.98 35.44 19.98 33.7C19.98 31.44 19.98 13.42 19.98 11.16C19.98 9.2 21.49 7.43 23.71 7.05C24.68 6.89 29.53 6.06 38.26 4.56C39.01 4.5 39.57 4.5 39.94 4.56Z" id="a1dVF2dWrS"></path><path d="M27.95 38.36L23.97 41.91L24.91 46.92L20 44.55L15.09 46.92L16.03 41.91L12.05 38.36L17.54 37.62L20 33.07L22.46 37.62L27.95 38.36ZM18.2 32.07C18.56 31.41 19.25 30.99 20 30.99C20.75 30.99 21.44 31.41 21.8 32.07C21.93 32.32 22.59 33.52 23.76 35.7C26.44 36.06 27.92 36.26 28.22 36.3C29.02 36.41 29.68 36.98 29.91 37.76C30.15 38.53 29.91 39.38 29.31 39.92C29.1 40.1 28.07 41.02 26.21 42.68C26.64 44.99 26.88 46.27 26.93 46.53C27.08 47.3 26.78 48.08 26.17 48.56C25.56 49.04 24.73 49.13 24.03 48.79C23.76 48.66 22.42 48.01 20 46.85C17.58 48.01 16.24 48.66 15.97 48.79C15.27 49.13 14.44 49.04 13.83 48.56C13.22 48.08 12.92 47.3 13.07 46.53C13.12 46.27 13.36 44.99 13.79 42.68C11.93 41.02 10.9 40.1 10.69 39.92C10.09 39.38 9.85 38.53 10.09 37.76C10.32 36.98 10.98 36.41 11.78 36.3C12.08 36.26 13.56 36.06 16.24 35.7C17.41 33.52 18.07 32.32 18.2 32.07Z" id="i1MEC8csK2"></path><path d="M20 32.99L17.53 37.59L12 38.34L16 41.93L15.05 46.99L20 44.6L24.95 46.99L24 41.93L28 38.34L22.47 37.59L20 32.99Z" id="a3IhVbAPbk"></path><path d="M60.05 33.36L64.03 36.91L63.09 41.92L68 39.55L72.91 41.92L71.97 36.91L75.95 33.36L70.46 32.62L68 28.07L65.54 32.62L60.05 33.36ZM69.8 27.07C69.44 26.41 68.75 25.99 68 25.99C67.25 25.99 66.56 26.41 66.2 27.07C66.07 27.32 65.41 28.52 64.24 30.7C61.56 31.06 60.08 31.26 59.78 31.3C58.98 31.41 58.32 31.98 58.09 32.76C57.85 33.53 58.09 34.38 58.69 34.92C58.9 35.1 59.93 36.02 61.79 37.68C61.36 39.99 61.12 41.27 61.07 41.53C60.92 42.3 61.22 43.08 61.83 43.56C62.44 44.04 63.27 44.13 63.97 43.79C64.24 43.66 65.58 43.01 68 41.85C70.42 43.01 71.76 43.66 72.03 43.79C72.73 44.13 73.56 44.04 74.17 43.56C74.78 43.08 75.08 42.3 74.93 41.53C74.88 41.27 74.64 39.99 74.21 37.68C76.07 36.02 77.1 35.1 77.31 34.92C77.91 34.38 78.15 33.53 77.91 32.76C77.68 31.98 77.02 31.41 76.22 31.3C75.92 31.26 74.44 31.06 71.76 30.7C70.59 28.52 69.93 27.32 69.8 27.07Z" id="asJeywR2"></path><path d="M68 27.99L70.47 32.59L76 33.34L72 36.93L72.95 41.99L68 39.6L63.05 41.99L64 36.93L60 33.34L65.53 32.59L68 27.99Z" id="b3P1GuUtpU"></path><path d="M50.05 38.36L54.03 41.91L53.09 46.92L58 44.55L62.91 46.92L61.97 41.91L65.95 38.36L60.46 37.62L58 33.07L55.54 37.62L50.05 38.36ZM59.8 32.07C59.44 31.41 58.75 30.99 58 30.99C57.25 30.99 56.56 31.41 56.2 32.07C56.07 32.32 55.41 33.52 54.24 35.7C51.56 36.06 50.08 36.26 49.78 36.3C48.98 36.41 48.32 36.98 48.09 37.76C47.85 38.53 48.09 39.38 48.69 39.92C48.9 40.1 49.93 41.02 51.79 42.68C51.36 44.99 51.12 46.27 51.07 46.53C50.92 47.3 51.22 48.08 51.83 48.56C52.44 49.04 53.27 49.13 53.97 48.79C54.24 48.66 55.58 48.01 58 46.85C60.42 48.01 61.76 48.66 62.03 48.79C62.73 49.13 63.56 49.04 64.17 48.56C64.78 48.08 65.08 47.3 64.93 46.53C64.88 46.27 64.64 44.99 64.21 42.68C66.07 41.02 67.1 40.1 67.31 39.92C67.91 39.38 68.15 38.53 67.91 37.76C67.68 36.98 67.02 36.41 66.22 36.3C65.92 36.26 64.44 36.06 61.76 35.7C60.59 33.52 59.93 32.32 59.8 32.07Z" id="l8BmmuEN"></path><path d="M58 32.99L60.47 37.59L66 38.34L62 41.93L62.95 46.99L58 44.6L53.05 46.99L54 41.93L50 38.34L55.53 37.59L58 32.99Z" id="b3OtQbhCQf"></path><path d="M52.74 41.95L45.79 48.58L47.43 57.92L38.84 53.5L30.24 57.92L31.89 48.58L24.94 41.95L34.54 40.56L38.84 32.06L43.14 40.56L52.74 41.95ZM37.08 31.1C37.43 30.42 38.1 29.99 38.84 29.99C39.58 29.99 40.25 30.42 40.6 31.1C40.85 31.6 42.12 34.12 44.42 38.66C49.57 39.4 52.44 39.81 53.01 39.9C53.77 40.01 54.4 40.57 54.63 41.33C54.86 42.1 54.64 42.93 54.08 43.47C53.67 43.86 51.62 45.82 47.94 49.33C48.81 54.26 49.29 57 49.39 57.55C49.52 58.32 49.23 59.1 48.63 59.57C48.03 60.05 47.23 60.12 46.56 59.78C46.04 59.51 43.47 58.19 38.84 55.81C34.21 58.19 31.64 59.51 31.12 59.78C30.45 60.12 29.65 60.05 29.05 59.57C28.45 59.1 28.16 58.32 28.29 57.55C28.39 57 28.87 54.26 29.74 49.33C26.06 45.82 24.01 43.86 23.6 43.47C23.03 42.93 22.82 42.1 23.05 41.33C23.28 40.57 23.91 40.01 24.67 39.9C25.24 39.81 28.11 39.4 33.26 38.66C35.55 34.12 36.83 31.6 37.08 31.1Z" id="b4bTQzq6F"></path><path d="M38.84 32.06L34.54 40.56L24.94 41.95L31.89 48.58L30.24 57.92L38.84 53.5L47.43 57.92L45.79 48.58L52.74 41.95L43.14 40.56L38.84 32.06Z" id="c2F8QXn6vW"></path><path d="M32.96 14.71C35.76 14.71 37.32 14.71 37.63 14.71C38.63 14.71 39.57 14.81 40.47 15.02C41.38 15.22 42.17 15.56 42.86 16.07C43.56 16.56 44.11 17.21 44.52 18.03C44.94 18.85 45.14 19.89 45.14 21.13C45.14 22.27 44.94 23.26 44.54 24.09C44.15 24.92 43.63 25.61 42.97 26.15C42.3 26.67 41.54 27.07 40.68 27.32C39.82 27.58 38.92 27.71 37.99 27.71C37.65 27.71 35.98 27.71 32.96 27.71L32.96 14.71ZM37.01 23.96C37.48 23.96 37.74 23.96 37.79 23.96C38.79 23.96 39.55 23.74 40.08 23.3C40.61 22.85 40.88 22.11 40.88 21.1C40.88 20.25 40.61 19.6 40.08 19.13C39.55 18.66 38.84 18.42 37.95 18.42C37.89 18.42 37.58 18.42 37.01 18.42L37.01 23.96Z" id="a4zmq4xb6d"></path></defs><g><g><g><use xlink:href="#bX6FhK5mU" opacity="1" fill="#fff71a" fill-opacity="1"></use><g><use xlink:href="#bX6FhK5mU" opacity="1" fill-opacity="0" stroke="#000000" stroke-width="1" stroke-opacity="0"></use></g></g><g><use xlink:href="#ejUs2mNaq" opacity="1" fill="#fff71a" fill-opacity="1"></use><g><use xlink:href="#ejUs2mNaq" opacity="1" fill-opacity="0" stroke="#000000" stroke-width="1" stroke-opacity="0"></use></g></g><g><use xlink:href="#adnNw3RIC" opacity="1" fill="#fff71a" fill-opacity="1"></use><g><use xlink:href="#adnNw3RIC" opacity="1" fill-opacity="0" stroke="#000000" stroke-width="1" stroke-opacity="0"></use></g></g><g><use xlink:href="#hjhvT0KNp" opacity="1" fill="#232323" fill-opacity="1"></use><g><use xlink:href="#hjhvT0KNp" opacity="1" fill-opacity="0" stroke="#000000" stroke-width="1" stroke-opacity="0"></use></g></g><g><use xlink:href="#cC9u8fXTx" opacity="1" fill="#fff71a" fill-opacity="1"></use><g><use xlink:href="#cC9u8fXTx" opacity="1" fill-opacity="0" stroke="#000000" stroke-width="1" stroke-opacity="0"></use></g></g><g><use xlink:href="#a1AJnmHNf" opacity="1" fill="#fff71a" fill-opacity="1"></use><g><use xlink:href="#a1AJnmHNf" opacity="1" fill-opacity="0" stroke="#000000" stroke-width="1" stroke-opacity="0"></use></g></g><g><use xlink:href="#bMRtp4ym" opacity="1" fill="#fff71a" fill-opacity="1"></use><g><use xlink:href="#bMRtp4ym" opacity="1" fill-opacity="0" stroke="#000000" stroke-width="1" stroke-opacity="0"></use></g></g><g><use xlink:href="#e3yMF2S6Kx" opacity="1" fill="#232323" fill-opacity="1"></use><g><use xlink:href="#e3yMF2S6Kx" opacity="1" fill-opacity="0" stroke="#000000" stroke-width="1" stroke-opacity="0"></use></g></g><g><use xlink:href="#a2deAVkDSq" opacity="1" fill="#fff71a" fill-opacity="1"></use></g><g><use xlink:href="#b1EBvoxQVd" opacity="1" fill="#232323" fill-opacity="1"></use><g><use xlink:href="#b1EBvoxQVd" opacity="1" fill-opacity="0" stroke="#000000" stroke-width="1" stroke-opacity="0"></use></g></g><g><use xlink:href="#gaXgAb933" opacity="1" fill="#fff600" fill-opacity="1"></use><g><use xlink:href="#gaXgAb933" opacity="1" fill-opacity="0" stroke="#000000" stroke-width="1" stroke-opacity="0"></use></g></g><g><use xlink:href="#a1bBF55s" opacity="1" fill="#aaa514" fill-opacity="1"></use><g><use xlink:href="#a1bBF55s" opacity="1" fill-opacity="0" stroke="#000000" stroke-width="1" stroke-opacity="0"></use></g></g><g><g><use xlink:href="#a1dVF2dWrS" opacity="1" fill-opacity="0" stroke="#232323" stroke-width="2" stroke-opacity="1"></use></g></g><g><use xlink:href="#i1MEC8csK2" opacity="1" fill="#232323" fill-opacity="1"></use><g><use xlink:href="#i1MEC8csK2" opacity="1" fill-opacity="0" stroke="#000000" stroke-width="1" stroke-opacity="0"></use></g></g><g><use xlink:href="#a3IhVbAPbk" opacity="1" fill="#fff600" fill-opacity="1"></use><g><use xlink:href="#a3IhVbAPbk" opacity="1" fill-opacity="0" stroke="#000000" stroke-width="1" stroke-opacity="0"></use></g></g><g><use xlink:href="#asJeywR2" opacity="1" fill="#232323" fill-opacity="1"></use><g><use xlink:href="#asJeywR2" opacity="1" fill-opacity="0" stroke="#000000" stroke-width="1" stroke-opacity="0"></use></g></g><g><use xlink:href="#b3P1GuUtpU" opacity="1" fill="#fff600" fill-opacity="1"></use><g><use xlink:href="#b3P1GuUtpU" opacity="1" fill-opacity="0" stroke="#000000" stroke-width="1" stroke-opacity="0"></use></g></g><g><use xlink:href="#l8BmmuEN" opacity="1" fill="#232323" fill-opacity="1"></use><g><use xlink:href="#l8BmmuEN" opacity="1" fill-opacity="0" stroke="#000000" stroke-width="1" stroke-opacity="0"></use></g></g><g><use xlink:href="#b3OtQbhCQf" opacity="1" fill="#fff600" fill-opacity="1"></use><g><use xlink:href="#b3OtQbhCQf" opacity="1" fill-opacity="0" stroke="#000000" stroke-width="1" stroke-opacity="0"></use></g></g><g><use xlink:href="#b4bTQzq6F" opacity="1" fill="#232323" fill-opacity="1"></use><g><use xlink:href="#b4bTQzq6F" opacity="1" fill-opacity="0" stroke="#000000" stroke-width="1" stroke-opacity="0"></use></g></g><g><use xlink:href="#c2F8QXn6vW" opacity="1" fill="#ffffff" fill-opacity="1"></use><g><use xlink:href="#c2F8QXn6vW" opacity="1" fill-opacity="0" stroke="#000000" stroke-width="1" stroke-opacity="0"></use></g></g><g><use xlink:href="#a4zmq4xb6d" opacity="1" fill="#232323" fill-opacity="1"></use><g><use xlink:href="#a4zmq4xb6d" opacity="1" fill-opacity="0" stroke="#000000" stroke-width="1" stroke-opacity="0"></use></g></g></g></g></svg>