<svg id="Слой_1" data-name="Слой 1" xmlns="http://www.w3.org/2000/svg" viewBox="0 0 78 64" width="78" height="64">
  <path d="M69.5,16.1c-.1-.2-.4-.4-.6-.3l-20,5.4c-.2,0-.2.2-.3.3s0,.1-.1.1v1a8.5,8.5,0,0,1,.4,1.7c.1.1.2.4.4.5h0c.2.1.3.2.5.1l18.6-4.9a.9.9,0,0,0,.4-.6l.8-2.5A1,1,0,0,0,69.5,16.1Zm-1.3,6.6a.6.6,0,0,0-.7-.3l-20,5.3-.3.4h0a.6.6,0,0,0,0,.6v.4c.1.5.3,1,.4,1.6a.7.7,0,0,0,.3.6.1.1,0,0,1,.1.1c.1.1.3.2.4.1l18.7-5c.1,0,.3-.3.3-.5l.9-2.5A1,1,0,0,0,68.2,22.7Zm-2,6.3c.2-.1.5.1.7.3a1.3,1.3,0,0,1,.1.9l-.8,2.5c-.1.2-.2.5-.4.5l-18.6,5a.5.5,0,0,1-.4-.2h-.1c-.2-.1-.3-.4-.4-.6a7.5,7.5,0,0,0-.4-1.6v-.4c0-.2,0-.5.1-.6h0c.1-.2.1-.3.3-.4Z" transform="translate(0 0)" fill="#fff71a" fill-rule="evenodd"/>
  <path d="M47.1,24.7h0c-.1-.5-.3-.9-.4-1.5v-.3a2.7,2.7,0,0,1,.2-2.1h0l1.8.8c0,.1,0,.1-.1.1v1a8.5,8.5,0,0,1,.4,1.7c.1.1.2.4.4.5h0c.2.1.3.2.5.1l18.6-4.9a.9.9,0,0,0,.4-.6l.8-2.5a1,1,0,0,0-.2-.9c-.1-.2-.4-.4-.6-.3l-20,5.4c-.2,0-.2.2-.3.3l-1.8-.8h0a.9.9,0,0,1,.3-.5,1.8,1.8,0,0,1,1.3-1l20-5.3a2.6,2.6,0,0,1,1.8.2,2.4,2.4,0,0,1,.9.8,2.5,2.5,0,0,1,.6,1.3,2.8,2.8,0,0,1,0,1.3h0l-.9,2.6h0a2.5,2.5,0,0,1-.4.7l-.5.7a3.4,3.4,0,0,1,.5,1.1,5.7,5.7,0,0,1-.1,1.3h0l-.9,2.7h0a1.7,1.7,0,0,1-.3.7,1.7,1.7,0,0,1-.6.6,5.1,5.1,0,0,1,.5,1.2,2.9,2.9,0,0,1,0,1.3h0l-.9,2.6h0a5.9,5.9,0,0,1-.4.8,2.1,2.1,0,0,1-1.4,1l-18.6,5a2.6,2.6,0,0,1-1.6-.1l-.5-.3h0a2.5,2.5,0,0,1-.9-.9l-.3-.8h0a8.3,8.3,0,0,0-.4-1.5v-.4a2.5,2.5,0,0,1,.2-2h0a1.5,1.5,0,0,1,.3-.5,2.9,2.9,0,0,1,1.3-.9h.4c0-.1,0-.2-.1-.2l-.3-.8h0l-.3-1.5v-.4a2.8,2.8,0,0,1,.1-2h0a.1.1,0,0,1,.1-.1h0l.2-.5a2.9,2.9,0,0,1,1.3-.9h.5c-.1-.1-.1-.1-.1-.2s-.2-.5-.3-.7Zm.1,3.4h0a.6.6,0,0,0,0,.6v.4c.1.5.3,1,.4,1.6a.7.7,0,0,0,.3.6.1.1,0,0,1,.1.1c.1.1.3.2.4.1l18.7-5c.1,0,.3-.3.3-.5l.9-2.5a1,1,0,0,0-.2-.9.6.6,0,0,0-.7-.3l-20,5.3Zm19.7,1.2c-.2-.2-.5-.4-.7-.3l-20,5.3c-.2.1-.2.2-.3.4h0c-.1.1-.1.4-.1.6v.4a7.5,7.5,0,0,1,.4,1.6c.1.2.2.5.4.6h.1a.5.5,0,0,0,.4.2l18.6-5c.2,0,.3-.3.4-.5l.8-2.5A1.3,1.3,0,0,0,66.9,29.3Z" transform="translate(0 0)" fill="#232323" fill-rule="evenodd"/>
  <path d="M9.5,16.1c.2-.2.5-.4.7-.3l20,5.4c.2,0,.2.2.3.3h0a1.3,1.3,0,0,1,.1.6v.4a8.5,8.5,0,0,0-.4,1.7c-.1.1-.2.4-.4.5h-.1c-.1.1-.2.2-.4.1L10.6,20.1a.9.9,0,0,1-.4-.6L9.4,17A1,1,0,0,1,9.5,16.1Zm1.4,6.6a.6.6,0,0,1,.7-.3l20,5.3a.5.5,0,0,1,.2.4h.1a.6.6,0,0,1,0,.6v.4c-.1.5-.3,1-.4,1.6a1.1,1.1,0,0,1-.3.6c-.1,0-.1,0-.1.1s-.3.2-.4.1l-18.7-5c-.2,0-.3-.3-.4-.5l-.8-2.5A1,1,0,0,1,10.9,22.7Zm2,6.3c-.2-.1-.5.1-.7.3a1.3,1.3,0,0,0-.2.9l.9,2.5c.1.2.2.5.4.5l18.6,5,.4-.2h.1c.2-.1.3-.4.4-.6l.3-1.6v-.4a.6.6,0,0,0,0-.6h0l-.3-.4Z" transform="translate(0 0)" fill="#fff71a" fill-rule="evenodd"/>
  <path d="M32,24.7h0a11.3,11.3,0,0,1,.4-1.5v-.3a2.7,2.7,0,0,0-.2-2.1h0l-1.8.8h0a1.3,1.3,0,0,1,.1.6v.4a8.5,8.5,0,0,0-.4,1.7c-.1.1-.2.4-.4.5h-.1c-.1.1-.2.2-.4.1L10.6,20.1a.9.9,0,0,1-.4-.6L9.4,17a1,1,0,0,1,.1-.9c.2-.2.5-.4.7-.3l20,5.4c.2,0,.2.2.3.3l1.8-.8h0a.9.9,0,0,0-.3-.5,2.4,2.4,0,0,0-1.3-1l-20-5.3a2.6,2.6,0,0,0-1.8.2,2.4,2.4,0,0,0-.9.8,2.5,2.5,0,0,0-.6,1.3,2.8,2.8,0,0,0,0,1.3h0l.9,2.6h0a2.5,2.5,0,0,0,.4.7,2.3,2.3,0,0,0,.5.7,3.4,3.4,0,0,0-.5,1.1,5.7,5.7,0,0,0,0,1.3h.1l.9,2.7h0a1.7,1.7,0,0,0,.3.7l.6.6a2.8,2.8,0,0,0-.5,1.2,2.9,2.9,0,0,0,0,1.3h0l.9,2.6h0a5.9,5.9,0,0,0,.4.8,2.1,2.1,0,0,0,1.3,1l18.7,5A2.6,2.6,0,0,0,33,40l.5-.3h0a2.5,2.5,0,0,0,.9-.9l.3-.8h0a8.3,8.3,0,0,1,.4-1.5v-.4a3,3,0,0,0-.2-2h0a1.5,1.5,0,0,0-.3-.5,2.9,2.9,0,0,0-1.3-.9h-.5a.3.3,0,0,0,.1-.2,1.3,1.3,0,0,0,.3-.8h.1l.3-1.5v-.4a2.8,2.8,0,0,0-.1-2h-.1l-.2-.5a2.9,2.9,0,0,0-1.3-.9h-.5c0-.1.1-.1.1-.2l.3-.7Zm-.2,3.4h.1a.6.6,0,0,1,0,.6v.4c-.1.5-.3,1-.4,1.6a1.1,1.1,0,0,1-.3.6c-.1,0-.1,0-.1.1s-.3.2-.4.1l-18.7-5c-.2,0-.3-.3-.4-.5l-.8-2.5a1,1,0,0,1,.2-.9.6.6,0,0,1,.7-.3l20,5.3A.5.5,0,0,1,31.8,28.1ZM12.2,29.3c.2-.2.5-.4.7-.3l20,5.3.3.4h0a.6.6,0,0,1,0,.6v.4l-.3,1.6c-.1.2-.2.5-.4.6h-.1l-.4.2-18.6-5c-.2,0-.3-.3-.4-.5L12,30.2A1.3,1.3,0,0,1,12.2,29.3Z" transform="translate(0 0)" fill="#232323" fill-rule="evenodd"/>
  <path d="M40.1.1h-2L23.6,2.6A5.2,5.2,0,0,0,19,7.7V30.2q0,3.1,3,6.6a33.8,33.8,0,0,0,7.3,6.3,62.2,62.2,0,0,0,7.4,4.3,5.3,5.3,0,0,0,4.9,0,61.8,61.8,0,0,0,7.3-4.3,34.6,34.6,0,0,0,7.4-6.3q3-3.4,3-6.6V7.7a5.3,5.3,0,0,0-4.6-5.1Z" transform="translate(0 0)" fill="#fff600"/>
  <path d="M40.1.1h-2L23.6,2.5A5.3,5.3,0,0,0,19,7.6v12q0,3.1,3,6.6a36.7,36.7,0,0,0,7.3,6.2,76.8,76.8,0,0,0,7.4,4.2,5.3,5.3,0,0,0,4.9,0,76.5,76.5,0,0,0,7.3-4.2,37.6,37.6,0,0,0,7.4-6.2q3-3.4,3-6.6V7.6a5.4,5.4,0,0,0-4.6-5.1Z" transform="translate(0 0)" fill="#fff600"/>
  <path d="M58.4,5.8H20.7l2.3-2L39.3.8l15.6,3Z" transform="translate(0 0)" fill="#aaa515"/>
  <path d="M38.3,1.1a4.8,4.8,0,0,1,1.7,0L54.5,3.6a4.3,4.3,0,0,1,3.8,4.1V30.2c0,1.7-.9,3.8-2.8,6a32.3,32.3,0,0,1-7.1,6.1,53,53,0,0,1-7.3,4.2,4.1,4.1,0,0,1-4,0,59.2,59.2,0,0,1-7.2-4.2,35.7,35.7,0,0,1-7.2-6.1,9.6,9.6,0,0,1-2.7-6V7.7a4.2,4.2,0,0,1,3.7-4.1Z" transform="translate(0 0)" fill="none" stroke="#232323" stroke-width="2"/>
  <path d="M31.5,43.7a3.4,3.4,0,0,0,.6,1.2,22.1,22.1,0,0,0-4.1.9l-1.1.5a.5.5,0,0,0-.3.5c0,.2.1.3.3.4a11,11,0,0,0,4.5.5,6.9,6.9,0,0,0,4-1.7c.1-.1.1-.2.1-.4a4.4,4.4,0,0,0-1-2.6,9.5,9.5,0,0,0-2-2c-.1,0-.3-.1-.4,0s-.3.1-.3.2A3.5,3.5,0,0,0,31.5,43.7Z" transform="translate(0 0)" fill="#fff600" stroke="#232323" stroke-linecap="round" stroke-linejoin="round"/>
  <path d="M28.6,43.5a14.9,14.9,0,0,0-5.1.6c-.2.1-.4.2-.4.4a.5.5,0,0,0,.3.5,8.4,8.4,0,0,0,3.9,1.1,7.8,7.8,0,0,0,4.1-1c.1-.1.2-.2.2-.3a4.2,4.2,0,0,0-.1-2.7A5.7,5.7,0,0,0,30,39.8h-.4l-.3.2a3.7,3.7,0,0,0-.9,2.5A3.6,3.6,0,0,0,28.6,43.5Z" transform="translate(0 0)" fill="#fff600" stroke="#232323" stroke-linecap="round" stroke-linejoin="round"/>
  <path d="M28,43.6l.2-.2a5.1,5.1,0,0,0,.6-2.7,6.7,6.7,0,0,0-.8-2.5.5.5,0,0,0-.4-.2h-.4a4.4,4.4,0,0,0-1.3,2.4,2.4,2.4,0,0,0,0,1.2,7.6,7.6,0,0,0-2.1-.3l-2.9.2c-.2,0-.3.2-.4.3a.7.7,0,0,0,.2.6A7.1,7.1,0,0,0,24.1,44,7.4,7.4,0,0,0,28,43.6Z" transform="translate(0 0)" fill="#fff600" stroke="#232323" stroke-linecap="round" stroke-linejoin="round"/>
  <path d="M19.2,38.7a.5.5,0,0,0-.4.3.7.7,0,0,0,.1.5,6,6,0,0,0,2.7,1.9,6.3,6.3,0,0,0,3.6.2c.1-.1.2-.1.2-.2a4.1,4.1,0,0,0,1.1-2.5,4,4,0,0,0-.4-2.4.3.3,0,0,0-.3-.3c-.1-.1-.3,0-.4.1a6.1,6.1,0,0,0-1.7,1.9,4.3,4.3,0,0,0-.2,1.1A10,10,0,0,0,19.2,38.7Z" transform="translate(0 0)" fill="#fff600" stroke="#232323" stroke-linecap="round" stroke-linejoin="round"/>
  <path d="M23,39.1h.2a5.5,5.5,0,0,0,1.7-2.3,4.4,4.4,0,0,0,.3-2.5c-.1-.1-.2-.3-.3-.3a.5.5,0,0,0-.5,0,4.8,4.8,0,0,0-2.4,3,9.3,9.3,0,0,0-4.1-1.2l-.4.2a.7.7,0,0,0-.1.5,4.3,4.3,0,0,0,2.4,2.2A5.2,5.2,0,0,0,23,39.1Z" transform="translate(0 0)" fill="#fff600" stroke="#232323" stroke-linecap="round" stroke-linejoin="round"/>
  <path d="M21.6,36.4h.2a5.1,5.1,0,0,0,1.8-1.8,3.5,3.5,0,0,0,.7-2.8c0-.2-.1-.3-.3-.4a.3.3,0,0,0-.4,0A5.6,5.6,0,0,0,21,34.1a6.8,6.8,0,0,0-3.7-1.3l-.4.2a.7.7,0,0,0-.1.5,4,4,0,0,0,1.8,2.1A5,5,0,0,0,21.6,36.4Z" transform="translate(0 0)" fill="#fff600" stroke="#232323" stroke-linecap="round" stroke-linejoin="round"/>
  <path d="M20.6,33.5h.3a6.3,6.3,0,0,0,2-2,3.3,3.3,0,0,0,.5-2.5c0-.2-.1-.3-.3-.4h-.5l-1.4,1.1a3.1,3.1,0,0,0-.9,1.4.1.1,0,0,0-.1.1,5.8,5.8,0,0,0-3.4-1.2c-.2,0-.4,0-.5.2a.6.6,0,0,0-.1.4,4.1,4.1,0,0,0,1.7,2A5,5,0,0,0,20.6,33.5Z" transform="translate(0 0)" fill="#fff600" stroke="#232323" stroke-linecap="round" stroke-linejoin="round"/>
  <path d="M16.2,27.3l-.4.2a.7.7,0,0,0-.1.5,3.5,3.5,0,0,0,1.6,1.8,4.5,4.5,0,0,0,2.6.8h.3a5.7,5.7,0,0,0,1.9-1.9,3.4,3.4,0,0,0,.4-2.4.3.3,0,0,0-.3-.3.3.3,0,0,0-.4,0,5.6,5.6,0,0,0-2.3,2.5A6.9,6.9,0,0,0,16.2,27.3Z" transform="translate(0 0)" fill="#fff600" stroke="#232323" stroke-linecap="round" stroke-linejoin="round"/>
  <path d="M38.4,42.1H38a.8.8,0,0,0-.2.5,4.7,4.7,0,0,0,.9,2.1,5.8,5.8,0,0,0,1.4,1.3,8.7,8.7,0,0,0-2.4,1,8.8,8.8,0,0,0-2.3,1.7c-.2.1-.2.3-.1.5a.5.5,0,0,0,.5.3A17,17,0,0,0,40,49a8.7,8.7,0,0,0,3.9-2.1.6.6,0,0,0,.1-.4,3.7,3.7,0,0,0-2.1-2.9A10.9,10.9,0,0,0,38.4,42.1Z" transform="translate(0 0)" fill="#fff600" stroke="#232323" stroke-linecap="round" stroke-linejoin="round"/>
  <path d="M30.8,47.9c-.2.1-.2.3-.2.5a.8.8,0,0,0,.4.4c3.4.5,6.8-.6,8.5-2.4.1-.1.1-.2.1-.4a4.1,4.1,0,0,0-1.8-2.7,12.5,12.5,0,0,0-2.7-1.5h-.4c-.1.1-.2.2-.2.3a3.4,3.4,0,0,0,.4,2.8l.9.9-2.6.8A13,13,0,0,0,30.8,47.9Z" transform="translate(0 0)" fill="#fff600" stroke="#232323" stroke-linecap="round" stroke-linejoin="round"/>
  <path d="M18.7,23.9a.5.5,0,0,0-.6.2,3.1,3.1,0,0,0-.7,2.4,2.4,2.4,0,0,0,.6,1.1,3.1,3.1,0,0,0,1.3.6c.2.1.3,0,.4-.1a2.1,2.1,0,0,0,.8-1.1,1.9,1.9,0,0,0,0-1.3A3.9,3.9,0,0,0,18.7,23.9Z" transform="translate(0 0)" fill="#fff600" stroke="#232323" stroke-linecap="round" stroke-linejoin="round"/>
  <path d="M46.5,43.7a3.4,3.4,0,0,1-.6,1.2,22.1,22.1,0,0,1,4.1.9l1.1.5a.5.5,0,0,1,.3.5c0,.2-.1.3-.3.4a11,11,0,0,1-4.5.5,6.9,6.9,0,0,1-4-1.7c-.1-.1-.1-.2-.1-.4a4.4,4.4,0,0,1,1-2.6,9.5,9.5,0,0,1,2-2c.1,0,.3-.1.4,0s.3.1.3.2A3.5,3.5,0,0,1,46.5,43.7Z" transform="translate(0 0)" fill="#fff600" stroke="#232323" stroke-linecap="round" stroke-linejoin="round"/>
  <path d="M49.4,43.5a14.9,14.9,0,0,1,5.1.6.8.8,0,0,1,.4.4.5.5,0,0,1-.3.5,8.4,8.4,0,0,1-3.9,1.1,7.8,7.8,0,0,1-4.1-1c-.1-.1-.2-.2-.2-.3a4.2,4.2,0,0,1,.1-2.7A5.7,5.7,0,0,1,48,39.8h.4l.3.2a3.7,3.7,0,0,1,.9,2.5A3.6,3.6,0,0,1,49.4,43.5Z" transform="translate(0 0)" fill="#fff600" stroke="#232323" stroke-linecap="round" stroke-linejoin="round"/>
  <path d="M50,43.6l-.2-.2a5.1,5.1,0,0,1-.6-2.7,6.7,6.7,0,0,1,.8-2.5.5.5,0,0,1,.4-.2h.4a4.4,4.4,0,0,1,1.3,2.4,2.4,2.4,0,0,1,0,1.2,7.6,7.6,0,0,1,2.1-.3l2.9.2c.2,0,.3.2.4.3a.7.7,0,0,1-.2.6A7.1,7.1,0,0,1,53.9,44,7.4,7.4,0,0,1,50,43.6Z" transform="translate(0 0)" fill="#fff600" stroke="#232323" stroke-linecap="round" stroke-linejoin="round"/>
  <path d="M58.8,38.7a.5.5,0,0,1,.4.3.7.7,0,0,1-.1.5,6,6,0,0,1-2.7,1.9,6.3,6.3,0,0,1-3.6.2c-.1-.1-.2-.1-.2-.2a4.1,4.1,0,0,1-1.1-2.5,4,4,0,0,1,.4-2.4.3.3,0,0,1,.3-.3c.1-.1.3,0,.4.1a6.1,6.1,0,0,1,1.7,1.9,4.3,4.3,0,0,1,.2,1.1A10,10,0,0,1,58.8,38.7Z" transform="translate(0 0)" fill="#fff600" stroke="#232323" stroke-linecap="round" stroke-linejoin="round"/>
  <path d="M55,39.1h-.2a5.5,5.5,0,0,1-1.7-2.3,4.4,4.4,0,0,1-.3-2.5c.1-.1.2-.3.3-.3a.5.5,0,0,1,.5,0,4.8,4.8,0,0,1,2.4,3,9.3,9.3,0,0,1,4.1-1.2l.4.2a.7.7,0,0,1,.1.5,4.3,4.3,0,0,1-2.4,2.2A5.2,5.2,0,0,1,55,39.1Z" transform="translate(0 0)" fill="#fff600" stroke="#232323" stroke-linecap="round" stroke-linejoin="round"/>
  <path d="M56.4,36.4h-.2a5.1,5.1,0,0,1-1.8-1.8,3.5,3.5,0,0,1-.7-2.8c0-.2.1-.3.3-.4a.3.3,0,0,1,.4,0A5.6,5.6,0,0,1,57,34.1a6.8,6.8,0,0,1,3.7-1.3l.4.2a.7.7,0,0,1,.1.5,4,4,0,0,1-1.8,2.1A5,5,0,0,1,56.4,36.4Z" transform="translate(0 0)" fill="#fff600" stroke="#232323" stroke-linecap="round" stroke-linejoin="round"/>
  <path d="M57.4,33.5h-.3a6.3,6.3,0,0,1-2-2,3.3,3.3,0,0,1-.5-2.5c0-.2.1-.3.3-.4h.5l1.4,1.1a3.1,3.1,0,0,1,.9,1.4.1.1,0,0,1,.1.1,5.8,5.8,0,0,1,3.4-1.2c.2,0,.4,0,.5.2a.6.6,0,0,1,.1.4,4.1,4.1,0,0,1-1.7,2A5,5,0,0,1,57.4,33.5Z" transform="translate(0 0)" fill="#fff600" stroke="#232323" stroke-linecap="round" stroke-linejoin="round"/>
  <path d="M61.8,27.3l.4.2a.7.7,0,0,1,.1.5,3.5,3.5,0,0,1-1.6,1.8,4.5,4.5,0,0,1-2.6.8h-.3a5.7,5.7,0,0,1-1.9-1.9,3.4,3.4,0,0,1-.4-2.4.3.3,0,0,1,.3-.3.3.3,0,0,1,.4,0,5.6,5.6,0,0,1,2.3,2.5A6.9,6.9,0,0,1,61.8,27.3Z" transform="translate(0 0)" fill="#fff600" stroke="#232323" stroke-linecap="round" stroke-linejoin="round"/>
  <path d="M39.6,42.1H40a.8.8,0,0,1,.2.5,4.7,4.7,0,0,1-.9,2.1,5.8,5.8,0,0,1-1.4,1.3,8.7,8.7,0,0,1,2.4,1,8.8,8.8,0,0,1,2.3,1.7c.2.1.2.3.1.5a.5.5,0,0,1-.5.3A17,17,0,0,1,38,49a8.7,8.7,0,0,1-3.9-2.1.6.6,0,0,1-.1-.4,3.7,3.7,0,0,1,2.1-2.9A10.9,10.9,0,0,1,39.6,42.1Z" transform="translate(0 0)" fill="#fff600" stroke="#232323" stroke-linecap="round" stroke-linejoin="round"/>
  <path d="M47.2,47.9c.2.1.2.3.2.5a.8.8,0,0,1-.4.4c-3.4.5-6.8-.6-8.5-2.4-.1-.1-.1-.2-.1-.4a4.1,4.1,0,0,1,1.8-2.7,12.5,12.5,0,0,1,2.7-1.5h.4c.1.1.2.2.2.3a3.4,3.4,0,0,1-.4,2.8l-.9.9,2.6.8A13,13,0,0,1,47.2,47.9Z" transform="translate(0 0)" fill="#fff600" stroke="#232323" stroke-linecap="round" stroke-linejoin="round"/>
  <path d="M59.3,23.9a.5.5,0,0,1,.6.2,3.1,3.1,0,0,1,.7,2.4,2.4,2.4,0,0,1-.6,1.1,3.1,3.1,0,0,1-1.3.6c-.2.1-.3,0-.4-.1a2.1,2.1,0,0,1-.8-1.1,1.9,1.9,0,0,1,0-1.3A3.9,3.9,0,0,1,59.3,23.9Z" transform="translate(0 0)" fill="#fff600" stroke="#232323" stroke-linecap="round" stroke-linejoin="round"/>
  <path d="M12.5,36.6,10,32,7.6,36.6,2,37.4l4,3.5L5.1,46,10,43.6,15,46l-1-5.1,4-3.5Z" transform="translate(0 0)" fill="#fff600"/>
  <path d="M12.5,36.6l5.5.8-4,3.5,1,5-5-2.3L5.1,45.9l1-5-4-3.5,5.5-.8L10,32.1ZM6.3,34.7l1.9-3.6A2.1,2.1,0,0,1,10,30a1.9,1.9,0,0,1,1.8,1.1l2,3.6,4.5.6A2.2,2.2,0,0,1,20,36.8a2,2,0,0,1-.7,2.1l-3,2.8.7,3.8a2.4,2.4,0,0,1-.8,2.1,2.2,2.2,0,0,1-2.1.2L10,45.9,6,47.8a2.2,2.2,0,0,1-2.1-.2,2.4,2.4,0,0,1-.8-2.1l.7-3.8L.7,38.9a2.1,2.1,0,0,1-.6-2.1,2.2,2.2,0,0,1,1.7-1.5Z" transform="translate(0 0)" fill="#232323" fill-rule="evenodd"/>
  <path d="M22.5,41.6,20,37l-2.4,4.6-5.6.8,4,3.5L15.1,51,20,48.6,25,51l-1-5.1,4-3.5Z" transform="translate(0 0)" fill="#fff600"/>
  <path d="M22.5,41.6l5.5.8-4,3.5,1,5-5-2.3-4.9,2.3,1-5-4-3.5,5.5-.8L20,37.1Zm-6.2-1.9,1.9-3.6A2.1,2.1,0,0,1,20,35a1.9,1.9,0,0,1,1.8,1.1l2,3.6,4.5.6A2.2,2.2,0,0,1,30,41.8a2,2,0,0,1-.7,2.1l-3,2.8.7,3.8a2.4,2.4,0,0,1-.8,2.1,2.2,2.2,0,0,1-2.1.2L20,50.9l-4,1.9a2.2,2.2,0,0,1-2.1-.2,2.4,2.4,0,0,1-.8-2.1l.7-3.8-3.1-2.8a2.1,2.1,0,0,1-.6-2.1,2.2,2.2,0,0,1,1.7-1.5Z" transform="translate(0 0)" fill="#232323" fill-rule="evenodd"/>
  <path d="M32.5,46.6,30,42l-2.4,4.6-5.6.8,4,3.5L25.1,56,30,53.6,35,56l-1-5.1,4-3.5Z" transform="translate(0 0)" fill="#fff600"/>
  <path d="M32.5,46.6l5.5.8-4,3.5,1,5-5-2.3-4.9,2.3,1-5-4-3.5,5.5-.8L30,42.1Zm-6.2-1.9,1.9-3.6A2.1,2.1,0,0,1,30,40a1.9,1.9,0,0,1,1.8,1.1l2,3.6,4.5.6A2.2,2.2,0,0,1,40,46.8a2,2,0,0,1-.7,2.1l-3,2.8.7,3.8a2.4,2.4,0,0,1-.8,2.1,2.2,2.2,0,0,1-2.1.2L30,55.9l-4,1.9a2.2,2.2,0,0,1-2.1-.2,2.4,2.4,0,0,1-.8-2.1l.7-3.8-3.1-2.8a2.1,2.1,0,0,1-.6-2.1,2.2,2.2,0,0,1,1.7-1.5Z" transform="translate(0 0)" fill="#232323" fill-rule="evenodd"/>
  <path d="M65.6,36.6,68,32l2.5,4.6,5.5.8-4,3.5L73,46l-5-2.4L63.1,46l.9-5.1-4-3.5Z" transform="translate(0 0)" fill="#fff600"/>
  <path d="M65.6,36.6l-5.5.8,4,3.5-1,5L68,43.6l5,2.3-1-5,4-3.5-5.5-.8L68,32.1Zm6.2-1.9-2-3.6A1.9,1.9,0,0,0,68,30a2.1,2.1,0,0,0-1.8,1.1l-1.9,3.6-4.5.6a2.2,2.2,0,0,0-1.7,1.5,2.1,2.1,0,0,0,.6,2.1l3.1,2.8-.7,3.8a2.4,2.4,0,0,0,.8,2.1,2.2,2.2,0,0,0,2.1.2l4-1.9,4.1,1.9a2.2,2.2,0,0,0,2.1-.2,2.4,2.4,0,0,0,.8-2.1l-.7-3.8,3-2.8a2,2,0,0,0,.7-2.1,2.2,2.2,0,0,0-1.7-1.5Z" transform="translate(0 0)" fill="#232323" fill-rule="evenodd"/>
  <path d="M55.6,41.6,58,37l2.5,4.6,5.5.8-4,3.5L63,51l-5-2.4L53.1,51l.9-5.1-4-3.5Z" transform="translate(0 0)" fill="#fff600"/>
  <path d="M55.6,41.6l-5.5.8,4,3.5-1,5L58,48.6l5,2.3-1-5,4-3.5-5.5-.8L58,37.1Zm6.2-1.9-2-3.6A1.9,1.9,0,0,0,58,35a2.1,2.1,0,0,0-1.8,1.1l-1.9,3.6-4.5.6a2.2,2.2,0,0,0-1.7,1.5,2.1,2.1,0,0,0,.6,2.1l3.1,2.8-.7,3.8a2.4,2.4,0,0,0,.8,2.1,2.2,2.2,0,0,0,2.1.2l4-1.9,4.1,1.9a2.2,2.2,0,0,0,2.1-.2,2.4,2.4,0,0,0,.8-2.1l-.7-3.8,3-2.8a2,2,0,0,0,.7-2.1,2.2,2.2,0,0,0-1.7-1.5Z" transform="translate(0 0)" fill="#232323" fill-rule="evenodd"/>
  <path d="M50.5,46.6,48,42l-2.5,4.6-5.5.8,4,3.5L43.1,56,48,53.6,52.9,56,52,50.9l4-3.5Z" transform="translate(0 0)" fill="#fff600"/>
  <path d="M50.5,46.6l5.4.8L52,50.9l.9,5L48,53.6l-4.9,2.3.9-5-3.9-3.5,5.4-.8L48,42.1Zm-6.3-1.9,2-3.6a2,2,0,0,1,3.6,0l2,3.6,4.4.6a2,2,0,0,1,1.7,1.5,2.1,2.1,0,0,1-.6,2.1l-3.1,2.8.7,3.8a2.1,2.1,0,0,1-.7,2.1,2.4,2.4,0,0,1-2.2.2l-4-1.9-4,1.9a2.4,2.4,0,0,1-2.2-.2,2.1,2.1,0,0,1-.7-2.1l.7-3.8-3.1-2.8a2.1,2.1,0,0,1-.6-2.1,2,2,0,0,1,1.7-1.5Z" transform="translate(0 0)" fill="#232323" fill-rule="evenodd"/>
  <path d="M43.2,44.6l-4.3-8.5-4.3,8.5L25,46l6.9,6.6-1.6,9.3,8.6-4.4,8.6,4.4-1.7-9.3,7-6.6Z" transform="translate(0 0)" fill="#fff"/>
  <path d="M43.2,44.6,52.8,46l-7,6.6,1.7,9.3-8.6-4.4-8.6,4.4,1.6-9.3L25,46l9.6-1.4,4.3-8.5Zm-9.9-1.9,3.8-7.6A2,2,0,0,1,38.9,34a1.8,1.8,0,0,1,1.7,1.1l3.9,7.6,8.6,1.2a2.1,2.1,0,0,1,1,3.6L48,53.3l1.4,8.3a2,2,0,0,1-2.8,2.2l-7.7-4-7.7,4a2,2,0,0,1-2.1-.2,2.3,2.3,0,0,1-.8-2l1.5-8.3-6.2-5.8a2.5,2.5,0,0,1-.5-2.2,2.1,2.1,0,0,1,1.6-1.4Z" transform="translate(0 0)" fill="#232323" fill-rule="evenodd"/>
  <path d="M33,13H44.1v4.2h-6v1.3h5.7v3.9H38.1v1.4h6.4V28H33Z" transform="translate(0 0)" fill="#232323"/>
</svg>
