<svg width="680" height="206" viewBox="0 0 680 206" fill="none" xmlns="http://www.w3.org/2000/svg">
<path d="M532.576 156.781L532.591 49.147L536.06 51.1504V156.332L532.576 156.781Z" fill="#CBC401"/>
<path d="M532.591 48.6987L536.059 51.1507V60.5252L532.591 55.5763V48.6987Z" fill="#ABA803"/>
<path d="M556.467 191.139V63.7544L550.801 60.5549V191.139H556.467Z" fill="#FFF71A"/>
<path d="M556.467 63.7395L550.801 60.5549V62.4238L556.467 70.1685V63.7395Z" fill="#CBC401"/>
<path d="M556.438 191.169L556.467 63.7397L559.936 65.7432V190.705L556.438 191.169Z" fill="#CBC401"/>
<path d="M556.468 63.2908L559.936 65.7578V75.1322L556.468 70.1684V63.2908Z" fill="#ABA803"/>
<path d="M582.453 190.885V83.236L576.786 80.0215V190.885H582.453Z" fill="#FFF71A"/>
<path d="M582.453 83.2211L576.786 80.0215V81.8904L582.453 89.6351V83.2211Z" fill="#CBC401"/>
<path d="M582.423 190.854L582.453 83.2207L585.921 85.2242V190.391L582.423 190.854Z" fill="#CBC401"/>
<path d="M582.453 82.7722L585.922 85.2242V94.5986L582.453 89.6348V82.7722Z" fill="#ABA803"/>
<path d="M609.918 101.745L604.252 98.5308V205.985H609.918V101.745Z" fill="#FFF71A"/>
<path d="M609.918 101.73L604.252 98.5308V100.415L609.918 108.144V101.73Z" fill="#CBC401"/>
<path d="M609.918 101.731L613.387 103.734V205.985H609.903L609.918 101.731Z" fill="#CBC401"/>
<path d="M609.918 101.267L613.387 103.734V113.108L609.918 108.144V101.267Z" fill="#ABA803"/>
<path d="M146.551 156.811V49.162L152.217 45.9475V156.811H146.551Z" fill="#FFF71A"/>
<path d="M146.551 49.1471L152.217 45.9475V47.8314L146.551 55.5761V49.1471Z" fill="#CBC401"/>
<path d="M146.581 156.781L146.551 49.147L143.082 51.1504V156.332L146.581 156.781Z" fill="#CBC401"/>
<path d="M146.551 48.6987L143.082 51.1507V60.5252L146.551 55.5763V48.6987Z" fill="#ABA803"/>
<path d="M122.674 191.139V63.7544L128.34 60.5549V191.139H122.674Z" fill="#FFF71A"/>
<path d="M122.674 63.7395L128.34 60.5549V62.4238L122.674 70.1685V63.7395Z" fill="#CBC401"/>
<path d="M122.704 191.169L122.674 63.7397L119.205 65.7432V190.705L122.704 191.169Z" fill="#CBC401"/>
<path d="M122.674 63.2908L119.205 65.7578V75.1322L122.674 70.1684V63.2908Z" fill="#ABA803"/>
<path d="M96.6885 190.885V83.236L102.355 80.0215V190.885H96.6885Z" fill="#FFF71A"/>
<path d="M96.6885 83.2211L102.355 80.0215V81.8904L96.6885 89.6351V83.2211Z" fill="#CBC401"/>
<path d="M96.7183 190.854L96.6884 83.2207L93.2197 85.2242V190.391L96.7183 190.854Z" fill="#CBC401"/>
<path d="M96.6884 82.7722L93.2197 85.2242V94.5986L96.6884 89.6348V82.7722Z" fill="#ABA803"/>
<path d="M69.2236 101.745L74.9051 98.5308V205.985H69.2236V101.745Z" fill="#FFF71A"/>
<path d="M69.2236 101.73L74.9051 98.5308V100.415L69.2236 108.144V101.73Z" fill="#CBC401"/>
<path d="M69.2235 101.731L65.7549 103.734V205.985H69.2385L69.2235 101.731Z" fill="#CBC401"/>
<path d="M69.2235 101.267L65.7549 103.734V113.108L69.2235 108.144V101.267Z" fill="#ABA803"/>
<path d="M191.21 0.122314V11.0815H339.571V0.122314H191.21Z" fill="#FFF71A"/>
<path d="M191.21 16.0902V11.0815H339.571V16.0902H191.21Z" fill="#AFAC05"/>
<path d="M191.21 0.122314L0.0439453 132.022V147.302L194.529 11.0815L191.21 0.122314Z" fill="#FFF71A"/>
<path d="M198.82 123.53V12.517H204.502V123.53H198.82Z" fill="#FFF71A"/>
<path d="M198.85 123.53L198.82 12.517H195.352V123.066L198.85 123.53Z" fill="#CBC401"/>
<path d="M228.588 123.53V12.517H234.254V123.53H228.588Z" fill="#FFF71A"/>
<path d="M228.618 123.53L228.588 12.517H225.12V123.066L228.618 123.53Z" fill="#CBC401"/>
<path d="M258.864 123.53V12.517H264.531V123.53H258.864Z" fill="#FFF71A"/>
<path d="M258.879 123.53L258.864 12.517H255.396V123.066L258.879 123.53Z" fill="#CBC401"/>
<path d="M172.536 157.08V29.6809L178.203 26.4813V157.08H172.536Z" fill="#FFF71A"/>
<path d="M172.566 157.095L172.537 29.6808L169.068 31.6843V156.631L172.566 157.095Z" fill="#CBC401"/>
<path d="M289.395 106.994V12.517H295.061V106.994H289.395Z" fill="#FFF71A"/>
<path d="M289.409 107.008L289.394 12.517H285.926V107.891L289.409 107.008Z" fill="#CBC401"/>
<path d="M289.395 107.008V100.086H339.571V107.008H289.395Z" fill="#FFF71A"/>
<path d="M285.926 107.008V110.387H339.571V107.008H285.926Z" fill="#CBC401"/>
<path d="M309.953 84.6864V77.764H339.571V84.6864H309.953Z" fill="#FFF71A"/>
<path d="M311.373 84.6865V23.8053H317.055V84.6865H311.373Z" fill="#FFF71A"/>
<path d="M311.403 87.4675L311.373 23.8053L307.905 27.0348V88.0655L311.403 87.4675Z" fill="#CBC401"/>
<path d="M311.373 30.7127V23.8053H339.571V30.7127H311.373Z" fill="#FFF71A"/>
<path d="M317.054 30.2189V33.6129H339.571V30.2189H317.054Z" fill="#CBC401"/>
<path d="M291.263 49.8349V42.9125H310.161V49.8349H291.263Z" fill="#FFF71A"/>
<path d="M295.061 49.3417V52.7206H310.161V49.3417H295.061Z" fill="#CBC401"/>
<path d="M291.263 71.8882V64.9658H310.161V71.8882H291.263Z" fill="#FFF71A"/>
<path d="M295.061 71.3947V74.7886H310.161V71.3947H295.061Z" fill="#CBC401"/>
<path d="M487.932 0.122314V11.0815H339.571V0.122314H487.932Z" fill="#FFF71A"/>
<path d="M487.932 16.0902V11.0815H339.571V16.0902H487.932Z" fill="#AFAC05"/>
<path d="M487.932 0.122314L679.098 132.022V147.302L484.627 11.0815L487.932 0.122314Z" fill="#FFF71A"/>
<path d="M480.321 123.53V12.517H474.64V123.53H480.321Z" fill="#FFF71A"/>
<path d="M480.292 123.53L480.322 12.517H483.791V123.066L480.292 123.53Z" fill="#CBC401"/>
<path d="M450.553 123.53V12.517H444.887V123.53H450.553Z" fill="#FFF71A"/>
<path d="M450.524 123.53L450.554 12.517H454.022V123.066L450.524 123.53Z" fill="#CBC401"/>
<path d="M420.292 123.53V12.517H414.61V123.53H420.292Z" fill="#FFF71A"/>
<path d="M420.262 123.53L420.292 12.517H423.746V123.066L420.262 123.53Z" fill="#CBC401"/>
<path d="M506.62 157.08V29.6809L500.938 26.4813V157.08H506.62Z" fill="#FFF71A"/>
<path d="M506.59 157.095L506.62 29.6808L510.074 31.6843V156.631L506.59 157.095Z" fill="#CBC401"/>
<path d="M532.591 156.811V49.1621L526.924 45.9476V156.811H532.591Z" fill="#FFF71A"/>
<path d="M389.762 106.994V12.517H384.081V106.994H389.762Z" fill="#FFF71A"/>
<path d="M389.732 107.008L389.762 12.517H393.216V107.891L389.732 107.008Z" fill="#CBC401"/>
<path d="M389.762 107.008V100.086H339.571V107.008H389.762Z" fill="#FFF71A"/>
<path d="M393.216 107.008V110.387H339.571V107.008H393.216Z" fill="#CBC401"/>
<path d="M369.19 84.6864V77.764H339.571V84.6864H369.19Z" fill="#FFF71A"/>
<path d="M367.769 84.6865V23.8053H362.087V84.6865H367.769Z" fill="#FFF71A"/>
<path d="M367.739 87.4675L367.769 23.8053L371.237 27.0348V88.0655L367.739 87.4675Z" fill="#CBC401"/>
<path d="M367.769 30.7127V23.8053H339.571V30.7127H367.769Z" fill="#FFF71A"/>
<path d="M362.088 30.2189V33.6129H339.571V30.2189H362.088Z" fill="#CBC401"/>
<path d="M387.893 49.8349V42.9125H368.98V49.8349H387.893Z" fill="#FFF71A"/>
<path d="M384.081 49.3417V52.7206H368.98V49.3417H384.081Z" fill="#CBC401"/>
<path d="M387.893 71.8882V64.9658H368.98V71.8882H387.893Z" fill="#FFF71A"/>
<path d="M384.081 71.3947V74.7886H368.98V71.3947H384.081Z" fill="#CBC401"/>
<path d="M0.0439453 147.302L194.529 11.0815V16.0902L0.0439453 152.206V147.302Z" fill="#AFAC05"/>
<path d="M198.82 12.517H204.502V14.3859L198.82 18.2433V12.517Z" fill="#CBC401"/>
<path d="M198.82 12.517H195.352V22.1157L198.82 18.2433V12.517Z" fill="#ABA803"/>
<path d="M228.588 12.517H234.254V14.3859L228.588 18.2433V12.517Z" fill="#CBC401"/>
<path d="M228.588 12.517H225.12V22.1157L228.588 18.2433V12.517Z" fill="#ABA803"/>
<path d="M258.864 12.517H264.531V14.3859L258.864 18.2433V12.517Z" fill="#CBC401"/>
<path d="M258.864 12.517H255.396V22.1157L258.864 18.2433V12.517Z" fill="#ABA803"/>
<path d="M172.536 29.6809L178.203 26.4813V28.3502L172.536 36.095V29.6809Z" fill="#CBC401"/>
<path d="M172.537 29.2172L169.068 31.6842V41.0585L172.537 36.0948V29.2172Z" fill="#ABA803"/>
<path d="M289.395 12.517H295.061V14.3859L289.395 18.2433V12.517Z" fill="#CBC401"/>
<path d="M289.394 12.517H285.926V22.1157L289.394 18.2433V12.517Z" fill="#ABA803"/>
<path d="M307.905 84.686V88.065H339.571V84.686H307.905Z" fill="#CBC401"/>
<path d="M679.098 147.302L484.627 11.0815V16.0902L679.098 152.206V147.302Z" fill="#AFAC05"/>
<path d="M480.321 12.517H474.64V14.3859L480.321 18.2433V12.517Z" fill="#CBC401"/>
<path d="M480.321 12.517H483.79V22.1157L480.321 18.2433V12.517Z" fill="#ABA803"/>
<path d="M450.553 12.517H444.887V14.3859L450.553 18.2433V12.517Z" fill="#CBC401"/>
<path d="M450.553 12.517H454.022V22.1157L450.553 18.2433V12.517Z" fill="#ABA803"/>
<path d="M420.292 12.517H414.61V14.3859L420.292 18.2433V12.517Z" fill="#CBC401"/>
<path d="M420.292 12.517H423.746V22.1157L420.292 18.2433V12.517Z" fill="#ABA803"/>
<path d="M506.62 29.6809L500.938 26.4813V28.3502L506.605 36.095L506.62 29.6809Z" fill="#CBC401"/>
<path d="M506.621 29.2172L510.075 31.6842V41.0585L506.606 36.0948L506.621 29.2172Z" fill="#ABA803"/>
<path d="M532.591 49.1472L526.924 45.9476V47.8315L532.591 55.5762V49.1472Z" fill="#CBC401"/>
<path d="M389.762 12.517H384.081V14.3859L389.747 18.2433H389.762V12.517Z" fill="#CBC401"/>
<path d="M389.762 12.517H393.216V22.1157L389.747 18.2433L389.762 12.517Z" fill="#ABA803"/>
<path d="M371.238 84.686V88.065H339.571V84.686H371.238Z" fill="#CBC401"/>
</svg>
