<svg width="42" height="42" viewBox="0 0 42 42" fill="none" xmlns="http://www.w3.org/2000/svg">
<path d="M20.0952 1.57423L14.4459 13.5798L1.84645 15.5376C1.47656 15.5951 1.16975 15.8543 1.05134 16.2094C0.932941 16.5645 1.02278 16.956 1.28415 17.224L10.4315 26.6018L8.26217 39.8383C8.20022 40.2163 8.35964 40.5965 8.67268 40.8172C8.98571 41.038 9.39735 41.0605 9.73263 40.8753L21 34.6496L32.2674 40.8753C32.6027 41.0605 33.0143 41.038 33.3273 40.8172C33.6404 40.5965 33.7998 40.2163 33.7378 39.8383L31.5685 26.6018L40.7158 17.224C40.9772 16.956 41.0671 16.5645 40.9487 16.2094C40.8302 15.8543 40.5234 15.5951 40.1535 15.5376L27.5541 13.5798L21.9048 1.57423C21.7399 1.22372 21.3874 1 21 1C20.6126 1 20.2601 1.22372 20.0952 1.57423Z" fill="#BDB82C" stroke="#232323" stroke-width="2" stroke-linecap="round" stroke-linejoin="round"/>
<mask id="mask0" mask-type="alpha" maskUnits="userSpaceOnUse" x="2" y="2" width="38" height="38">
<path d="M26.8755 14.4863L21 2L15.1245 14.4863L2 16.5257L11.5 26.2651L9.249 40L21 33.5071L32.751 40L30.5 26.2651L40 16.5257L26.8755 14.4863Z" fill="white"/>
</mask>
<g mask="url(#mask0)">
<path d="M22.3388 -25.3572C21.452 -25.5196 20.543 -25.5196 19.6562 -25.3572L0.299532 -21.8119C-3.21967 -21.1674 -5.77478 -18.1123 -5.77478 -14.549L-5.77478 2.90062C-5.77478 5.84492 -4.45033 9.02478 -1.83109 12.356C0.490775 15.3025 3.77817 18.32 7.9384 21.3255C11.4523 23.855 15.0123 25.9478 17.7436 27.4296C19.7748 28.5316 22.2207 28.5325 24.2522 27.431C26.9851 25.9493 30.5458 23.8562 34.0596 21.3255C38.2228 18.3207 41.5042 15.3033 43.8246 12.356C46.4461 9.02109 47.775 5.84566 47.775 2.90062V-14.5488C47.775 -18.1121 45.2197 -21.1673 41.7004 -21.8117L22.3388 -25.3572Z" fill="#EBFF00"/>
</g>
</svg>
