<svg width="240" height="156" viewBox="0 0 240 156" fill="none" xmlns="http://www.w3.org/2000/svg">
<path fill-rule="evenodd" clip-rule="evenodd" d="M86.3539 112.502L17.8646 113.7L0 143.511H86.3539H238.661L220.796 113.7L86.3539 112.502Z" fill="#978EA3"/>
<path fill-rule="evenodd" clip-rule="evenodd" d="M173.996 113.287L224.268 127.206L177.81 143.511H0L9.86326 128.112L48.9439 113.156L173.996 113.287Z" fill="#6A6579"/>
<path fill-rule="evenodd" clip-rule="evenodd" d="M32.9815 43.6797L22.1118 50.7853L32.7299 57.8204L60.5785 57.8405L71.3074 50.7853L60.4376 43.6797H32.9815Z" fill="#FF9C9C"/>
<path fill-rule="evenodd" clip-rule="evenodd" d="M60.4376 57.8816L71.3073 50.7861L79.7515 62.4711L65.3391 71.9418L60.4376 57.8816Z" fill="#E66161"/>
<path fill-rule="evenodd" clip-rule="evenodd" d="M32.7299 57.8213L60.5785 57.8414L65.3391 71.9419L27.9392 71.9217L32.7299 57.8213Z" fill="#FF6F6F"/>
<path fill-rule="evenodd" clip-rule="evenodd" d="M32.73 57.8212L22.1119 50.7861L13.6677 62.4711L27.9393 71.9217L32.73 57.8212Z" fill="#E66161"/>
<path fill-rule="evenodd" clip-rule="evenodd" d="M32.8406 57.2274L22.1118 50.7861L32.7299 57.8212L46.5989 57.8615L60.4376 57.8816L71.3074 50.7861L60.5785 57.0261L46.7197 57.1369L32.8406 57.2274Z" fill="white"/>
<path fill-rule="evenodd" clip-rule="evenodd" d="M59.874 94.2848L65.3793 92.7147L79.7515 62.4707L65.3391 71.9415L59.874 94.2848Z" fill="#943838"/>
<path fill-rule="evenodd" clip-rule="evenodd" d="M33.4345 94.2743L59.874 94.2843L65.3391 71.941L27.9392 71.9209L33.4345 94.2743Z" fill="#DB4444"/>
<path fill-rule="evenodd" clip-rule="evenodd" d="M33.4345 94.2747L27.6776 91.668L13.6677 62.4707L27.9393 71.9213L33.4345 94.2747Z" fill="#943838"/>
<path fill-rule="evenodd" clip-rule="evenodd" d="M9.86328 108.889L37.7119 116.306V135.54L9.86328 128.112V108.889Z" fill="#919296"/>
<path fill-rule="evenodd" clip-rule="evenodd" d="M81.2009 108.889L37.7119 116.306V135.54L81.2009 128.112V108.889Z" fill="#B8BDBF"/>
<path fill-rule="evenodd" clip-rule="evenodd" d="M81.2009 108.889L66.3456 111.425L53.0704 132.913L81.2009 128.112V108.889Z" fill="#919296"/>
<path fill-rule="evenodd" clip-rule="evenodd" d="M37.7119 116.306L81.2008 108.889L53.3522 101.461L9.86328 108.889L37.7119 116.306Z" fill="#D0D6D9"/>
<path fill-rule="evenodd" clip-rule="evenodd" d="M34.5314 106.584L58.636 108.698L32.75 114.988L15.9523 110.509L34.5314 106.584Z" fill="#B8BDBF"/>
<path fill-rule="evenodd" clip-rule="evenodd" d="M41.6774 94.2744H58.6361V108.697L41.6774 111.173V94.2744Z" fill="#DB4444"/>
<path fill-rule="evenodd" clip-rule="evenodd" d="M58.6361 94.275V108.697L61.5951 104.863L61.5246 93.5L58.6361 94.275Z" fill="#E66161"/>
<path fill-rule="evenodd" clip-rule="evenodd" d="M41.6774 94.2742V111.173L32.2368 108.586V93.7207L33.4345 94.2742H41.6774Z" fill="#943838"/>
<path fill-rule="evenodd" clip-rule="evenodd" d="M0 155.91H238.661V143.511H0V155.91Z" fill="#373440"/>
<path fill-rule="evenodd" clip-rule="evenodd" d="M110.589 117.303L81.0298 117.756L73.3203 129.149H110.589H176.321L168.612 117.756L110.589 117.303Z" fill="#E3E3E3"/>
<path fill-rule="evenodd" clip-rule="evenodd" d="M76.9335 123.814L73.3203 129.149H110.589H131.373L137.15 126.23L76.9335 123.814Z" fill="#B8BDBF"/>
<path fill-rule="evenodd" clip-rule="evenodd" d="M73.3203 138.619H176.321V129.148H73.3203V138.619Z" fill="#B8BDBF"/>
<path fill-rule="evenodd" clip-rule="evenodd" d="M73.3203 138.619H112.643L131.373 129.148H73.3203V138.619Z" fill="#919296"/>
<path fill-rule="evenodd" clip-rule="evenodd" d="M176.321 133.245V131.977L155.548 132.822L176.321 133.245Z" fill="#A7ADB0"/>
<path fill-rule="evenodd" clip-rule="evenodd" d="M73.3203 136.204V134.704L105.336 135.7L73.3203 136.204Z" fill="#A7ADB0"/>
<path fill-rule="evenodd" clip-rule="evenodd" d="M66.3456 108.426L106.372 117.876V133.074L66.3456 123.613V108.426Z" fill="#A7ADB0"/>
<path fill-rule="evenodd" clip-rule="evenodd" d="M95.6736 115.35L84.5925 118.53L71.5388 109.653L95.6736 115.35Z" fill="#919296"/>
<path fill-rule="evenodd" clip-rule="evenodd" d="M168.893 108.426L106.372 117.876V133.074L168.893 123.613V108.426Z" fill="#D0D6D9"/>
<path fill-rule="evenodd" clip-rule="evenodd" d="M154.863 110.549L149.076 111.424L146.671 126.974L159.06 125.102L154.863 110.549Z" fill="#A7ADB0"/>
<path fill-rule="evenodd" clip-rule="evenodd" d="M106.372 117.876L168.893 108.426L128.867 98.9648L66.3456 108.426L106.372 117.876Z" fill="#E3E3E3"/>
<path fill-rule="evenodd" clip-rule="evenodd" d="M66.3456 116.024V113.407L95.7844 121.67L66.3456 116.024Z" fill="#D0D6D9"/>
<path fill-rule="evenodd" clip-rule="evenodd" d="M73.7933 97.4951L98.0992 107.62V115.913L73.7933 105.788V97.4951Z" fill="#A7ADB0"/>
<path fill-rule="evenodd" clip-rule="evenodd" d="M75.2627 98.1094L88.2158 103.504L76.3497 106.845L75.2627 98.1094Z" fill="#919296"/>
<path fill-rule="evenodd" clip-rule="evenodd" d="M174.771 99.2764L98.0992 107.62V115.913L174.771 107.58V99.2764Z" fill="#D0D6D9"/>
<path fill-rule="evenodd" clip-rule="evenodd" d="M124.056 104.802L172.003 98.1289L166.639 103.503L143.843 109.129L124.056 104.802Z" fill="#A7ADB0"/>
<path fill-rule="evenodd" clip-rule="evenodd" d="M98.0992 107.62L174.771 99.2763L150.455 89.1514L73.7933 97.4949L98.0992 107.62Z" fill="#E3E3E3"/>
<path fill-rule="evenodd" clip-rule="evenodd" d="M111.334 83.3047L83.3244 83.7375L76.0176 94.5367H111.334H173.624L166.317 83.7375L111.334 83.3047Z" fill="#E3E3E3"/>
<path fill-rule="evenodd" clip-rule="evenodd" d="M76.0176 103.504H173.624V94.5361H76.0176V103.504Z" fill="#B8BDBF"/>
<path fill-rule="evenodd" clip-rule="evenodd" d="M89.2223 94.5361H150.224L128.112 103.504H105.235L89.2223 94.5361Z" fill="#A7ADB0"/>
<path fill-rule="evenodd" clip-rule="evenodd" d="M136.435 103.453L124.056 104.802L88.2158 103.503L136.435 103.453Z" fill="#A7ADB0"/>
<path fill-rule="evenodd" clip-rule="evenodd" d="M166.468 81.0801L142.152 91.205V99.5083L166.468 89.3733V81.0801Z" fill="#D0D6D9"/>
<path fill-rule="evenodd" clip-rule="evenodd" d="M65.48 82.8711L142.152 91.2045V99.5078L65.48 91.1643V82.8711Z" fill="#B8BDBF"/>
<path fill-rule="evenodd" clip-rule="evenodd" d="M142.152 91.2048L65.48 82.8713L89.7959 72.7363L166.468 81.0798L142.152 91.2048Z" fill="#E3E3E3"/>
<path fill-rule="evenodd" clip-rule="evenodd" d="M103.534 74.2363L131.997 82.2578L107.811 87.4712L73.2699 83.7171L103.534 74.2363Z" fill="#A7ADB0"/>
<path fill-rule="evenodd" clip-rule="evenodd" d="M168.893 114.494V112.461L124.76 118.882L168.893 114.494Z" fill="#A7ADB0"/>
<path fill-rule="evenodd" clip-rule="evenodd" d="M168.893 119.134V117.111L152.911 120.725L168.893 119.134Z" fill="#A7ADB0"/>
<path fill-rule="evenodd" clip-rule="evenodd" d="M132.51 19.334L151.119 37.6112L151.341 63.6985L133.063 82.2978L106.986 82.5193L88.3869 64.242L88.1554 38.1648L106.433 19.5655L132.51 19.334Z" fill="#FF9C9C"/>
<path fill-rule="evenodd" clip-rule="evenodd" d="M130.527 24.2656L146.228 39.6946L146.419 61.7058L130.99 77.4065L110.428 73.9946L96.67 60.649L92.9059 40.1576L108.335 24.4569L130.527 24.2656Z" fill="#DB4444"/>
<path fill-rule="evenodd" clip-rule="evenodd" d="M151.119 37.6112L132.51 19.334L129.46 26.8824L143.963 40.6507L151.119 37.6112Z" fill="#943838"/>
<path fill-rule="evenodd" clip-rule="evenodd" d="M151.119 37.6113L143.963 40.6508L142.806 60.2465L151.341 63.6987L151.119 37.6113Z" fill="#A84949"/>
<path fill-rule="evenodd" clip-rule="evenodd" d="M130.306 77.4163L110.428 73.9944L96.6801 60.6488L93.087 40.1573L103.474 29.5795L127.92 29.2373L141.347 42.3917L143.269 64.2217L130.306 77.4163Z" fill="#FF6F6F"/>
<path fill-rule="evenodd" clip-rule="evenodd" d="M94.9691 40.9227L96.8512 60.6492L88.3869 64.2423L88.1554 38.165L94.9691 40.9227Z" fill="#FF6F6F"/>
<path fill-rule="evenodd" clip-rule="evenodd" d="M106.433 19.5654L88.1554 38.1647L94.9691 40.9224L109.563 26.9427L106.433 19.5654Z" fill="#E66161"/>
<path fill-rule="evenodd" clip-rule="evenodd" d="M128.927 72.0117L110.428 73.9944L106.986 82.5191L133.063 82.2977L128.927 72.0117Z" fill="#FF6F6F"/>
<path fill-rule="evenodd" clip-rule="evenodd" d="M142.806 60.2461L128.927 72.0116L133.064 82.2975L151.341 63.6982L142.806 60.2461Z" fill="#DB4444"/>
<path fill-rule="evenodd" clip-rule="evenodd" d="M106.433 19.5655L109.563 26.9428L129.46 26.8824L132.51 19.334L106.433 19.5655Z" fill="#A84949"/>
<path fill-rule="evenodd" clip-rule="evenodd" d="M122.788 27.1445L127.226 31.5025L127.276 37.7123L122.918 42.1508L116.709 42.2011L112.28 37.8432L112.22 31.6333L116.578 27.1949L122.788 27.1445Z" fill="white"/>
<path fill-rule="evenodd" clip-rule="evenodd" d="M122.788 27.1445L127.226 31.5025L127.276 37.7123L123.542 41.5167L117.413 41.567L112.985 37.2192L112.934 30.9993L116.668 27.1949L122.788 27.1445Z" fill="#A84949"/>
<path fill-rule="evenodd" clip-rule="evenodd" d="M106.906 38.4966L102.145 35.9805L104.792 33.1523L108.073 37.1077L106.906 38.4966Z" fill="#DB4444"/>
<path fill-rule="evenodd" clip-rule="evenodd" d="M103.001 49.8099L97.7771 51.1082L97.8576 47.2334L102.94 47.9882L103.001 49.8099Z" fill="#DB4444"/>
<path fill-rule="evenodd" clip-rule="evenodd" d="M108.617 61.7966L105.95 66.4766L103.202 63.7491L107.248 60.5889L108.617 61.7966Z" fill="#DB4444"/>
<path fill-rule="evenodd" clip-rule="evenodd" d="M130.547 62.0986L134.805 65.3998L131.695 67.7348L129.148 63.2762L130.547 62.0986Z" fill="#DB4444"/>
<path fill-rule="evenodd" clip-rule="evenodd" d="M136.516 47.7965L141.799 46.79L141.508 50.6548L136.475 49.6282L136.516 47.7965Z" fill="#DB4444"/>
<path fill-rule="evenodd" clip-rule="evenodd" d="M131.141 36.9569L133.889 32.3271L136.586 35.115L132.48 38.1948L131.141 36.9569Z" fill="#DB4444"/>
<path fill-rule="evenodd" clip-rule="evenodd" d="M131.554 15.8418L132.51 19.3342L106.433 19.5657L107.499 16.1538L131.554 15.8418Z" fill="#E66161"/>
<path fill-rule="evenodd" clip-rule="evenodd" d="M121.197 18.8313H117.755V8.92773H121.197V18.8313Z" fill="#E66161"/>
<path fill-rule="evenodd" clip-rule="evenodd" d="M121.197 18.8309L122.103 18.3479V8.44434L121.197 8.92743V18.8309Z" fill="#FF6F6F"/>
<path fill-rule="evenodd" clip-rule="evenodd" d="M117.755 18.8309L116.849 18.3479V8.44434L117.755 8.92743V18.8309Z" fill="#A84949"/>
<path fill-rule="evenodd" clip-rule="evenodd" d="M149.62 33.807L131.554 15.8418L132.51 19.3342L151.119 37.6114L149.62 33.807Z" fill="#FF9C9C"/>
<path fill-rule="evenodd" clip-rule="evenodd" d="M88.7995 34.7727L107.499 16.1533L106.433 19.5652L88.1554 38.1645L88.7995 34.7727Z" fill="#A84949"/>
<path fill-rule="evenodd" clip-rule="evenodd" d="M122.244 12.4796H116.708V6.12891H122.244V12.4796Z" fill="#E66161"/>
<path fill-rule="evenodd" clip-rule="evenodd" d="M122.244 12.4802L123.703 11.7052V5.35449L122.244 6.12946V12.4802Z" fill="#FF6F6F"/>
<path fill-rule="evenodd" clip-rule="evenodd" d="M116.709 12.4802L115.249 11.7052V5.35449L116.709 6.12946V12.4802Z" fill="#A84949"/>
<path fill-rule="evenodd" clip-rule="evenodd" d="M122.858 0L127.78 4.84105L127.84 11.7554L122.999 16.677L121.791 16.687V14.503H122.083L125.656 10.8697L125.606 5.76699L121.972 2.18401L116.87 2.23433L113.297 5.86764L113.337 10.9704L116.98 14.5533L117.161 14.5433V16.7273L116.095 16.7374L111.163 11.8963L111.103 4.99202L115.944 0.0603873L122.858 0Z" fill="#A84949"/>
<path fill-rule="evenodd" clip-rule="evenodd" d="M115.249 5.35437L116.709 6.12934H122.244L123.703 5.35437L122.244 4.56934H116.709L115.249 5.35437Z" fill="#FF9C9C"/>
<path fill-rule="evenodd" clip-rule="evenodd" d="M144.054 30.0826L140.139 26.1675L144.628 21.6787L148.543 25.5938L144.054 30.0826Z" fill="#DB4444"/>
<path fill-rule="evenodd" clip-rule="evenodd" d="M144.054 30.0825L145.634 30.5656L150.123 26.0768L148.543 25.5938L144.054 30.0825Z" fill="#E66161"/>
<path fill-rule="evenodd" clip-rule="evenodd" d="M140.139 26.1676L139.656 24.5874L144.155 20.0986L144.628 21.6788L140.139 26.1676Z" fill="#FF6F6F"/>
<path fill-rule="evenodd" clip-rule="evenodd" d="M144.155 20.0986L144.628 21.6788L148.543 25.5939L150.123 26.077L149.65 24.4968L145.735 20.5717L144.155 20.0986Z" fill="#FF6F6F"/>
<path fill-rule="evenodd" clip-rule="evenodd" d="M98.9546 26.6206L95.0294 30.5458L90.5406 26.0469L94.4658 22.1318L98.9546 26.6206Z" fill="#FF6F6F"/>
<path fill-rule="evenodd" clip-rule="evenodd" d="M98.9547 26.6207L99.4277 25.0506L94.9389 20.5518L94.4558 22.1319L98.9547 26.6207Z" fill="#FF9C9C"/>
<path fill-rule="evenodd" clip-rule="evenodd" d="M95.0295 30.5457L93.4494 31.0188L88.9606 26.53L90.5407 26.0469L95.0295 30.5457Z" fill="#A84949"/>
<path fill-rule="evenodd" clip-rule="evenodd" d="M88.9606 26.5301L90.5407 26.047L94.4659 22.1319L94.9389 20.5518L93.3588 21.0349L89.4437 24.95L88.9606 26.5301Z" fill="#DB4444"/>
<path fill-rule="evenodd" clip-rule="evenodd" d="M120.483 33.2939L121.197 33.9985L121.207 35.0049L120.503 35.7296L119.486 35.7396L118.772 35.0351L118.762 34.0186L119.466 33.304L120.483 33.2939Z" fill="white"/>
<path fill-rule="evenodd" clip-rule="evenodd" d="M116.437 31.5526L115.068 30.8279L115.823 30.0127L116.769 31.15L116.437 31.5526Z" fill="white"/>
<path fill-rule="evenodd" clip-rule="evenodd" d="M115.31 34.8131L113.8 35.1855L113.83 34.0684L115.289 34.2898L115.31 34.8131Z" fill="white"/>
<path fill-rule="evenodd" clip-rule="evenodd" d="M116.93 38.266L116.165 39.6147L115.37 38.8296L116.538 37.9238L116.93 38.266Z" fill="white"/>
<path fill-rule="evenodd" clip-rule="evenodd" d="M120.372 39.4834L120.775 40.983H119.657L119.849 39.5136L120.372 39.4834Z" fill="white"/>
<path fill-rule="evenodd" clip-rule="evenodd" d="M123.25 38.3564L124.478 39.3126L123.583 39.9768L122.848 38.6986L123.25 38.3564Z" fill="white"/>
<path fill-rule="evenodd" clip-rule="evenodd" d="M124.971 34.2401L126.491 33.9482L126.411 35.0553L124.961 34.7635L124.971 34.2401Z" fill="white"/>
<path fill-rule="evenodd" clip-rule="evenodd" d="M123.422 31.1098L124.217 29.7812L124.992 30.5763L123.804 31.462L123.422 31.1098Z" fill="white"/>
<path fill-rule="evenodd" clip-rule="evenodd" d="M119.728 27.1738L119.023 32.649H120.755L119.728 27.1738Z" fill="#E66161"/>
<path fill-rule="evenodd" clip-rule="evenodd" d="M140.37 44.3146L136.455 37.4707L131.745 41.6072L125.827 42.7143L126.018 51.4604L142.605 51.3497L135.549 50.2124L134.623 44.0026L136.566 40.7618L140.37 44.3146Z" fill="#030303"/>
<path fill-rule="evenodd" clip-rule="evenodd" d="M134.623 44.0025L135.549 50.2123L140.219 50.9672L139.193 43.2175L136.566 40.7617L134.623 44.0025Z" fill="#A84949"/>
<path fill-rule="evenodd" clip-rule="evenodd" d="M132.55 47.2838L132.248 44.2141L134.945 44.0732L135.348 47.1932L132.55 47.2838Z" fill="white"/>
<path fill-rule="evenodd" clip-rule="evenodd" d="M99.4982 44.3146L103.403 37.4707L108.113 41.6072L114.031 42.7143L113.84 51.4604L97.2538 51.3497L104.309 50.2124L105.245 44.0026L103.303 40.7618L99.4982 44.3146Z" fill="#030303"/>
<path fill-rule="evenodd" clip-rule="evenodd" d="M105.245 44.0025L104.309 50.2123L99.6392 50.9672L100.666 43.2175L103.303 40.7617L105.245 44.0025Z" fill="#A84949"/>
<path fill-rule="evenodd" clip-rule="evenodd" d="M107.308 47.2838L107.61 44.2141L104.923 44.0732L104.51 47.1932L107.308 47.2838Z" fill="white"/>
<path fill-rule="evenodd" clip-rule="evenodd" d="M120.161 66.0332L121.419 71.2668L117.534 71.146L118.339 66.0735L120.161 66.0332Z" fill="#DB4444"/>
<path fill-rule="evenodd" clip-rule="evenodd" d="M104.953 59.029L106.01 60.2871L111.888 58.3648L134.261 64.0412L131.836 54.7314L112.622 56.8551L104.953 59.029Z" fill="#030303"/>
<path fill-rule="evenodd" clip-rule="evenodd" d="M132.148 61.6349L114.917 57.7701L130.628 56.0088L132.148 61.6349Z" fill="white"/>
<path fill-rule="evenodd" clip-rule="evenodd" d="M73.2699 83.7168L107.811 87.4709L88.9706 93.721L65.48 91.1646L73.2699 83.7168Z" fill="#919296"/>
<path fill-rule="evenodd" clip-rule="evenodd" d="M142.625 47.7357L200.144 35.4268L224.268 126.712L166.749 142.041L142.625 47.7357Z" fill="#F0F0F0"/>
<path fill-rule="evenodd" clip-rule="evenodd" d="M160.228 129.148H155.507L153.223 138.619H162.955L160.228 129.148Z" fill="#919296"/>
<path fill-rule="evenodd" clip-rule="evenodd" d="M160.228 129.148H155.507L154.068 125.857L159.06 125.103L160.228 129.148Z" fill="#B8BDBF"/>
<path fill-rule="evenodd" clip-rule="evenodd" d="M142.625 47.7363L166.749 142.041L161.184 141.085L137.733 47.1123L142.625 47.7363Z" fill="#B8BDBF"/>
<path fill-rule="evenodd" clip-rule="evenodd" d="M137.733 47.1121L142.625 47.7361L200.144 35.4272L194.105 34.7227L137.733 47.1121Z" fill="white"/>
<path fill-rule="evenodd" clip-rule="evenodd" d="M238.661 143.511H177.81L170.926 155.91H238.661V143.511Z" fill="#6A6579"/>
<path fill-rule="evenodd" clip-rule="evenodd" d="M151.159 55.9893L196.651 46.2568L197.456 49.3165L151.975 59.0489L151.159 55.9893Z" fill="#A7ADB0"/>
<path fill-rule="evenodd" clip-rule="evenodd" d="M152.589 61.3838L198.08 51.6514L198.886 54.711L153.394 64.4434L152.589 61.3838Z" fill="#A7ADB0"/>
<path fill-rule="evenodd" clip-rule="evenodd" d="M154.209 67.5032L199.691 57.7607L200.506 60.8204L155.014 70.5528L154.209 67.5032Z" fill="#A7ADB0"/>
<path fill-rule="evenodd" clip-rule="evenodd" d="M155.83 73.6123L201.311 63.8799L202.127 66.9294L156.635 76.6719L155.83 73.6123Z" fill="#A7ADB0"/>
<path fill-rule="evenodd" clip-rule="evenodd" d="M157.45 79.7213L187.503 73.29L188.318 76.3497L158.255 82.7809L157.45 79.7213Z" fill="#A7ADB0"/>
<path fill-rule="evenodd" clip-rule="evenodd" d="M159.06 85.8401L204.552 76.0977L205.357 79.1573L159.875 88.8897L159.06 85.8401Z" fill="#A7ADB0"/>
<path fill-rule="evenodd" clip-rule="evenodd" d="M161.496 95.0091L206.988 85.2666L207.793 88.3262L162.301 98.0586L161.496 95.0091Z" fill="#A7ADB0"/>
<path fill-rule="evenodd" clip-rule="evenodd" d="M163.116 101.118L208.598 91.3857L209.413 94.4353L163.921 104.178L163.116 101.118Z" fill="#A7ADB0"/>
<path fill-rule="evenodd" clip-rule="evenodd" d="M164.737 107.228L194.789 100.797L195.605 103.857L165.542 110.288L164.737 107.228Z" fill="#A7ADB0"/>
<path d="M166.387 115.229L193.239 85.7194L194.034 84.8438L194.92 85.6389L207.934 97.4848L208.809 98.29L208.014 99.1656L181.162 128.665L180.357 129.551L179.481 128.745L166.468 116.909L165.592 116.104L166.397 115.229H166.387ZM175.546 117.362L196.259 94.6466L198.876 97.0319L178.143 119.717L175.546 117.362ZM194.206 88.1751L168.944 115.923L180.155 126.189L205.418 98.441L194.206 88.1751Z" fill="#DB4444"/>
<path d="M193.36 124.901L194.739 120.352L196.329 119.939L198.614 122.214L200.224 111.998L201.995 111.666L207.249 120.704L208.074 117.212L209.947 117.644L208.568 123.492L206.806 123.754L201.694 114.957L200.204 124.378L198.584 124.911L196.108 122.435L195.202 125.465L193.36 124.901Z" fill="#030303"/>
<path fill-rule="evenodd" clip-rule="evenodd" d="M218.662 103.091L210.54 116.105L208.739 115.34L212.875 100.374L218.662 103.091Z" fill="#030303"/>
<path fill-rule="evenodd" clip-rule="evenodd" d="M218.662 103.091L212.875 100.374L234.283 48.6924L239.536 51.3092L218.662 103.091Z" fill="#DB4444"/>
</svg>
