<svg width="98" height="197" viewBox="0 0 98 197" fill="none" xmlns="http://www.w3.org/2000/svg">
<path d="M27.5696 40.024L10.5402 35.4937L10.4355 9.06006L27.435 13.5903L27.5696 40.024Z" fill="white"/>
<path d="M0.83768 41.0706L10.541 35.4937L10.4363 9.06006L0.703125 14.6368L0.83768 41.0706Z" fill="#CFCFCF"/>
<path d="M59.3557 48.397L42.3263 43.8668L42.2217 17.4331L59.2212 21.9633L59.3557 48.397Z" fill="#D8BEA3"/>
<path d="M32.6238 49.4436L42.3271 43.8668L42.2225 17.4331L32.4893 23.0099L32.6238 49.4436Z" fill="#E6D2BD"/>
<path d="M24.2363 39.142L13.8602 36.391L13.7705 13.6503L24.1167 16.3863L24.2363 39.142Z" fill="#484453"/>
<path d="M56.1416 47.515L45.7655 44.7639L45.6758 22.0232L56.022 24.7593L56.1416 47.515Z" fill="#585252"/>
<path d="M24.3408 30.1264L57.1587 11.2729L97.6764 21.978L64.9034 40.8165L24.3408 30.1264Z" fill="#BABABA"/>
<path d="M97.6758 21.9783L57.1581 11.2732L57.1133 0L97.5413 10.6901L97.6758 21.9783Z" fill="white"/>
<path d="M24.3406 30.1266L57.1585 11.2732L57.1136 0L24.2061 18.8385L24.3406 30.1266Z" fill="#CFCFCF"/>
<path d="M0.703125 123.826L40.4284 100.995L89.4534 113.958L49.7879 136.743L0.703125 123.826Z" fill="#BABABA"/>
<path d="M89.4527 113.958L40.4277 100.995L39.9941 17.5975L88.9144 30.5303L89.4527 113.958Z" fill="white"/>
<path d="M40.4278 100.995L40.2334 62.7499L48.6958 49.6975L56.9638 75.8621L81.2296 89.1388L54.8407 104.808L40.4278 100.995Z" fill="#E8E5E5"/>
<path d="M40.2333 65.232L39.9941 17.5975L84.7281 29.4239L40.2333 65.232Z" fill="#E8E5E5"/>
<path d="M0.702306 123.826L40.4276 100.995L39.994 17.5975L0.164062 40.3831L0.702306 123.826Z" fill="#CFCFCF"/>
<path d="M10.4957 92.159L4.96373 90.6789L4.87402 121.433L40.2934 74.9502L10.4957 92.159Z" fill="#BABABA"/>
<path d="M48.7109 80.5869L65.2021 71.1377L97.6761 79.7197L81.2298 89.1539L48.7109 80.5869Z" fill="#392E3D"/>
<path d="M97.6761 79.7196L65.2021 71.1376L65.247 40.2783L97.6462 48.8304L97.6761 79.7196Z" fill="#676570"/>
<path d="M48.7112 80.5867L65.2024 71.1376L65.2473 40.2783L48.6963 49.6976L48.7112 80.5867Z" fill="#484453"/>
<path d="M16.8505 76.191L33.8201 66.4727L33.85 42.79L16.8057 52.4934L16.8505 76.191Z" fill="#484453"/>
<path d="M19.9449 72.6778L33.3412 65.0078L33.3711 49.8772L19.915 57.5322L19.9449 72.6778Z" fill="#232323"/>
<path d="M22.9798 70.6141L33.3409 64.6785L33.3709 52.9717L22.9648 58.8924L22.9798 70.6141Z" fill="white"/>
<path d="M24.6839 68.5362L33.3406 63.5724L33.3705 53.7943L24.6689 58.7432L24.6839 68.5362Z" fill="#090A05"/>
<path d="M51.2233 70.9881V74.2624L48.6367 75.7725V65.5459L51.2233 64.0657V67.3251L65.2325 59.386L97.6766 68.0278L97.6617 71.5114L65.3073 62.8546L51.2233 70.9881Z" fill="#090A05"/>
<path d="M83.2033 66.4579L79.6748 65.5309L79.6897 46.498L83.2033 47.425V66.4579Z" fill="#090A05"/>
<path d="M97.6762 57.3675L97.6463 48.965L65.2471 40.2783V48.6809L97.6762 57.3675Z" fill="#090A05"/>
<path d="M56.9639 53.5101L65.202 48.7855L65.2468 40.2783L56.9639 44.988V53.5101Z" fill="#232323"/>
<path d="M4.63464 194.306L2.52652 193.902L2.42188 65.262L5.05328 66.0544L4.63464 194.306Z" fill="#676570"/>
<path fill-rule="evenodd" clip-rule="evenodd" d="M34.6417 73.0216L4.18607 90.4696L4.11133 47.9035L34.7014 30.5004L34.6417 73.0216ZM30.9039 69.9416L7.92386 83.0986L7.86407 50.9985L30.9487 37.8713L30.9039 69.9416Z" fill="#FFF71A"/>
<path d="M0.897755 71.048L4.14216 69.194L4.15713 64.29L0.882812 66.1589L0.897755 71.048Z" fill="#524D45"/>
<path d="M0.104646 195.008L2.52673 194.799L2.42209 65.262L0 66.6375L0.104646 195.008Z" fill="#484453"/>
<path d="M16.2373 41.3252L35.315 30.3361L35.33 24.3556L16.2373 35.3447V41.3252Z" fill="#090A05"/>
<path d="M10.48 92.1589L4.18555 90.4694L34.6411 73.0214L40.7861 74.666L10.48 92.1589Z" fill="#948A02"/>
<path d="M34.7014 30.5004L34.6416 73.0216L40.7865 74.6662V32.13L34.7014 30.5004Z" fill="#ABA803"/>
<path d="M14.1737 52.6879L7.86426 50.9984L30.9339 37.8264L30.9489 42.9995L14.1737 52.6879Z" fill="#948A02"/>
<path d="M7.86448 50.9983L7.80469 83.0985L13.9496 79.6448V52.628L7.86448 50.9983Z" fill="#ABA803"/>
<path d="M83.507 197H40.627V105L83.1332 116.228L83.507 197Z" fill="white"/>
<path d="M6.47845 197H40.9858L40.627 105L6 124.795L6.47845 197Z" fill="#CFCFCF"/>
<path d="M79.873 197V116.688L76.21 115.745V197H79.873Z" fill="#DBDBDB"/>
<path d="M72.3977 197L72.3828 114.407L68.7197 113.481L68.7347 197H72.3977Z" fill="#DBDBDB"/>
<path d="M64.4885 197L64.5184 112.022L60.8554 111.096L60.8105 197H64.4885Z" fill="#DBDBDB"/>
<path d="M56.8339 197V109.655L53.1709 108.729V197H56.8339Z" fill="#DBDBDB"/>
<path d="M49.1341 197L49.2836 107.409L45.6205 106.465L45.4561 197H49.1341Z" fill="#DBDBDB"/>
</svg>
