<svg width="271" height="271" viewBox="0 0 271 271" fill="none" xmlns="http://www.w3.org/2000/svg">
<g clip-path="url(#clip0)">
<path d="M173.356 129.573C144.49 125.271 119.937 131.341 91.0815 127.04C88.7079 135.772 84.0475 141.694 77.7784 146.128C80.398 146.724 86.7417 146.894 88.8593 144.899C86.5904 149.21 84.3305 153.72 80.6344 156.736C83.5364 157.256 86.2976 155.875 88.0463 154.079C84.7468 161.532 75.5569 185.043 73.0329 200.672C74.2335 199.131 77.1167 196.417 78.5537 195.755C75.0654 205.371 73.5334 251.103 70.6782 263.347H193.116C191.962 259.632 186.025 212.944 184.994 207.971C186.356 208.605 189.391 209.552 190.497 209.617C181.279 194.149 179.161 164.977 175.663 157.588C178.952 157.644 180.932 159.025 182.792 159.791C182.357 156.236 180.721 154.581 176.949 151.083C181.212 150.79 185.259 149.92 185.987 146.252C178.925 147.121 173.223 139.746 173.356 129.573Z" fill="#FFFFFD"/>
<path d="M91.7503 136.101C88.3093 142.575 96.4303 160.106 101.877 174.289C102.642 172.284 103.285 170.422 104.496 168.691C104.477 188.715 123.925 191.893 123.858 199.542C125.484 197.585 126.799 191.354 126.468 188.754C128.35 193.405 127.158 198.672 129.994 203.465C130.722 198.19 134.4 195.24 137.832 192.111C137.332 193.415 135.592 195.835 135.828 198.029C142.74 190.058 151.05 190.351 153.489 179.895C154.974 181.19 154.51 187.213 154.167 188.971C160.227 183.667 163.101 178.023 163.792 168.464C165.257 170.469 166.42 174.251 167.271 176.804C170.041 170.743 174.874 148.544 169.276 140.308C164.985 126.694 91.7096 136.12 91.7473 136.101" fill="#E4D0BD"/>
<path d="M98.2084 151.607L172.9 139.186C168.144 174.622 154.217 160.658 151.967 178.309C150.209 176.938 149.046 174.196 148.488 170.575C146.105 178.735 136.433 179.623 136.386 186.932C134.315 184.587 133.067 179.671 133.843 175.17C131.148 178.413 131.584 181.297 132.217 185.655C127.035 183.282 122.818 173.827 121.603 169.431C120.648 172.551 116.819 178.507 113.812 179.406C115.41 169.507 105.775 160.658 98.2122 151.609" fill="#DAC0A4"/>
<path d="M151.154 86.0366C154.785 78.3876 159.994 72.5618 163.625 64.9144C171.303 59.0427 177.381 56.8499 189.096 53.692C203.92 49.6834 210.028 31.1711 216.173 34.9154C221.837 38.3662 226.015 48.7944 219.18 57.824C207.617 73.1054 174.469 88.6269 151.154 86.0366Z" fill="#5A5353"/>
<path d="M163.625 64.9144C171.303 59.0427 177.381 56.8499 189.086 53.692C203.911 49.6834 210.018 31.1711 216.164 34.9154C221.827 38.3662 226.006 48.7944 219.171 57.824C207.617 73.1054 174.469 88.6269 151.154 86.0366C168.059 75.847 207.674 74.3218 217.951 53.3517C221.516 46.0806 220.409 41.439 216.476 38.9902C213.214 36.9577 210.435 43.9156 203.495 51.4796C194.853 60.8893 160.183 80.07 158.708 77.1493C156.486 76.0713 165.846 65.9924 163.625 64.9144Z" fill="#E4D0BD"/>
<path d="M218.244 36.6927C222.621 41.2403 225.269 50.5054 219.076 58.1732C210.472 68.8099 189.285 82.9162 174.989 78.0465C192.102 73.0353 211.198 67.5513 217.856 53.6438C221.394 46.2598 220.295 41.5512 216.4 39.0647C213.163 37.0036 210.406 44.0662 203.523 51.734C199.808 55.8742 191.232 61.8882 182.591 67.117C206.7 51.6399 211.191 32.7399 216.911 35.7653C217.383 36.0323 217.829 36.3425 218.244 36.692" fill="#FFFFFD"/>
<path d="M113.714 79.6634C109.903 72.0603 104.562 66.3324 100.761 58.7309C92.9419 53.0015 86.7872 50.9299 74.9783 48.0098C60.0206 44.3129 53.5068 25.8571 47.4086 29.7527C41.8019 33.336 37.831 43.8876 44.8747 52.8028C56.7965 67.8929 90.3794 82.7633 113.714 79.6634Z" fill="#5A5353"/>
<path d="M100.761 58.7407C92.9419 53.0113 86.7872 50.9404 74.9783 48.0189C60.0206 44.3129 53.5068 25.8571 47.4086 29.7527C41.8019 33.3359 37.831 43.8876 44.8747 52.8028C56.7965 67.8929 90.3794 82.7633 113.714 79.6634C96.5371 69.8027 56.7686 69.1215 46.0182 48.2951C42.2934 41.0685 43.3082 36.3922 47.191 33.8486C50.4242 31.7408 53.3555 38.6709 60.4843 46.1113C69.343 55.3705 104.533 73.8798 105.952 70.9206C108.155 69.7862 98.5583 59.8676 100.758 58.7429" fill="#E4D0BD"/>
<path d="M45.3481 31.5589C41.0573 36.1914 38.607 45.495 45.0266 52.9731C53.941 63.3449 75.6097 76.8557 89.8876 71.6465C72.5482 67.0892 53.1852 62.1163 46.1513 48.4256C42.4168 41.1643 43.4097 36.4466 47.2767 33.8752C50.482 31.7388 53.4224 38.6967 60.5414 46.1665C64.37 50.2036 73.1534 55.9737 81.9744 60.9623C57.3353 46.1567 52.3527 27.4434 46.6707 30.6051C46.2006 30.8803 45.7577 31.1997 45.3481 31.5589Z" fill="#FFFFFD"/>
<path d="M131.101 57.3227C118.422 57.4552 90.6066 66.2288 92.6014 74.0667C96.3548 88.8445 96.0996 101.788 79.488 108.964C81.4829 110.476 85.6608 110.695 88.7246 110.192C84.3382 113.691 83.4778 116.206 82.6648 121.409C83.8745 119.47 85.2927 117.627 87.9402 116.341C83.6667 121.084 82.2583 127.876 85.9732 134.57C85.8979 131.894 86.5122 129.827 87.5149 127.99C87.2311 158.963 123.054 164.579 123.282 172.227C125.2 170.1 126.336 164.049 125.834 161.497C128.331 165.938 127.46 171.537 133.02 176.52C132.774 171.339 138.929 166.716 143.022 163.227C142.456 164.588 141.51 168.229 141.888 170.403C149.19 160.872 165.09 159.568 167.586 149.3C168.002 154.831 166.706 156.296 166.357 158.083C174.45 152.316 180.283 130.486 177.362 120.813C179.556 121.919 180.709 123.111 183.224 126.165C182.486 120.662 181.068 116.285 177.012 112.427C180.52 113.023 184.491 110.811 186.422 108.551C181.675 107.454 176.703 106.802 174.076 102.935C171.703 96.7983 174.171 85.8883 176.176 83.9025C163.146 64.5019 155.12 56.0678 131.105 57.3257" fill="white"/>
<path d="M130.751 57.3227C118.015 57.4552 90.0766 66.2386 92.0715 74.0953C92.7731 76.8256 107.795 81.876 108.135 84.4573C108.995 90.8958 101.611 95.0556 98.586 100.019C93.556 105.844 99.7777 111.847 99.9756 117.132C100.326 126.786 103.237 127.305 108.892 131.636C112.731 142.263 123.102 141.525 122.62 154.431C124.766 152.767 125.857 149.562 126.099 146.641C129.001 151.586 128.472 158.298 132.339 165.084C132.679 158.342 135.638 154.579 138.021 149.209C138.059 152.613 137.255 156.111 138.229 158.106C141.425 150.428 153.328 145.285 156.307 134.044C167.841 124.674 166.291 122.944 165.25 115.485C168.077 113.584 169.675 101.246 167.879 98.608C165.487 92.4623 168.228 81.9393 176.02 83.9439C162.932 64.5079 154.877 56.0648 130.751 57.3227Z" fill="#E4D0BD"/>
<path d="M143.306 86.7171C139.449 85.1852 135.875 90.8107 131.81 90.5743C128.974 90.4139 125.825 85.3463 122.753 86.3587C118.318 87.8146 115.737 92.9011 113.099 97.4773C109.667 100.418 105.668 103.112 104.76 106.242C103.616 110.147 105.951 118.051 107.123 120.206C124.047 121.549 141.085 116.736 158.011 118.079C159.534 112.841 161.264 105.901 155.336 101.367C150.136 97.405 148.746 88.8768 143.309 86.7216" fill="#FFFFFD"/>
<path d="M109.553 93.1933C107.871 91.3867 107.446 86.8113 105.555 84.1547C104.382 82.4986 102.236 81.6209 100.108 82.4986C101.082 82.546 101.773 83.3967 102.367 83.9741C97.2138 83.4471 94.9637 84.4257 93.0441 89.382C92.8838 89.8736 89.1207 90.0527 85.7264 91.9912C87.4947 93.2295 91.1531 92.9555 90.983 94.1373C89.5836 97.5316 91.172 104.774 97.0911 105.294C97.1663 105.852 96.391 107.364 99.3223 112.215C97.6579 104.235 106.404 104.793 108.162 94.4399C108.749 94.1185 108.966 93.5231 109.552 93.1918" fill="#8C8282"/>
<path d="M123.877 75.6077C127.006 79.0306 128.319 84.7223 131.029 89.6289C132.018 88.8968 132.824 87.9455 133.383 86.8497C133.481 87.7701 133.446 88.6997 133.279 89.6101C136.191 87.7854 138.441 85.6106 139.689 82.9352C139.689 83.7008 139.67 84.4671 139.509 85.2041C143.127 82.6702 149.935 75.5602 151.942 70.7282C151.913 73.46 148.253 82.4135 146.098 85.6663C155.109 79.3219 175.323 75.1718 181.109 93.5042C182.659 88.2348 181.45 83.417 178.972 80.0784C181.487 80.5798 183.473 82.1862 185.108 84.6704C186.111 81.2829 184.182 78.5345 181.705 76.8799C184.759 67.1608 180.419 60.1735 174.605 53.7252C162.512 40.3378 143.234 40.8482 141.494 24.0093C139.036 25.6548 136.909 29.6732 139.093 34.2471C128.409 27.999 117.083 28.6599 107.713 35.9032C111.447 35.7052 114.681 36.0357 117.461 36.8584C102.985 39.9501 80.871 54.5194 72.2111 44.5451C72.5762 54.7693 76.1406 62.5229 82.8915 69.2919C78.8543 69.8783 74.1178 72.9052 73.3801 75.4948C75.9238 74.3656 80.2063 73.4901 82.8162 73.2364C75.9516 78.7377 77.805 84.8051 80.5782 92.2004C84.6244 74.3317 98.5801 69.7744 124.731 85.5443C124.448 83.286 124.334 76.7045 123.88 75.6077" fill="white"/>
<path d="M121.948 57.4829C130.873 63.0045 135.781 68.4508 135.128 83.2C145.844 68.018 144.414 55.3563 138.015 46.3742C145.248 50.6853 149.181 61.6713 149.72 70.7574C156.876 61.6149 153.71 42.8293 131.614 40.6538C135.112 44.8995 137.656 50.5716 139.263 54.4673C126.849 40.3798 113.197 46.7807 101.416 50.4964C105.566 50.7802 111.939 54.2309 114.624 55.7056C106.909 55.1786 99.1378 57.7953 89.8056 54.2753C91.3939 57.1968 94.3975 60.8651 99.4306 63.5028C92.9635 63.2853 84.2463 59.3995 78.4409 54.9084C89.0844 76.9008 109.108 61.3032 122.508 75.192C120.294 67.1651 109.667 65.5858 105.119 61.77C111.992 64.5778 124.084 67.0266 128.935 73.5885C129.039 67.0552 126.08 61.2498 121.948 57.4866" fill="#E4D0BD"/>
<path d="M155.219 92.6543C157.006 90.9718 157.703 86.4431 159.748 83.922C161.015 82.3525 163.211 81.6155 165.279 82.6273C164.305 82.6077 163.568 83.4214 162.934 83.9506C168.097 83.7519 170.29 84.8773 171.907 89.9262C172.039 90.4268 175.784 90.8431 179.045 92.9892C177.202 94.1049 173.58 93.6035 173.675 94.7959C174.866 98.2655 172.852 105.357 166.924 105.498C166.82 106.056 167.492 107.598 164.289 112.239C166.427 104.41 157.671 104.41 156.546 94.0017C155.97 93.6253 155.79 93.0186 155.222 92.6588" fill="#8C8282"/>
<path d="M156.042 92.3709C154.623 92.739 154.179 92.654 154.293 93.004C154.567 93.6183 155.196 93.9119 155.949 94.0632C157.434 98.7244 159.154 98.5798 161.925 99.1587C165.972 100 168.572 99.4139 171.758 100.785C172.599 99.8212 173.63 96.6723 172.798 94.6963C175.502 94.5547 177.742 94.0188 179.142 93.0228C170.831 87.4824 160.96 92.3988 156.044 92.3709" fill="#030303"/>
<path d="M168.74 99.4139C170.073 97.7217 170.602 95.3203 169.619 93.5054L170.772 93.552C172.203 95.3964 172.172 97.949 170.971 99.7452L168.74 99.4139Z" fill="white"/>
<path d="M168.267 96.6234C167.853 96.615 167.452 96.77 167.151 97.0549C166.851 97.3397 166.674 97.7315 166.66 98.1455C166.653 98.35 166.687 98.5538 166.76 98.7451C166.832 98.9364 166.942 99.1114 167.083 99.2601C167.223 99.4087 167.392 99.5279 167.579 99.6109C167.766 99.6939 167.968 99.739 168.172 99.7436C168.586 99.7521 168.987 99.5972 169.288 99.3123C169.589 99.0274 169.765 98.6355 169.779 98.2215C169.786 98.017 169.752 97.8132 169.679 97.622C169.607 97.4307 169.497 97.2557 169.356 97.1071C169.216 96.9585 169.047 96.8392 168.86 96.7562C168.673 96.6732 168.472 96.628 168.267 96.6234Z" fill="#FFFFFD"/>
<path d="M108.863 92.3516C110.262 92.8153 110.707 92.749 110.575 93.0893C110.262 93.6847 109.611 93.9309 108.854 94.0446C107.086 98.5921 105.375 98.346 102.567 98.7434C98.4724 99.32 95.9107 98.5823 92.6392 99.7454C91.8548 98.7336 91.0222 95.5298 91.9677 93.6095C89.2735 93.2971 87.0611 92.6165 85.7279 91.5386C96.5438 86.1878 103.644 92.2914 108.863 92.3516Z" fill="#030303"/>
<path d="M96.1283 97.439C94.8486 95.6609 94.4925 93.2234 95.7023 91.4258H94.4639C92.7807 93.2219 92.5917 95.8032 93.7262 97.6656L96.1283 97.439Z" fill="white"/>
<path d="M97.7543 95.5857C97.9584 95.5916 98.1592 95.6382 98.3451 95.7225C98.5311 95.8068 98.6984 95.9272 98.8374 96.0767C98.9763 96.2263 99.0842 96.402 99.1547 96.5936C99.2251 96.7852 99.2568 96.9889 99.2478 97.1929C99.2294 97.6073 99.0484 97.9978 98.744 98.2796C98.4396 98.5614 98.0364 98.7119 97.6218 98.6985C97.4177 98.6925 97.2169 98.646 97.031 98.5617C96.845 98.4774 96.6777 98.3569 96.5387 98.2074C96.3998 98.0578 96.2919 97.8821 96.2214 97.6905C96.151 97.4989 96.1193 97.2952 96.1283 97.0912C96.1478 96.6772 96.3292 96.2875 96.6333 96.0059C96.9374 95.7243 97.34 95.5734 97.7543 95.5857Z" fill="#FFFFFD"/>
<path d="M106.556 87.3598C107.701 87.152 109.041 86.1305 109.648 85.2987C107.871 80.7511 102.258 76.0726 94.9741 73.8398C94.6437 75.1068 94.3034 76.3737 93.9722 77.6406C93.5958 76.7328 93.2066 75.8249 92.828 74.9171C91.8923 76.799 90.2851 77.3568 88.848 80.0232C89.1785 80.5998 89.5097 81.1667 89.8402 81.744C92.6676 80.0044 103.502 82.0745 106.556 87.3598Z" fill="#030303"/>
<path d="M151.362 85.2798C150.208 85.2422 148.743 84.3817 148.034 83.6237C149.163 78.6885 154.037 73.0532 160.902 69.6777C161.402 70.9356 161.913 72.1837 162.414 73.4416C162.66 72.4487 162.915 71.4656 163.161 70.4727C164.343 72.2695 165.997 72.6098 167.794 75.1339C167.548 75.7767 167.303 76.4136 167.056 77.0437C164.031 75.6729 153.64 79.3984 151.362 85.2791" fill="#030303"/>
<path d="M144.338 93.9969C140.037 91.6144 135.517 93.7711 132.67 93.6567C129.701 93.543 124.7 91.3983 120.947 93.1455C117.212 94.895 114.98 100.313 116.077 104.17C112.995 107.148 111.786 108.755 111.378 113.757C111.228 115.601 108.164 115.071 106.812 117.945C105.271 121.217 110.244 126.067 114.65 129.707C120.114 134.224 121.476 139.748 130.032 141.062C139.543 142.518 148.894 134.983 153.13 130.605C157.157 126.436 159.502 121.207 157.948 118.654C155.963 115.402 152.814 117.312 152.426 115.714C151.132 110.486 150.79 108.337 148.286 105.238C149.156 101.504 148.447 96.2756 144.334 93.9969" fill="#5A5353"/>
<path d="M116.077 103.905C112.995 106.903 111.786 108.529 111.378 113.559C111.228 115.421 108.164 114.882 106.812 117.785C105.271 121.075 110.244 125.963 114.65 129.631C120.114 134.179 121.476 139.748 130.032 141.074C139.543 142.549 148.894 134.948 153.13 130.542C157.157 126.343 159.502 121.078 157.948 118.505C155.963 115.235 152.814 117.15 152.426 115.546C151.132 110.281 150.79 108.125 148.286 104.995C148.154 105.647 148.163 109.42 146.046 111.538C143.928 113.655 144.239 121.002 144.911 122.042C145.582 123.082 149.08 128.197 143.597 129.681C138.114 131.166 132.908 127.743 132.525 123.942L131.221 123.498C129.802 127.327 124.102 126.372 121.775 125.219C119.449 124.065 117.662 121.976 119.242 119.981C120.821 117.986 119.185 111.982 117.521 109.836C115.856 107.689 114.912 105.071 116.074 103.908" fill="#8C8282"/>
<path d="M112.674 122.625C113.78 123.665 124.483 132.288 125.608 133.593C126.733 134.898 128.955 137.157 135.053 135.635C141.151 134.112 144.413 131.795 145.529 131.286C146.644 130.776 144.677 131.068 142.995 131.408C141.312 131.749 133.833 132.071 130.268 129.953C126.704 127.834 122.223 128.743 118.091 125.963C113.96 123.183 112.671 122.625 112.671 122.625" fill="#5A5353"/>
<path d="M143.751 93.9597C139.543 91.6336 135.109 93.7339 132.32 93.6285C129.409 93.5246 124.511 91.4259 120.842 93.1271C117.173 94.8284 114.99 100.105 116.068 103.868C118.696 105.485 118.081 93.0421 125.816 95.9922C128.16 96.8902 131.431 100.171 135.301 97.5331C139.366 94.7539 144.567 94.4791 146.353 100.322C147.024 102.497 146.543 105.239 147.62 104.927C148.471 101.268 147.781 96.1811 143.754 93.9597" fill="#8C8282"/>
<path d="M123.934 109.086C120.396 107.016 117.911 106.468 116.512 103.892C118.535 105.414 119.944 105.67 121.631 104.951C123.229 104.273 121.498 101.235 122.775 100.092C124.269 98.7365 126.51 101.642 127.285 103.618C128.296 106.218 129.554 114.68 131.596 114.472C132.324 114.358 132.314 105.288 132.801 103.646C133.396 105.197 132.819 114.472 133.302 114.472C134.918 114.387 136.544 107.636 137.386 104.96C138.123 102.644 140.856 99.07 142.813 100.054C144.319 102.266 142.255 104.819 143.739 105.755C144.591 106.294 144.515 107.173 148.136 104.97C145.507 108.695 141.953 107.901 138.776 110.633C135.788 112.448 133.906 115.824 133.396 118.103C133.084 121.043 132.337 125.213 132.517 126.961C134.455 134.847 153.43 132.578 154.565 119.247C154.158 118.584 152.834 118.453 153.43 118.065C155 117.053 157.316 119.029 157.307 119.823C157.297 120.4 156.598 119.719 156.296 119.974C152.352 135.451 136.913 133.456 131.013 131.811C125.7 130.761 115.451 126.857 111.045 120.314C110.752 120.777 110.705 122.886 110.062 122.168C108.549 120.484 110.649 116.636 114.241 116.221C115.746 116.05 112.66 118.073 112.681 118.931C115.877 125.555 126.882 130.21 130.333 126.863C131.231 125.237 132.025 120.944 131.571 118.07C130.645 114.629 127.478 111.159 123.941 109.079" fill="#030303"/>
<path d="M190.291 95.6963C190.903 95.6963 191.501 95.8776 192.009 96.2173C192.517 96.5571 192.914 97.0399 193.148 97.6048C193.382 98.1698 193.443 98.7914 193.324 99.3911C193.204 99.9908 192.91 100.542 192.478 100.974C192.045 101.406 191.494 101.701 190.895 101.82C190.295 101.94 189.673 101.878 189.108 101.644C188.543 101.41 188.06 101.014 187.721 100.506C187.381 99.9972 187.2 99.3994 187.2 98.788C187.199 98.3818 187.278 97.9794 187.434 97.604C187.589 97.2286 187.816 96.8875 188.104 96.6003C188.391 96.3131 188.732 96.0853 189.107 95.9302C189.483 95.7751 189.885 95.6956 190.291 95.6963Z" fill="#030303"/>
<path d="M192.651 99.2851C192.154 117.732 192.911 132.933 193.52 145.303C194.976 174.744 202.386 187.763 183.673 191.608L183.211 189.729C200.285 186.209 192.956 173.701 191.534 145.389C190.913 132.994 190.157 117.762 190.665 99.2393L192.651 99.2851Z" fill="#030303"/>
<path d="M165.285 74.7077C160.898 75.0578 156.768 76.9181 153.599 79.9716C150.43 83.025 148.417 87.0829 147.904 91.4537C147.391 95.8246 148.409 100.238 150.785 103.943C153.161 107.647 156.748 110.413 160.935 111.77C165.121 113.126 169.649 112.989 173.746 111.382C177.843 109.775 181.256 106.797 183.403 102.956C185.551 99.1147 186.301 94.6476 185.524 90.3157C184.748 85.9839 182.494 82.0551 179.146 79.1988C175.279 75.9197 170.334 74.3027 165.285 74.7077ZM164.936 70.4169C170.316 69.9928 175.677 71.4475 180.106 74.533C184.534 77.6186 187.756 82.1441 189.222 87.3385C190.688 92.533 190.307 98.075 188.145 103.02C185.983 107.966 182.173 112.009 177.365 114.46C172.556 116.911 167.046 117.62 161.774 116.464C156.502 115.309 151.793 112.361 148.451 108.123C145.108 103.885 143.338 98.6199 143.443 93.2236C143.547 87.8273 145.519 82.6341 149.023 78.5288C151.009 76.1938 153.438 74.2749 156.169 72.8827C158.9 71.4905 161.879 70.6524 164.936 70.4169Z" fill="#FFF71A"/>
<path d="M166.732 117.879C160.651 117.862 154.8 115.559 150.339 111.427C145.878 107.295 143.133 101.637 142.651 95.5753C142.15 89.1277 144.173 82.8782 148.372 77.9708C150.432 75.5502 152.95 73.5607 155.782 72.1167C158.613 70.6726 161.702 69.8024 164.871 69.5563C171.318 69.0557 177.568 71.0784 182.475 75.2774C184.896 77.3371 186.885 79.8551 188.33 82.6864C189.774 85.5177 190.644 88.6065 190.89 91.7753C191.391 98.2235 189.368 104.473 185.169 109.38C183.109 111.801 180.591 113.791 177.76 115.235C174.928 116.679 171.84 117.549 168.671 117.795C168.027 117.851 167.375 117.879 166.732 117.879ZM166.817 71.2018C166.215 71.2018 165.626 71.2297 165.021 71.2771C159.235 71.7347 153.85 74.4128 149.994 78.7506C146.139 83.0884 144.11 88.7497 144.334 94.5492C144.558 100.349 147.016 105.837 151.195 109.865C155.373 113.893 160.948 116.148 166.752 116.158C167.354 116.158 167.944 116.13 168.549 116.083C172.98 115.735 177.209 114.08 180.699 111.328C184.19 108.576 186.786 104.85 188.159 100.623C189.532 96.3951 189.621 91.8552 188.414 87.5773C187.207 83.2993 184.758 79.4755 181.377 76.5895C177.255 73.083 172.149 71.2018 166.817 71.2018Z" fill="#030303"/>
</g>
<defs>
<clipPath id="clip0">
<rect width="271" height="271" fill="white"/>
</clipPath>
</defs>
</svg>
