<svg width="287" height="156" viewBox="0 0 287 156" fill="none" xmlns="http://www.w3.org/2000/svg">
<g clip-path="url(#clip0)">
<path fill-rule="evenodd" clip-rule="evenodd" d="M180.333 125.225L95.4456 125.85L79.6606 141.144H180.333H281.005L265.22 125.85L180.333 125.225Z" fill="#ADA698"/>
<path fill-rule="evenodd" clip-rule="evenodd" d="M221.215 141.144H227.517L257.384 133.128L253.58 132.445L221.215 141.144Z" fill="#827865"/>
<path fill-rule="evenodd" clip-rule="evenodd" d="M180.333 125.225L28.7852 125.85L13.0002 141.144H180.333H211.505L243.189 132.672V131.308L187.203 125.281L180.333 125.225Z" fill="#ADA698"/>
<path fill-rule="evenodd" clip-rule="evenodd" d="M180.333 125.225L97.2626 125.566V137.164H197.878V126.419L187.203 125.281L180.333 125.225Z" fill="#549900"/>
<path fill-rule="evenodd" clip-rule="evenodd" d="M226.779 132.672H224.621L228.255 138.926H278.677L276.86 137.163H229.334L226.779 132.672Z" fill="white"/>
<path fill-rule="evenodd" clip-rule="evenodd" d="M229.561 138.927H235.921L242.451 137.164H236.148L229.561 138.927Z" fill="#CBCFD0"/>
<path fill-rule="evenodd" clip-rule="evenodd" d="M229.334 137.164H276.86L265.22 125.85L243.189 125.68L226.779 132.673L229.334 137.164Z" fill="#68BD00"/>
<path fill-rule="evenodd" clip-rule="evenodd" d="M236.148 137.164H242.451L257.384 133.128L253.58 132.445L236.148 137.164Z" fill="#549900"/>
<path fill-rule="evenodd" clip-rule="evenodd" d="M67.2256 132.672H69.3833L65.8061 138.926H15.3282L17.1452 137.163H64.6705L67.2256 132.672Z" fill="#E3E3E3"/>
<path fill-rule="evenodd" clip-rule="evenodd" d="M64.6705 137.164H17.1451L28.7852 125.85L50.816 125.68L67.2256 132.673L64.6705 137.164Z" fill="#68BD00"/>
<path fill-rule="evenodd" clip-rule="evenodd" d="M64.6705 137.164H17.1451L21.1766 133.184L48.0338 125.737L50.816 125.68L67.2256 132.673L64.6705 137.164Z" fill="#549900"/>
<path d="M281.005 141.144H13.0002V155.471H281.005V141.144Z" fill="#524D45"/>
<path fill-rule="evenodd" clip-rule="evenodd" d="M253.58 132.445L254.772 133.127V113.74L253.58 112.66V132.445Z" fill="#975904"/>
<path fill-rule="evenodd" clip-rule="evenodd" d="M254.772 113.74H257.384V133.127H254.772V113.74Z" fill="#C28025"/>
<path fill-rule="evenodd" clip-rule="evenodd" d="M256.305 112.66L257.384 113.74H254.772L253.58 112.66H256.305Z" fill="#F0F0F0"/>
<path fill-rule="evenodd" clip-rule="evenodd" d="M248.469 114.024L253.636 118.686V100.607L248.469 96.002V114.024Z" fill="#549900"/>
<path fill-rule="evenodd" clip-rule="evenodd" d="M253.636 100.607L265.276 100.55V118.686H253.636V100.607Z" fill="#68BD00"/>
<path fill-rule="evenodd" clip-rule="evenodd" d="M260.393 96.002L265.276 100.607H253.636L248.469 96.002H260.393Z" fill="#A2E540"/>
<path fill-rule="evenodd" clip-rule="evenodd" d="M245.971 117.834L248.98 120.506V110.045L245.971 107.373V117.834Z" fill="#549900"/>
<path fill-rule="evenodd" clip-rule="evenodd" d="M248.98 110.045H255.68V120.506H248.98V110.045Z" fill="#68BD00"/>
<path fill-rule="evenodd" clip-rule="evenodd" d="M252.898 107.373L255.68 110.045H248.98L245.971 107.373H252.898Z" fill="#A2E540"/>
<path fill-rule="evenodd" clip-rule="evenodd" d="M36.2234 132.445L37.4158 133.127V113.74L36.2234 112.66V132.445Z" fill="#543D1D"/>
<path fill-rule="evenodd" clip-rule="evenodd" d="M37.4158 113.74H40.0277V133.127H37.4158V113.74Z" fill="#975904"/>
<path fill-rule="evenodd" clip-rule="evenodd" d="M38.9489 112.66L40.0277 113.74H37.4158L36.2234 112.66H38.9489Z" fill="#F0F0F0"/>
<path fill-rule="evenodd" clip-rule="evenodd" d="M31.1132 114.024L36.2803 118.686V100.607L31.1132 96.002V114.024Z" fill="#4D8C00"/>
<path fill-rule="evenodd" clip-rule="evenodd" d="M36.2802 100.607L47.9202 100.55V118.686H36.2802V100.607Z" fill="#549900"/>
<path fill-rule="evenodd" clip-rule="evenodd" d="M43.0371 96.002L47.9203 100.607H36.2803L31.1132 96.002H43.0371Z" fill="#68BD00"/>
<path fill-rule="evenodd" clip-rule="evenodd" d="M28.6149 117.834L31.5675 120.506V110.045L28.6149 107.373V117.834Z" fill="#4D8C00"/>
<path fill-rule="evenodd" clip-rule="evenodd" d="M31.5674 110.045H38.3243V120.506H31.5674V110.045Z" fill="#549900"/>
<path fill-rule="evenodd" clip-rule="evenodd" d="M35.5421 107.373L38.3243 110.045H31.5675L28.6149 107.373H35.5421Z" fill="#68BD00"/>
<path fill-rule="evenodd" clip-rule="evenodd" d="M195.947 132.672H198.162L199.581 138.926H155.236H148.365H145.64H141.268H94.4235L95.843 132.672H98.0575L97.2626 137.163H141.268H143.823H150.182H155.236H196.742L195.947 132.672Z" fill="#E3E3E3"/>
</g>
<g clip-path="url(#clip1)">
<path fill-rule="evenodd" clip-rule="evenodd" d="M22.2301 14.0299L52.5401 6.41992L63.6201 33.6899L42.0801 70.5899L12.7201 73.6999L4.00006 45.2799L22.2301 14.0299Z" fill="#FFF81A"/>
<path fill-rule="evenodd" clip-rule="evenodd" d="M49.0001 10.3301L57.0701 33.5901L38.3401 65.6701L13.9501 69.4201L6.45007 45.6601L24.0701 15.4601L49.0001 10.3301Z" fill="#948A02"/>
<path fill-rule="evenodd" clip-rule="evenodd" d="M62.9601 43.0795L63.6201 33.6895L42.0801 70.5894L49.9301 65.3995L62.9601 43.0795Z" fill="#948A02"/>
<path fill-rule="evenodd" clip-rule="evenodd" d="M63.9901 49.5998L62.9701 43.0898L49.9401 65.3998L56.1101 63.0898L63.9901 49.5998Z" fill="#797100"/>
<path fill-rule="evenodd" clip-rule="evenodd" d="M110.57 85.8196L111.97 82.7896L64.0001 49.5996L56.1201 63.0896L108.62 88.5396L110.57 85.8196Z" fill="#CFC800"/>
<path fill-rule="evenodd" clip-rule="evenodd" d="M57.0701 33.5901L49.0001 10.3301L48.3701 27.4201L53.9901 38.8501L57.0701 33.5901Z" fill="#797100"/>
<path fill-rule="evenodd" clip-rule="evenodd" d="M38.3401 65.6702L13.9501 69.4202L28.9401 60.7202L41.6601 59.9902L38.3401 65.6702Z" fill="#797100"/>
<path fill-rule="evenodd" clip-rule="evenodd" d="M13.9501 69.4202L28.9401 60.7202L26.3901 49.1702L6.45007 45.6602L13.9501 69.4202Z" fill="#F0E809"/>
<path fill-rule="evenodd" clip-rule="evenodd" d="M49.0001 10.3301L48.5301 27.7401L37.4901 31.1301L24.0701 15.4601L49.0001 10.3301Z" fill="#DCD50C"/>
<path fill-rule="evenodd" clip-rule="evenodd" d="M24.0701 15.46L37.4901 31.13L26.3901 49.17L6.45007 45.66L24.0701 15.46Z" fill="white"/>
<path fill-rule="evenodd" clip-rule="evenodd" d="M37.4901 31.1302L48.53 27.7402L52.6501 36.1302L46.2001 41.0502L37.4901 31.1302Z" fill="#948A02"/>
<path fill-rule="evenodd" clip-rule="evenodd" d="M46.2001 41.0499L40.3801 51.0099L26.3901 49.1699L37.4901 31.1299L46.2001 41.0499Z" fill="#F0E809"/>
<path fill-rule="evenodd" clip-rule="evenodd" d="M26.3901 49.1699L40.3801 51.0099L40.2801 60.0699L28.9401 60.7199L26.3901 49.1699Z" fill="#BFB900"/>
<path fill-rule="evenodd" clip-rule="evenodd" d="M56.1201 63.0896L60.0601 56.3496L110.57 85.8196L108.62 88.5396L56.1201 63.0896Z" fill="#948A02"/>
<path fill-rule="evenodd" clip-rule="evenodd" d="M101 111.36L68.1101 92.1698L65.8901 88.5498L98.8401 107.64L101 111.36Z" fill="#948A02"/>
<path d="M97.1919 81.1749L83.9498 103.863L85.7808 104.932L99.0229 82.2436L97.1919 81.1749Z" fill="#948A02"/>
<path d="M86.9916 75.2257L73.7495 97.9141L75.5805 98.9827L88.8225 76.2944L86.9916 75.2257Z" fill="#948A02"/>
<path fill-rule="evenodd" clip-rule="evenodd" d="M110.35 91.4993L113.39 85.9393L80.5101 66.7393L70.3301 72.5593L66.7401 78.7093L63.1501 84.8593L63.0901 96.5793L95.9801 115.779L99.3301 110.389L70.3201 93.4593L70.3501 86.9393L73.0201 82.3693L75.6801 77.8093L81.3401 74.5693L110.35 91.4993Z" fill="#CFC800"/>
<path fill-rule="evenodd" clip-rule="evenodd" d="M70.33 72.5591L63.15 84.8591L60.92 81.2391L68.16 68.8291L70.33 72.5591Z" fill="#F0E809"/>
<path fill-rule="evenodd" clip-rule="evenodd" d="M80.51 66.7395L70.33 72.5595L68.1 68.9295L78.34 63.0195L80.51 66.7395Z" fill="white"/>
<path fill-rule="evenodd" clip-rule="evenodd" d="M113.39 85.9391L80.51 66.7391L78.28 63.1191L111.23 82.2091L113.39 85.9391Z" fill="#F0E809"/>
<path fill-rule="evenodd" clip-rule="evenodd" d="M63.1501 84.8599L63.0901 96.5799L60.8701 92.9599L60.9801 81.1299L63.1501 84.8599Z" fill="#948A02"/>
<path d="M88.1321 76.2857L74.9971 98.8779L79.0907 101.258L92.2257 78.6657L88.1321 76.2857Z" fill="#CFC800"/>
<path d="M99.0231 82.2472L85.7811 104.936L89.8921 107.335L103.134 84.6466L99.0231 82.2472Z" fill="#CFC800"/>
<path fill-rule="evenodd" clip-rule="evenodd" d="M263.25 14.0299L232.94 6.41992L221.86 33.6899L243.4 70.5899L272.76 73.6999L281.48 45.2799L263.25 14.0299Z" fill="#FFF81A"/>
<path fill-rule="evenodd" clip-rule="evenodd" d="M236.48 10.3301L228.41 33.5901L247.14 65.6701L271.53 69.4201L279.03 45.6601L261.4 15.4601L236.48 10.3301Z" fill="#948A02"/>
<path fill-rule="evenodd" clip-rule="evenodd" d="M222.52 43.0795L221.86 33.6895L243.4 70.5894L235.55 65.3995L222.52 43.0795Z" fill="#948A02"/>
<path fill-rule="evenodd" clip-rule="evenodd" d="M221.49 49.5998L222.51 43.0898L235.54 65.3998L229.37 63.0898L221.49 49.5998Z" fill="#797100"/>
<path fill-rule="evenodd" clip-rule="evenodd" d="M174.91 85.8196L173.51 82.7896L221.48 49.5996L229.36 63.0896L176.86 88.5396L174.91 85.8196Z" fill="#CFC800"/>
<path fill-rule="evenodd" clip-rule="evenodd" d="M228.41 33.5901L236.48 10.3301L237.11 27.4201L231.49 38.8501L228.41 33.5901Z" fill="#797100"/>
<path fill-rule="evenodd" clip-rule="evenodd" d="M247.14 65.6702L271.53 69.4202L256.54 60.7202L243.82 59.9902L247.14 65.6702Z" fill="#797100"/>
<path fill-rule="evenodd" clip-rule="evenodd" d="M271.53 69.4202L256.54 60.7202L259.08 49.1702L279.03 45.6602L271.53 69.4202Z" fill="#F0E809"/>
<path fill-rule="evenodd" clip-rule="evenodd" d="M236.48 10.3301L236.95 27.7401L247.99 31.1301L261.4 15.4601L236.48 10.3301Z" fill="#DCD50C"/>
<path fill-rule="evenodd" clip-rule="evenodd" d="M261.4 15.46L247.99 31.13L259.08 49.17L279.03 45.66L261.4 15.46Z" fill="white"/>
<path fill-rule="evenodd" clip-rule="evenodd" d="M247.99 31.1302L236.95 27.7402L232.82 36.1302L239.28 41.0502L247.99 31.1302Z" fill="#948A02"/>
<path fill-rule="evenodd" clip-rule="evenodd" d="M239.28 41.0499L245.1 51.0099L259.08 49.1699L247.99 31.1299L239.28 41.0499Z" fill="#F0E809"/>
<path fill-rule="evenodd" clip-rule="evenodd" d="M259.08 49.1699L245.1 51.0099L245.2 60.0699L256.54 60.7199L259.08 49.1699Z" fill="#BFB900"/>
<path fill-rule="evenodd" clip-rule="evenodd" d="M229.36 63.0896L225.42 56.3496L174.91 85.8196L176.86 88.5396L229.36 63.0896Z" fill="#948A02"/>
<path fill-rule="evenodd" clip-rule="evenodd" d="M184.48 111.36L217.37 92.1698L219.59 88.5498L186.64 107.64L184.48 111.36Z" fill="#948A02"/>
<path d="M188.288 81.1579L186.457 82.2266L199.699 104.915L201.53 103.846L188.288 81.1579Z" fill="#948A02"/>
<path d="M198.488 75.2067L196.657 76.2754L209.899 98.9637L211.73 97.8951L198.488 75.2067Z" fill="#948A02"/>
<path fill-rule="evenodd" clip-rule="evenodd" d="M175.13 91.4993L172.09 85.9393L204.97 66.7393L215.15 72.5593L218.74 78.7093L222.33 84.8593L222.39 96.5793L189.5 115.779L186.15 110.389L215.16 93.4593L215.13 86.9393L212.46 82.3693L209.8 77.8093L204.14 74.5693L175.13 91.4993Z" fill="#CFC800"/>
<path fill-rule="evenodd" clip-rule="evenodd" d="M215.15 72.5591L222.33 84.8591L224.56 81.2391L217.32 68.8291L215.15 72.5591Z" fill="#F0E809"/>
<path fill-rule="evenodd" clip-rule="evenodd" d="M204.97 66.7395L215.15 72.5595L217.38 68.9295L207.14 63.0195L204.97 66.7395Z" fill="white"/>
<path fill-rule="evenodd" clip-rule="evenodd" d="M172.09 85.9391L204.97 66.7391L207.2 63.1191L174.25 82.2091L172.09 85.9391Z" fill="#F0E809"/>
<path fill-rule="evenodd" clip-rule="evenodd" d="M222.33 84.8599L222.39 96.5799L224.61 92.9599L224.5 81.1299L222.33 84.8599Z" fill="#948A02"/>
<path d="M196.665 76.2735L192.554 78.6729L205.796 101.361L209.907 98.9618L196.665 76.2735Z" fill="#CFC800"/>
<path d="M186.47 82.2324L182.359 84.6318L195.601 107.32L199.712 104.921L186.47 82.2324Z" fill="#CFC800"/>
<path fill-rule="evenodd" clip-rule="evenodd" d="M190.24 44.3096L194.88 45.1596V131.13L190.24 131.5V44.3096Z" fill="#665B59"/>
<path fill-rule="evenodd" clip-rule="evenodd" d="M95.5301 44.3096L90.8901 45.1596V131.13L95.5301 131.5V44.3096Z" fill="#665B59"/>
<path fill-rule="evenodd" clip-rule="evenodd" d="M128.3 42.7998H157.43V143.92H128.3V42.7998Z" fill="#CF002D"/>
<path fill-rule="evenodd" clip-rule="evenodd" d="M128.3 42.7998L106.87 46.0998V142.34L128.3 143.92V42.7998Z" fill="#AD0025"/>
<path fill-rule="evenodd" clip-rule="evenodd" d="M128.3 42.7998L106.87 46.0998V127.56L128.3 116.57V42.7998Z" fill="#8F001F"/>
<path fill-rule="evenodd" clip-rule="evenodd" d="M106.87 46.0996L93.4101 54.2296V139.17L106.87 142.34V46.0996Z" fill="#AD0025"/>
<path fill-rule="evenodd" clip-rule="evenodd" d="M106.77 46.1602L102.13 48.9602V141.22L106.77 142.31V46.1602Z" fill="#8F001F"/>
<path fill-rule="evenodd" clip-rule="evenodd" d="M157.43 42.7998L178.86 46.0998V142.34L157.43 143.92V42.7998Z" fill="#F00034"/>
<path fill-rule="evenodd" clip-rule="evenodd" d="M160.98 43.3496L168.14 44.4496V143.13L160.98 143.66V43.3496Z" fill="#CF002D"/>
<path fill-rule="evenodd" clip-rule="evenodd" d="M157.43 42.7998L178.86 46.0998V77.5498L157.43 97.2698V42.7998Z" fill="#CF002D"/>
<path fill-rule="evenodd" clip-rule="evenodd" d="M160.98 43.3496L168.14 44.4496V87.4096L160.98 93.9996V43.3496Z" fill="#AD0025"/>
<path fill-rule="evenodd" clip-rule="evenodd" d="M178.86 46.0996L192.32 54.2296V139.17L178.86 142.34V46.0996Z" fill="#FC194A"/>
<path fill-rule="evenodd" clip-rule="evenodd" d="M178.86 46.0996L192.32 54.2296L178.86 77.5496V46.0996Z" fill="#CF002D"/>
<path fill-rule="evenodd" clip-rule="evenodd" d="M128.3 42.8002H142.86H157.43L159.21 39.9102H142.86H126.52L128.3 42.8002Z" fill="#8F001F"/>
<path fill-rule="evenodd" clip-rule="evenodd" d="M106.87 46.1002L128.3 42.8002L126.52 39.9102L103.57 44.1702L106.87 46.1002Z" fill="#8F001F"/>
<path fill-rule="evenodd" clip-rule="evenodd" d="M103.57 44.1699L106.87 46.0999L93.4101 54.2299V55.7799L88.3901 54.2699L103.57 44.1699Z" fill="#8F001F"/>
<path fill-rule="evenodd" clip-rule="evenodd" d="M126.52 39.9098H159.21V30.0898H126.52V39.9098Z" fill="#B8A39E"/>
<path fill-rule="evenodd" clip-rule="evenodd" d="M126.52 39.9098L103.57 44.1698V34.3498L126.52 30.0898V39.9098Z" fill="#998782"/>
<path fill-rule="evenodd" clip-rule="evenodd" d="M103.57 44.1696L88.3901 54.2696V44.4496L103.57 34.3496V44.1696Z" fill="#665B59"/>
<path fill-rule="evenodd" clip-rule="evenodd" d="M159.21 39.9098L182.16 44.1698V34.3498L159.21 30.0898V39.9098Z" fill="#F5ECD2"/>
<path fill-rule="evenodd" clip-rule="evenodd" d="M182.16 44.1696L197.34 54.2696V44.4496L182.16 34.3496V44.1696Z" fill="#DECBBC"/>
<path fill-rule="evenodd" clip-rule="evenodd" d="M178.86 46.1002L157.43 42.8002L159.21 39.9102L182.16 44.1702L178.86 46.1002Z" fill="#8F001F"/>
<path fill-rule="evenodd" clip-rule="evenodd" d="M182.16 44.1699L178.86 46.0999L192.32 54.2299V55.7799L197.34 54.2699L182.16 44.1699Z" fill="#8F001F"/>
<path fill-rule="evenodd" clip-rule="evenodd" d="M126.52 145H159.21V135.18H126.52V145Z" fill="#B8A39E"/>
<path fill-rule="evenodd" clip-rule="evenodd" d="M159.21 135.18L182.16 133.19V143.01L159.21 145V135.18Z" fill="#F5ECD2"/>
<path fill-rule="evenodd" clip-rule="evenodd" d="M182.16 133.19L197.34 130.23V140.06L182.16 143.01V133.19Z" fill="#DECBBC"/>
<path fill-rule="evenodd" clip-rule="evenodd" d="M126.52 135.18L103.57 133.19V143.01L126.52 145V135.18Z" fill="#998782"/>
<path fill-rule="evenodd" clip-rule="evenodd" d="M103.57 133.19L88.3901 130.23V140.06L103.57 143.01V133.19Z" fill="#665B59"/>
<path fill-rule="evenodd" clip-rule="evenodd" d="M192.32 130.14V129.24L197.34 130.23L182.16 133.19L159.21 135.18H142.86L143.19 133.96H159.25L181.98 132.2L192.32 130.14Z" fill="#FC194A"/>
<path fill-rule="evenodd" clip-rule="evenodd" d="M93.4101 130.14V129.24L88.3901 130.23L103.57 133.19L126.52 135.18H146.5L157.43 133.96H126.48L103.75 132.2L93.4101 130.14Z" fill="#CF002D"/>
<path fill-rule="evenodd" clip-rule="evenodd" d="M114.05 31.3496H118.7V144.46H114.05V31.3496Z" fill="#B8A39E"/>
<path fill-rule="evenodd" clip-rule="evenodd" d="M114.05 31.3496L109.41 32.4496V143.97L114.05 144.46V31.3496Z" fill="#665B59"/>
<path fill-rule="evenodd" clip-rule="evenodd" d="M171.4 31.3496H166.75V144.46H171.4V31.3496Z" fill="#B8A39E"/>
<path fill-rule="evenodd" clip-rule="evenodd" d="M171.4 31.3496L176.04 32.4496V143.97L171.4 144.46V31.3496Z" fill="#F5ECD2"/>
<path fill-rule="evenodd" clip-rule="evenodd" d="M157.43 42.7998V97.2698L128.3 116.57V42.7998H157.43Z" fill="#AD0025"/>
<path fill-rule="evenodd" clip-rule="evenodd" d="M116.8 70.9102H167.71V96.1002H116.8V70.9102Z" fill="#027ABA"/>
<path fill-rule="evenodd" clip-rule="evenodd" d="M116.8 70.9102L79.3301 71.7302V95.7102L116.8 96.1002V70.9102Z" fill="#1863AF"/>
<path fill-rule="evenodd" clip-rule="evenodd" d="M79.3301 71.7305L55.8 73.7605V94.9205L79.3301 95.7105V71.7305Z" fill="#044687"/>
<path fill-rule="evenodd" clip-rule="evenodd" d="M131.98 90.1904H143.94V126.75H131.98V90.1904Z" fill="#1863AF"/>
<path fill-rule="evenodd" clip-rule="evenodd" d="M143.94 91.0601V119.26L141.74 120.57H138.51V96.1001L131.98 98.5201V90.6201L143.94 91.0601Z" fill="#044687"/>
<path fill-rule="evenodd" clip-rule="evenodd" d="M140.5 82.71H153.83V119.26H140.5V82.71Z" fill="#1F93D1"/>
<path fill-rule="evenodd" clip-rule="evenodd" d="M167.71 70.9102L205.17 71.7302V95.7102L167.71 96.1002V70.9102Z" fill="#1F93D1"/>
<path fill-rule="evenodd" clip-rule="evenodd" d="M205.17 71.7305L228.7 73.7605V94.9205L205.17 95.7105V71.7305Z" fill="#3AB5E8"/>
<path fill-rule="evenodd" clip-rule="evenodd" d="M81.8401 5.50977L70.5701 6.87977L71.9401 14.8498L82.6601 12.6498L81.8401 5.50977Z" fill="#3AB5E8"/>
<path fill-rule="evenodd" clip-rule="evenodd" d="M81.4601 28.21L78.3201 21.29L73.5101 23.77L77.0601 30.17L81.4601 28.21Z" fill="#3AB5E8"/>
<path fill-rule="evenodd" clip-rule="evenodd" d="M97.2101 8.92L94.0701 2L89.2501 4.48L92.8101 10.88L97.2101 8.92Z" fill="#F0E809"/>
<path fill-rule="evenodd" clip-rule="evenodd" d="M65.76 12.7296L62.62 5.80957L57.8 8.28957L61.3601 14.6896L65.76 12.7296Z" fill="#FC194A"/>
<path fill-rule="evenodd" clip-rule="evenodd" d="M39.93 99.55L28.67 98.18L30.04 90.21L40.76 92.41L39.93 99.55Z" fill="#F00034"/>
<path fill-rule="evenodd" clip-rule="evenodd" d="M216.33 33.89L213.19 26.96L208.37 29.44L211.93 35.85L216.33 33.89Z" fill="#F00034"/>
<path fill-rule="evenodd" clip-rule="evenodd" d="M222.52 7.23047L211.25 8.60047L212.63 16.5705L223.34 14.3705L222.52 7.23047Z" fill="#1F93D1"/>
<path fill-rule="evenodd" clip-rule="evenodd" d="M202.7 30.2501L198.22 20.3701L191.34 23.9101L196.42 33.0501L202.7 30.2501Z" fill="#CFC800"/>
<path fill-rule="evenodd" clip-rule="evenodd" d="M208.08 18.4398L205.63 13.0498L201.88 14.9798L204.65 19.9698L208.08 18.4398Z" fill="#F00034"/>
<path fill-rule="evenodd" clip-rule="evenodd" d="M43.2301 84.4395L40.0801 77.5195L35.2701 79.9995L38.8301 86.4095L43.2301 84.4395Z" fill="#3AB5E8"/>
<path fill-rule="evenodd" clip-rule="evenodd" d="M251.51 91.4396L240.25 90.0696L241.62 82.0996L252.33 84.2996L251.51 91.4396Z" fill="#3AB5E8"/>
<path fill-rule="evenodd" clip-rule="evenodd" d="M240.63 103.38L236.04 97.0898L240.69 94.0498L244.6 100.45L240.63 103.38Z" fill="#CFC800"/>
<path fill-rule="evenodd" clip-rule="evenodd" d="M137 74H147.51V93.01H137V74Z" fill="#1F93D1"/>
<path fill-rule="evenodd" clip-rule="evenodd" d="M166.75 64.5L147.51 74V93.01L166.75 102.51V64.5Z" fill="#1863AF"/>
<path fill-rule="evenodd" clip-rule="evenodd" d="M166.75 64.5L170.32 74V93.01L166.75 102.51V64.5Z" fill="#3AB5E8"/>
<path fill-rule="evenodd" clip-rule="evenodd" d="M117.75 64.5L137 74V93.01L117.75 102.51V64.5Z" fill="#3AB5E8"/>
<path fill-rule="evenodd" clip-rule="evenodd" d="M117.75 64.5L114.19 74V93.01L117.75 102.51V64.5Z" fill="#044687"/>
<path fill-rule="evenodd" clip-rule="evenodd" d="M153.83 96.0998V97.2798L145.86 96.0998H140.5V93.0098H147.51L153.83 96.0998Z" fill="#1863AF"/>
</g>
<defs>
<clipPath id="clip0">
<rect x="13.0002" y="96.002" width="268.004" height="59.4684" fill="white"/>
</clipPath>
<clipPath id="clip1">
<rect x="4.00006" y="2" width="277.48" height="143" fill="white"/>
</clipPath>
</defs>
</svg>
