<svg width="322" height="90" viewBox="0 0 322 90" fill="none" xmlns="http://www.w3.org/2000/svg">
<mask id="path-1-outside-1" maskUnits="userSpaceOnUse" x="0" y="0.000488281" width="322" height="67" fill="black">
<rect fill="white" y="0.000488281" width="322" height="67"/>
<path d="M31.4462 5.61115H44.4657V48.0967C44.4657 50.7507 44.0609 53.1347 43.2739 55.2489C42.5319 57.2506 41.3851 59.0724 39.856 60.5793C38.3719 62.0187 36.5955 63.1433 34.4818 63.9079C32.3681 64.6502 29.9621 65.0325 27.3088 65.0325H24.1607C21.5298 65.0325 19.1688 64.6502 17.0326 63.9079C15.0089 63.1882 13.1875 62.0412 11.6359 60.5793C10.1294 59.0724 8.98257 57.2506 8.26302 55.2489C7.45352 53.1347 7.07125 50.7507 7.07125 48.0967V5.61115H20.0907V48.1192C20.0907 49.986 20.4955 51.2905 21.2825 52.0102C22.0695 52.6849 23.3737 53.0223 25.2176 53.0223H26.2969C28.1407 53.0223 29.4449 52.6849 30.187 52.0102C31.019 51.2905 31.4237 49.986 31.4237 48.1192L31.4462 5.61115ZM83.9738 34.917C85.0756 34.917 85.9526 34.827 86.6047 34.6246C87.2793 34.4222 87.7964 34.1073 88.1787 33.6575C88.5385 33.2077 88.7858 32.6229 88.9207 31.9032C89.0557 31.0485 89.1231 30.1714 89.1006 29.2717V23.2666C89.1231 22.3895 89.0557 21.5123 88.9207 20.6352C88.7633 19.9155 88.516 19.3307 88.1787 18.8809C87.7964 18.431 87.2793 18.1162 86.6047 17.9138C85.9526 17.7113 85.0756 17.6214 83.9738 17.6214H77.7901V34.917H83.9738ZM64.7706 64.2003V5.61115H85.0306C90.5847 5.61115 94.8346 7.16303 97.7803 10.2893C100.681 13.3706 102.12 17.6888 102.12 23.2666V29.2492C102.12 34.827 100.681 39.1453 97.7803 42.2041C94.8346 45.3303 90.5847 46.8822 85.0306 46.8822H77.7901V64.2003H64.7706ZM132.679 52.2126H151.994V64.2003H119.659V5.61115H132.679V52.2126ZM185.251 42.429H191.93L188.579 24.841L185.251 42.429ZM194.92 54.4167H182.238L179.81 64.2003H166.408L182.418 5.61115H194.763L210.751 64.2003H197.394L194.92 54.4167ZM250.304 33.8149V5.61115H263.323V64.2003H250.798L238.948 35.9966V64.2003H225.929V5.61115H238.453L250.304 33.8149ZM283.628 5.61115H302.314C308.205 5.61115 312.748 6.93812 315.896 9.56958C319.291 12.4259 321 16.7442 321 22.5244V47.2421C321 53.0448 319.291 57.3631 315.896 60.1969C312.748 62.8509 308.228 64.1553 302.314 64.1553H283.651L283.628 5.61115ZM296.648 17.5989V52.2126H302.314C303.146 52.2351 304 52.1676 304.832 52.0327C305.575 51.8977 306.182 51.6728 306.631 51.3579C307.104 50.9531 307.441 50.4358 307.643 49.851C307.868 49.1988 307.981 48.3441 307.981 47.3096V22.5019C307.981 21.4448 307.868 20.6127 307.643 19.9604C307.441 19.3757 307.104 18.8584 306.631 18.4535C306.182 18.1387 305.575 17.9138 304.832 17.7788C304 17.6439 303.169 17.5764 302.314 17.5989H296.648ZM44.4657 5.61115L37.5624 1.00049H25.3974L31.4687 5.61115H44.4657ZM20.0907 5.61115L14.0195 1.00049H1L7.07125 5.61115H20.0907ZM132.679 5.61115L126.607 1.00049H113.588L119.659 5.61115H132.679ZM119.659 64.2003L113.588 59.6122H123.122L119.659 64.2003ZM151.994 52.2126L145.923 47.6019H132.656V52.2126H151.994ZM64.7706 64.2003L58.6994 59.6122L71.539 59.5222L64.7706 64.2003ZM166.408 64.2003L160.359 59.6122L173.783 59.5222L166.408 64.2003ZM197.394 64.2003L191.323 59.5897L204.634 59.4997L197.394 64.2003ZM194.763 5.61115L188.714 1.00049H176.369L182.418 5.61115H194.763ZM225.929 64.2003L219.88 59.6122L232.899 59.5222L225.929 64.2003ZM225.929 5.61115L219.857 1.00049H232.382L238.453 5.61115H225.929ZM250.304 5.61115L244.232 1.00049H257.252L263.323 5.61115H250.304ZM250.798 64.2003L244.727 59.6122L257.252 59.5222L250.798 64.2003ZM283.628 64.2003L277.579 59.6122H293.612L283.628 64.2003ZM90.4273 4.50909L96.0488 8.78239L89.1231 5.94852L90.4273 4.50909ZM13.165 61.8388L5.857 56.216H12.2206L13.165 61.8388ZM309.375 4.62155L314.389 8.49001L309.375 6.39834"/>
</mask>
<path d="M31.4462 5.61115H44.4657V48.0967C44.4657 50.7507 44.0609 53.1347 43.2739 55.2489C42.5319 57.2506 41.3851 59.0724 39.856 60.5793C38.3719 62.0187 36.5955 63.1433 34.4818 63.9079C32.3681 64.6502 29.9621 65.0325 27.3088 65.0325H24.1607C21.5298 65.0325 19.1688 64.6502 17.0326 63.9079C15.0089 63.1882 13.1875 62.0412 11.6359 60.5793C10.1294 59.0724 8.98257 57.2506 8.26302 55.2489C7.45352 53.1347 7.07125 50.7507 7.07125 48.0967V5.61115H20.0907V48.1192C20.0907 49.986 20.4955 51.2905 21.2825 52.0102C22.0695 52.6849 23.3737 53.0223 25.2176 53.0223H26.2969C28.1407 53.0223 29.4449 52.6849 30.187 52.0102C31.019 51.2905 31.4237 49.986 31.4237 48.1192L31.4462 5.61115ZM83.9738 34.917C85.0756 34.917 85.9526 34.827 86.6047 34.6246C87.2793 34.4222 87.7964 34.1073 88.1787 33.6575C88.5385 33.2077 88.7858 32.6229 88.9207 31.9032C89.0557 31.0485 89.1231 30.1714 89.1006 29.2717V23.2666C89.1231 22.3895 89.0557 21.5123 88.9207 20.6352C88.7633 19.9155 88.516 19.3307 88.1787 18.8809C87.7964 18.431 87.2793 18.1162 86.6047 17.9138C85.9526 17.7113 85.0756 17.6214 83.9738 17.6214H77.7901V34.917H83.9738ZM64.7706 64.2003V5.61115H85.0306C90.5847 5.61115 94.8346 7.16303 97.7803 10.2893C100.681 13.3706 102.12 17.6888 102.12 23.2666V29.2492C102.12 34.827 100.681 39.1453 97.7803 42.2041C94.8346 45.3303 90.5847 46.8822 85.0306 46.8822H77.7901V64.2003H64.7706ZM132.679 52.2126H151.994V64.2003H119.659V5.61115H132.679V52.2126ZM185.251 42.429H191.93L188.579 24.841L185.251 42.429ZM194.92 54.4167H182.238L179.81 64.2003H166.408L182.418 5.61115H194.763L210.751 64.2003H197.394L194.92 54.4167ZM250.304 33.8149V5.61115H263.323V64.2003H250.798L238.948 35.9966V64.2003H225.929V5.61115H238.453L250.304 33.8149ZM283.628 5.61115H302.314C308.205 5.61115 312.748 6.93812 315.896 9.56958C319.291 12.4259 321 16.7442 321 22.5244V47.2421C321 53.0448 319.291 57.3631 315.896 60.1969C312.748 62.8509 308.228 64.1553 302.314 64.1553H283.651L283.628 5.61115ZM296.648 17.5989V52.2126H302.314C303.146 52.2351 304 52.1676 304.832 52.0327C305.575 51.8977 306.182 51.6728 306.631 51.3579C307.104 50.9531 307.441 50.4358 307.643 49.851C307.868 49.1988 307.981 48.3441 307.981 47.3096V22.5019C307.981 21.4448 307.868 20.6127 307.643 19.9604C307.441 19.3757 307.104 18.8584 306.631 18.4535C306.182 18.1387 305.575 17.9138 304.832 17.7788C304 17.6439 303.169 17.5764 302.314 17.5989H296.648ZM44.4657 5.61115L37.5624 1.00049H25.3974L31.4687 5.61115H44.4657ZM20.0907 5.61115L14.0195 1.00049H1L7.07125 5.61115H20.0907ZM132.679 5.61115L126.607 1.00049H113.588L119.659 5.61115H132.679ZM119.659 64.2003L113.588 59.6122H123.122L119.659 64.2003ZM151.994 52.2126L145.923 47.6019H132.656V52.2126H151.994ZM64.7706 64.2003L58.6994 59.6122L71.539 59.5222L64.7706 64.2003ZM166.408 64.2003L160.359 59.6122L173.783 59.5222L166.408 64.2003ZM197.394 64.2003L191.323 59.5897L204.634 59.4997L197.394 64.2003ZM194.763 5.61115L188.714 1.00049H176.369L182.418 5.61115H194.763ZM225.929 64.2003L219.88 59.6122L232.899 59.5222L225.929 64.2003ZM225.929 5.61115L219.857 1.00049H232.382L238.453 5.61115H225.929ZM250.304 5.61115L244.232 1.00049H257.252L263.323 5.61115H250.304ZM250.798 64.2003L244.727 59.6122L257.252 59.5222L250.798 64.2003ZM283.628 64.2003L277.579 59.6122H293.612L283.628 64.2003ZM90.4273 4.50909L96.0488 8.78239L89.1231 5.94852L90.4273 4.50909ZM13.165 61.8388L5.857 56.216H12.2206L13.165 61.8388ZM309.375 4.62155L314.389 8.49001L309.375 6.39834" fill="#232323"/>
<path d="M31.4462 5.61115V4.61115C30.8941 4.61115 30.4465 5.05855 30.4462 5.61062L31.4462 5.61115ZM44.4657 5.61115H45.4657C45.4657 5.05887 45.018 4.61115 44.4657 4.61115V5.61115ZM43.2739 55.2489L42.3367 54.9L42.3363 54.9013L43.2739 55.2489ZM39.856 60.5793L40.5523 61.2971L40.5579 61.2915L39.856 60.5793ZM34.4818 63.9079L34.8132 64.8515L34.822 64.8483L34.4818 63.9079ZM17.0326 63.9079L16.6975 64.8502L16.7044 64.8526L17.0326 63.9079ZM11.6359 60.5793L10.9288 61.2863C10.9358 61.2933 10.9429 61.3003 10.9502 61.3071L11.6359 60.5793ZM8.26302 55.2489L9.20406 54.9106C9.20174 54.9042 9.19935 54.8977 9.1969 54.8913L8.26302 55.2489ZM7.07125 5.61115V4.61115C6.51897 4.61115 6.07125 5.05887 6.07125 5.61115H7.07125ZM20.0907 5.61115H21.0907C21.0907 5.05887 20.643 4.61115 20.0907 4.61115V5.61115ZM21.2825 52.0102L20.6076 52.7481C20.6155 52.7553 20.6235 52.7624 20.6316 52.7694L21.2825 52.0102ZM30.187 52.0102L29.5328 51.2539C29.5265 51.2593 29.5203 51.2648 29.5142 51.2703L30.187 52.0102ZM31.4237 48.1192L30.4237 48.1187V48.1192H31.4237ZM86.6047 34.6246L86.3173 33.6668L86.3082 33.6696L86.6047 34.6246ZM88.1787 33.6575L88.9407 34.3051C88.9471 34.2975 88.9534 34.2898 88.9596 34.2821L88.1787 33.6575ZM88.9207 31.9032L89.9036 32.0874C89.9054 32.078 89.907 32.0686 89.9085 32.0591L88.9207 31.9032ZM89.1006 29.2717H88.1006C88.1006 29.2801 88.1007 29.2884 88.1009 29.2967L89.1006 29.2717ZM89.1006 23.2666L88.101 23.241C88.1007 23.2495 88.1006 23.2581 88.1006 23.2666H89.1006ZM88.9207 20.6352L89.9091 20.4831C89.9059 20.4625 89.9021 20.4419 89.8976 20.4215L88.9207 20.6352ZM88.1787 18.8809L88.9788 18.281C88.9666 18.2647 88.9539 18.2488 88.9407 18.2333L88.1787 18.8809ZM86.6047 17.9138L86.3082 18.8688L86.3173 18.8716L86.6047 17.9138ZM77.7901 17.6214V16.6214C77.2378 16.6214 76.7901 17.0691 76.7901 17.6214H77.7901ZM77.7901 34.917H76.7901C76.7901 35.4693 77.2378 35.917 77.7901 35.917V34.917ZM64.7706 64.2003H63.7706C63.7706 64.7526 64.2184 65.2003 64.7706 65.2003V64.2003ZM64.7706 5.61115V4.61115C64.2184 4.61115 63.7706 5.05887 63.7706 5.61115H64.7706ZM97.7803 10.2893L98.5084 9.60384L98.5081 9.60352L97.7803 10.2893ZM97.7803 42.2041L97.0547 41.516L97.0525 41.5183L97.7803 42.2041ZM77.7901 46.8822V45.8822C77.2378 45.8822 76.7901 46.3299 76.7901 46.8822H77.7901ZM77.7901 64.2003V65.2003C78.3424 65.2003 78.7901 64.7526 78.7901 64.2003H77.7901ZM132.679 52.2126H131.679C131.679 52.7649 132.126 53.2126 132.679 53.2126V52.2126ZM151.994 52.2126H152.994C152.994 51.6603 152.547 51.2126 151.994 51.2126V52.2126ZM151.994 64.2003V65.2003C152.547 65.2003 152.994 64.7526 152.994 64.2003H151.994ZM119.659 64.2003H118.659C118.659 64.7526 119.107 65.2003 119.659 65.2003V64.2003ZM119.659 5.61115V4.61115C119.107 4.61115 118.659 5.05887 118.659 5.61115H119.659ZM132.679 5.61115H133.679C133.679 5.05887 133.231 4.61115 132.679 4.61115V5.61115ZM185.251 42.429L184.269 42.2431C184.213 42.5357 184.291 42.8377 184.481 43.067C184.671 43.2963 184.954 43.429 185.251 43.429V42.429ZM191.93 42.429V43.429C192.228 43.429 192.51 43.2961 192.7 43.0665C192.89 42.8369 192.968 42.5346 192.912 42.2419L191.93 42.429ZM188.579 24.841L189.562 24.6539C189.472 24.182 189.059 23.8407 188.579 23.841C188.098 23.8413 187.686 24.1831 187.597 24.6551L188.579 24.841ZM194.92 54.4167L195.89 54.1716C195.778 53.7277 195.378 53.4167 194.92 53.4167V54.4167ZM182.238 54.4167V53.4167C181.779 53.4167 181.378 53.7299 181.268 54.1758L182.238 54.4167ZM179.81 64.2003V65.2003C180.269 65.2003 180.669 64.8872 180.78 64.4412L179.81 64.2003ZM166.408 64.2003L165.443 63.9367C165.361 64.2375 165.424 64.5593 165.613 64.8071C165.802 65.0549 166.096 65.2003 166.408 65.2003V64.2003ZM182.418 5.61115V4.61115C181.967 4.61115 181.572 4.91273 181.453 5.34756L182.418 5.61115ZM194.763 5.61115L195.728 5.3479C195.609 4.91291 195.214 4.61115 194.763 4.61115V5.61115ZM210.751 64.2003V65.2003C211.062 65.2003 211.356 65.055 211.545 64.8073C211.734 64.5595 211.797 64.2378 211.715 63.9371L210.751 64.2003ZM197.394 64.2003L196.424 64.4454C196.537 64.8893 196.936 65.2003 197.394 65.2003V64.2003ZM250.304 33.8149L249.382 34.2023C249.566 34.6412 250.034 34.8893 250.501 34.7952C250.968 34.7011 251.304 34.291 251.304 33.8149H250.304ZM250.304 5.61115V4.61115C249.751 4.61115 249.304 5.05887 249.304 5.61115H250.304ZM263.323 5.61115H264.323C264.323 5.05887 263.875 4.61115 263.323 4.61115V5.61115ZM263.323 64.2003V65.2003C263.875 65.2003 264.323 64.7526 264.323 64.2003H263.323ZM250.798 64.2003L249.876 64.5877C250.032 64.9589 250.396 65.2003 250.798 65.2003V64.2003ZM238.948 35.9966L239.87 35.6092C239.686 35.1702 239.217 34.9222 238.751 35.0163C238.284 35.1103 237.948 35.5204 237.948 35.9966H238.948ZM238.948 64.2003V65.2003C239.5 65.2003 239.948 64.7526 239.948 64.2003H238.948ZM225.929 64.2003H224.929C224.929 64.7526 225.376 65.2003 225.929 65.2003V64.2003ZM225.929 5.61115V4.61115C225.376 4.61115 224.929 5.05887 224.929 5.61115H225.929ZM238.453 5.61115L239.375 5.22379C239.219 4.85261 238.856 4.61115 238.453 4.61115V5.61115ZM283.628 5.61115V4.61115C283.363 4.61115 283.108 4.71656 282.921 4.90418C282.733 5.0918 282.628 5.34625 282.628 5.61154L283.628 5.61115ZM315.896 9.56958L316.539 8.80434L316.537 8.80232L315.896 9.56958ZM315.896 60.1969L315.255 59.4292L315.251 59.4324L315.896 60.1969ZM283.651 64.1553L282.651 64.1557C282.651 64.7079 283.098 65.1553 283.651 65.1553V64.1553ZM296.648 17.5989V16.5989C296.095 16.5989 295.648 17.0466 295.648 17.5989H296.648ZM296.648 52.2126H295.648C295.648 52.7649 296.095 53.2126 296.648 53.2126V52.2126ZM302.314 52.2126L302.341 51.213C302.332 51.2127 302.323 51.2126 302.314 51.2126V52.2126ZM304.832 52.0327L304.993 53.0198C304.999 53.0188 305.005 53.0177 305.011 53.0165L304.832 52.0327ZM306.631 51.3579L307.205 52.1771C307.232 52.1584 307.257 52.1384 307.282 52.1171L306.631 51.3579ZM307.643 49.851L308.588 50.1781L308.589 50.177L307.643 49.851ZM307.643 19.9604L308.589 19.6345L308.588 19.6334L307.643 19.9604ZM306.631 18.4535L307.282 17.6944C307.257 17.6731 307.232 17.6531 307.205 17.6344L306.631 18.4535ZM304.832 17.7788L305.011 16.7949C305.005 16.7938 304.999 16.7927 304.993 16.7917L304.832 17.7788ZM302.314 17.5989V18.5989C302.323 18.5989 302.332 18.5988 302.34 18.5985L302.314 17.5989ZM44.4657 5.61115V6.61115C44.9062 6.61115 45.2948 6.3229 45.4226 5.90134C45.5505 5.47979 45.3874 5.02424 45.0211 4.77958L44.4657 5.61115ZM37.5624 1.00049L38.1178 0.168911C37.9534 0.0590982 37.7602 0.000488281 37.5624 0.000488281V1.00049ZM25.3974 1.00049V0.000488281C24.9681 0.000488281 24.5867 0.274529 24.4497 0.681413C24.3127 1.0883 24.4507 1.53722 24.7926 1.79687L25.3974 1.00049ZM31.4687 5.61115L30.8639 6.40754C31.0379 6.53964 31.2503 6.61115 31.4687 6.61115V5.61115ZM20.0907 5.61115V6.61115C20.52 6.61115 20.9015 6.33711 21.0384 5.93023C21.1754 5.52334 21.0374 5.07442 20.6955 4.81477L20.0907 5.61115ZM14.0195 1.00049L14.6243 0.204106C14.4503 0.0720037 14.2379 0.000488281 14.0195 0.000488281V1.00049ZM1 1.00049V0.000488281C0.570674 0.000488281 0.189257 0.274529 0.0522705 0.681413C-0.0847164 1.0883 0.0532994 1.53722 0.395207 1.79687L1 1.00049ZM7.07125 5.61115L6.46646 6.40754C6.64041 6.53964 6.85283 6.61115 7.07125 6.61115V5.61115ZM132.679 5.61115V6.61115C133.108 6.61115 133.489 6.33711 133.626 5.93023C133.763 5.52334 133.625 5.07442 133.284 4.81477L132.679 5.61115ZM126.607 1.00049L127.212 0.204106C127.038 0.0720037 126.826 0.000488281 126.607 0.000488281V1.00049ZM113.588 1.00049V0.000488281C113.159 0.000488281 112.777 0.274529 112.64 0.681413C112.503 1.0883 112.641 1.53722 112.983 1.79687L113.588 1.00049ZM119.659 5.61115L119.054 6.40754C119.228 6.53964 119.441 6.61115 119.659 6.61115V5.61115ZM119.659 64.2003L119.056 64.9981C119.268 65.1581 119.535 65.2274 119.797 65.1907C120.06 65.1541 120.298 65.0145 120.457 64.8027L119.659 64.2003ZM113.588 59.6122V58.6122C113.158 58.6122 112.777 58.8867 112.64 59.2942C112.503 59.7017 112.642 60.1509 112.985 60.41L113.588 59.6122ZM123.122 59.6122L123.92 60.2146C124.149 59.9118 124.186 59.5058 124.017 59.1663C123.848 58.8268 123.501 58.6122 123.122 58.6122V59.6122ZM151.994 52.2126V53.2126C152.424 53.2126 152.805 52.9386 152.942 52.5317C153.079 52.1248 152.941 51.6759 152.599 51.4162L151.994 52.2126ZM145.923 47.6019L146.528 46.8056C146.354 46.6735 146.141 46.6019 145.923 46.6019V47.6019ZM132.656 47.6019V46.6019C132.104 46.6019 131.656 47.0497 131.656 47.6019H132.656ZM132.656 52.2126H131.656C131.656 52.7649 132.104 53.2126 132.656 53.2126V52.2126ZM64.7706 64.2003L64.1677 64.9981C64.512 65.2583 64.9843 65.2683 65.3392 65.023L64.7706 64.2003ZM58.6994 59.6122L58.6924 58.6122C58.2639 58.6152 57.885 58.8908 57.7502 59.2975C57.6154 59.7042 57.7546 60.1516 58.0965 60.41L58.6994 59.6122ZM71.539 59.5222L72.1076 60.3448C72.4686 60.0953 72.6247 59.6395 72.4925 59.2211C72.3604 58.8026 71.9708 58.5191 71.532 58.5222L71.539 59.5222ZM166.408 64.2003L165.804 64.9971C166.136 65.2495 166.591 65.2685 166.944 65.0448L166.408 64.2003ZM160.359 59.6122L160.352 58.6122C159.924 58.6151 159.545 58.8902 159.41 59.2965C159.275 59.7028 159.414 60.1501 159.755 60.4089L160.359 59.6122ZM173.783 59.5222L174.319 60.3666C174.696 60.1277 174.869 59.6681 174.743 59.2401C174.617 58.8121 174.223 58.5192 173.777 58.5222L173.783 59.5222ZM197.394 64.2003L196.789 64.9967C197.125 65.2518 197.585 65.2687 197.938 65.0391L197.394 64.2003ZM191.323 59.5897L191.316 58.5897C190.888 58.5926 190.509 58.8676 190.374 59.2738C190.239 59.68 190.377 60.1271 190.718 60.386L191.323 59.5897ZM204.634 59.4997L205.179 60.3384C205.551 60.0966 205.72 59.638 205.592 59.2125C205.465 58.7871 205.072 58.4967 204.628 58.4997L204.634 59.4997ZM194.763 5.61115V6.61115C195.192 6.61115 195.573 6.33752 195.71 5.93107C195.848 5.52462 195.71 5.07592 195.369 4.81585L194.763 5.61115ZM188.714 1.00049L189.32 0.205188C189.146 0.0724044 188.933 0.000488281 188.714 0.000488281V1.00049ZM176.369 1.00049V0.000488281C175.94 0.000488281 175.559 0.274116 175.422 0.680566C175.285 1.08702 175.422 1.53572 175.763 1.79579L176.369 1.00049ZM182.418 5.61115L181.812 6.40645C181.986 6.53924 182.199 6.61115 182.418 6.61115V5.61115ZM225.929 64.2003L225.324 64.9971C225.665 65.2552 226.131 65.2687 226.486 65.0307L225.929 64.2003ZM219.88 59.6122L219.873 58.6122C219.445 58.6151 219.066 58.8903 218.931 59.2966C218.796 59.7029 218.934 60.1501 219.276 60.4089L219.88 59.6122ZM232.899 59.5222L233.457 60.3525C233.823 60.1066 233.985 59.6494 233.855 59.2276C233.725 58.8058 233.334 58.5192 232.892 58.5222L232.899 59.5222ZM225.929 5.61115L225.324 6.40754C225.498 6.53964 225.71 6.61115 225.929 6.61115V5.61115ZM219.857 1.00049V0.000488281C219.428 0.000488281 219.047 0.274529 218.91 0.681413C218.773 1.0883 218.911 1.53722 219.253 1.79687L219.857 1.00049ZM232.382 1.00049L232.987 0.204106C232.813 0.0720037 232.601 0.000488281 232.382 0.000488281V1.00049ZM238.453 5.61115V6.61115C238.883 6.61115 239.264 6.33711 239.401 5.93023C239.538 5.52334 239.4 5.07442 239.058 4.81477L238.453 5.61115ZM250.304 5.61115L249.699 6.40754C249.873 6.53964 250.085 6.61115 250.304 6.61115V5.61115ZM244.232 1.00049V0.000488281C243.803 0.000488281 243.422 0.274529 243.285 0.681413C243.148 1.0883 243.286 1.53722 243.628 1.79687L244.232 1.00049ZM257.252 1.00049L257.857 0.204106C257.683 0.0720037 257.47 0.000488281 257.252 0.000488281V1.00049ZM263.323 5.61115V6.61115C263.752 6.61115 264.134 6.33711 264.271 5.93023C264.408 5.52334 264.27 5.07442 263.928 4.81477L263.323 5.61115ZM250.798 64.2003L250.195 64.9981C250.546 65.2633 251.029 65.2681 251.385 65.01L250.798 64.2003ZM244.727 59.6122L244.72 58.6122C244.291 58.6153 243.913 58.8909 243.778 59.2976C243.643 59.7043 243.782 60.1516 244.124 60.41L244.727 59.6122ZM257.252 59.5222L257.839 60.3318C258.191 60.0767 258.338 59.6233 258.202 59.2103C258.066 58.7972 257.679 58.5191 257.245 58.5222L257.252 59.5222ZM283.628 64.2003L283.024 64.9971C283.318 65.22 283.71 65.263 284.046 65.109L283.628 64.2003ZM277.579 59.6122V58.6122C277.15 58.6122 276.768 58.8863 276.631 59.2934C276.495 59.7004 276.633 60.1494 276.975 60.4089L277.579 59.6122ZM293.612 59.6122L294.029 60.5208C294.456 60.3246 294.689 59.8575 294.589 59.3984C294.488 58.9394 294.082 58.6122 293.612 58.6122V59.6122ZM90.4273 4.50909L91.0325 3.71299C90.6194 3.39896 90.0347 3.4531 89.6862 3.83765L90.4273 4.50909ZM96.0488 8.78239L95.6701 9.70791C96.1346 9.89797 96.668 9.7143 96.9171 9.27856C97.1661 8.84283 97.0536 8.29001 96.654 7.98629L96.0488 8.78239ZM89.1231 5.94852L88.382 5.27708C88.1631 5.51869 88.0758 5.85185 88.1479 6.1698C88.22 6.48775 88.4427 6.75057 88.7444 6.87404L89.1231 5.94852ZM13.165 61.8388L12.5552 62.6313C12.8811 62.8821 13.3272 62.9078 13.6797 62.6961C14.0322 62.4845 14.2193 62.0786 14.1512 61.6731L13.165 61.8388ZM5.857 56.216V55.216C5.42883 55.216 5.04818 55.4886 4.91028 55.894C4.77239 56.2993 4.90786 56.7475 5.24721 57.0086L5.857 56.216ZM12.2206 56.216L13.2068 56.0504C13.1259 55.5687 12.7089 55.216 12.2206 55.216V56.216ZM309.986 3.82978C309.548 3.49243 308.92 3.57344 308.583 4.01072C308.246 4.448 308.327 5.07596 308.764 5.41331L309.986 3.82978ZM314.389 8.49001L314.004 9.41293C314.467 9.60612 315.002 9.42615 315.254 8.99221C315.506 8.55827 315.397 8.00476 315 7.69824L314.389 8.49001ZM309.76 5.47542C309.25 5.2628 308.664 5.50364 308.452 6.01336C308.239 6.52307 308.48 7.10864 308.99 7.32126L309.76 5.47542ZM31.4462 6.61115H44.4657V4.61115H31.4462V6.61115ZM43.4657 5.61115V48.0967H45.4657V5.61115H43.4657ZM43.4657 48.0967C43.4657 50.6488 43.0766 52.9126 42.3367 54.9L44.2111 55.5978C45.0453 53.3569 45.4657 50.8525 45.4657 48.0967H43.4657ZM42.3363 54.9013C41.6423 56.7732 40.5732 58.4684 39.1541 59.867L40.5579 61.2915C42.1969 59.6763 43.4214 57.728 44.2116 55.5965L42.3363 54.9013ZM39.1598 59.8614C37.7789 61.2008 36.1243 62.2503 34.1416 62.9676L34.822 64.8483C37.0667 64.0362 38.965 62.8366 40.5522 61.2971L39.1598 59.8614ZM34.1505 62.9644C32.159 63.6637 29.8673 64.0325 27.3088 64.0325V66.0325C30.057 66.0325 32.5773 65.6366 34.8131 64.8515L34.1505 62.9644ZM27.3088 64.0325H24.1607V66.0325H27.3088V64.0325ZM24.1607 64.0325C21.628 64.0325 19.3794 63.6647 17.3608 62.9633L16.7044 64.8526C18.9582 65.6356 21.4316 66.0325 24.1607 66.0325V64.0325ZM17.3677 62.9658C15.4825 62.2953 13.7789 61.2244 12.3217 59.8515L10.9502 61.3071C12.5961 62.8579 14.5352 64.0812 16.6975 64.8501L17.3677 62.9658ZM12.3431 59.8722C10.9423 58.4711 9.87453 56.7758 9.20406 54.9106L7.32197 55.5872C8.09062 57.7254 9.31646 59.6737 10.9288 61.2863L12.3431 59.8722ZM9.1969 54.8913C8.43996 52.9144 8.07125 50.6559 8.07125 48.0967H6.07125C6.07125 50.8455 6.46708 53.3551 7.32913 55.6065L9.1969 54.8913ZM8.07125 48.0967V5.61115H6.07125V48.0967H8.07125ZM7.07125 6.61115H20.0907V4.61115H7.07125V6.61115ZM19.0907 5.61115V48.1192H21.0907V5.61115H19.0907ZM19.0907 48.1192C19.0907 50.0742 19.5047 51.7395 20.6076 52.7481L21.9573 51.2722C21.4862 50.8414 21.0907 49.8977 21.0907 48.1192H19.0907ZM20.6316 52.7694C21.6948 53.6809 23.3002 54.0223 25.2176 54.0223V52.0223C23.4472 52.0223 22.4442 51.6889 21.9334 51.251L20.6316 52.7694ZM25.2176 54.0223H26.2969V52.0223H25.2176V54.0223ZM26.2969 54.0223C28.2015 54.0223 29.8305 53.6859 30.8597 52.75L29.5142 51.2703C29.0594 51.6839 28.08 52.0223 26.2969 52.0223V54.0223ZM30.8412 52.7665C32.0103 51.7551 32.4237 50.0726 32.4237 48.1192H30.4237C30.4237 49.8994 30.0276 50.8258 29.5328 51.2539L30.8412 52.7665ZM32.4237 48.1198L32.4462 5.61168L30.4462 5.61062L30.4237 48.1187L32.4237 48.1198ZM83.9738 35.917C85.1118 35.917 86.1065 35.8263 86.9011 35.5797L86.3082 33.6696C85.7986 33.8277 85.0394 33.917 83.9738 33.917V35.917ZM86.8921 35.5824C87.711 35.3367 88.4087 34.9311 88.9407 34.3051L87.4167 33.0099C87.1842 33.2835 86.8476 33.5077 86.3173 33.6668L86.8921 35.5824ZM88.9596 34.2821C89.4459 33.6742 89.7465 32.9256 89.9036 32.0874L87.9379 31.7189C87.8251 32.3202 87.6311 32.7411 87.3978 33.0329L88.9596 34.2821ZM89.9085 32.0591C90.0519 31.1509 90.1245 30.2129 90.1003 29.2467L88.1009 29.2967C88.1218 30.1298 88.0594 30.9462 87.933 31.7473L89.9085 32.0591ZM90.1006 29.2717V23.2666H88.1006V29.2717H90.1006ZM90.1003 23.2923C90.1245 22.3468 90.0516 21.4096 89.9091 20.4831L87.9324 20.7872C88.0597 21.615 88.1217 22.4321 88.101 23.241L90.1003 23.2923ZM89.8976 20.4215C89.7187 19.6034 89.4243 18.8751 88.9788 18.281L87.3786 19.4808C87.6077 19.7863 87.8079 20.2275 87.9438 20.8488L89.8976 20.4215ZM88.9407 18.2333C88.4087 17.6072 87.711 17.2017 86.8921 16.9559L86.3173 18.8716C86.8476 19.0307 87.1842 19.2549 87.4167 19.5284L88.9407 18.2333ZM86.9011 16.9587C86.1065 16.7121 85.1118 16.6214 83.9738 16.6214V18.6214C85.0394 18.6214 85.7986 18.7106 86.3082 18.8688L86.9011 16.9587ZM83.9738 16.6214H77.7901V18.6214H83.9738V16.6214ZM76.7901 17.6214V34.917H78.7901V17.6214H76.7901ZM77.7901 35.917H83.9738V33.917H77.7901V35.917ZM65.7706 64.2003V5.61115H63.7706V64.2003H65.7706ZM64.7706 6.61115H85.0306V4.61115H64.7706V6.61115ZM85.0306 6.61115C90.3962 6.61115 94.3481 8.10493 97.0525 10.9751L98.5081 9.60352C95.3211 6.22114 90.7732 4.61115 85.0306 4.61115V6.61115ZM97.0521 10.9747C99.7278 13.8169 101.12 17.8591 101.12 23.2666H103.12C103.12 17.5186 101.634 12.9242 98.5084 9.60384L97.0521 10.9747ZM101.12 23.2666V29.2492H103.12V23.2666H101.12ZM101.12 29.2492C101.12 34.6579 99.7273 38.6977 97.0547 41.516L98.5059 42.8922C101.635 39.5929 103.12 34.9961 103.12 29.2492H101.12ZM97.0525 41.5183C94.3481 44.3884 90.3962 45.8822 85.0306 45.8822V47.8822C90.7732 47.8822 95.3211 46.2722 98.5081 42.8899L97.0525 41.5183ZM85.0306 45.8822H77.7901V47.8822H85.0306V45.8822ZM76.7901 46.8822V64.2003H78.7901V46.8822H76.7901ZM77.7901 63.2003H64.7706V65.2003H77.7901V63.2003ZM132.679 53.2126H151.994V51.2126H132.679V53.2126ZM150.994 52.2126V64.2003H152.994V52.2126H150.994ZM151.994 63.2003H119.659V65.2003H151.994V63.2003ZM120.659 64.2003V5.61115H118.659V64.2003H120.659ZM119.659 6.61115H132.679V4.61115H119.659V6.61115ZM131.679 5.61115V52.2126H133.679V5.61115H131.679ZM185.251 43.429H191.93V41.429H185.251V43.429ZM192.912 42.2419L189.562 24.6539L187.597 25.0281L190.947 42.6161L192.912 42.2419ZM187.597 24.6551L184.269 42.2431L186.234 42.6149L189.562 25.0269L187.597 24.6551ZM194.92 53.4167H182.238V55.4167H194.92V53.4167ZM181.268 54.1758L178.839 63.9594L180.78 64.4412L183.209 54.6576L181.268 54.1758ZM179.81 63.2003H166.408V65.2003H179.81V63.2003ZM167.373 64.4639L183.383 5.87475L181.453 5.34756L165.443 63.9367L167.373 64.4639ZM182.418 6.61115H194.763V4.61115H182.418V6.61115ZM193.798 5.8744L209.786 64.4636L211.715 63.9371L195.728 5.3479L193.798 5.8744ZM210.751 63.2003H197.394V65.2003H210.751V63.2003ZM198.363 63.9552L195.89 54.1716L193.951 54.6618L196.424 64.4454L198.363 63.9552ZM251.304 33.8149V5.61115H249.304V33.8149H251.304ZM250.304 6.61115H263.323V4.61115H250.304V6.61115ZM262.323 5.61115V64.2003H264.323V5.61115H262.323ZM263.323 63.2003H250.798V65.2003H263.323V63.2003ZM251.72 63.813L239.87 35.6092L238.026 36.3839L249.876 64.5877L251.72 63.813ZM237.948 35.9966V64.2003H239.948V35.9966H237.948ZM238.948 63.2003H225.929V65.2003H238.948V63.2003ZM226.929 64.2003V5.61115H224.929V64.2003H226.929ZM225.929 6.61115H238.453V4.61115H225.929V6.61115ZM237.532 5.99851L249.382 34.2023L251.226 33.4276L239.375 5.22379L237.532 5.99851ZM283.628 6.61115H302.314V4.61115H283.628V6.61115ZM302.314 6.61115C308.07 6.61115 312.35 7.90907 315.254 10.3368L316.537 8.80232C313.145 5.96718 308.341 4.61115 302.314 4.61115V6.61115ZM315.252 10.3348C318.358 12.9481 320 16.9455 320 22.5244H322C322 16.5429 320.224 11.9038 316.539 8.80434L315.252 10.3348ZM320 22.5244V47.2421H322V22.5244H320ZM320 47.2421C320 52.8454 318.357 56.8398 315.255 59.4292L316.536 60.9647C320.225 57.8863 322 53.2441 322 47.2421H320ZM315.251 59.4324C312.35 61.8784 308.096 63.1553 302.314 63.1553V65.1553C308.36 65.1553 313.146 63.8233 316.54 60.9615L315.251 59.4324ZM302.314 63.1553H283.651V65.1553H302.314V63.1553ZM284.651 64.155L284.628 5.61077L282.628 5.61154L282.651 64.1557L284.651 64.155ZM295.648 17.5989V52.2126H297.648V17.5989H295.648ZM296.648 53.2126H302.314V51.2126H296.648V53.2126ZM302.287 53.2122C303.19 53.2366 304.107 53.1633 304.993 53.0198L304.672 51.0456C303.894 51.1719 303.102 51.2335 302.341 51.213L302.287 53.2122ZM305.011 53.0165C305.841 52.8657 306.599 52.6016 307.205 52.1771L306.058 50.5388C305.765 50.7441 305.308 50.9297 304.654 51.0488L305.011 53.0165ZM307.282 52.1171C307.899 51.5883 308.332 50.9175 308.588 50.1781L306.698 49.524C306.549 49.9541 306.308 50.3179 305.98 50.5988L307.282 52.1171ZM308.589 50.177C308.863 49.3805 308.981 48.4039 308.981 47.3096H306.981C306.981 48.2844 306.873 49.0171 306.698 49.5251L308.589 50.177ZM308.981 47.3096V22.5019H306.981V47.3096H308.981ZM308.981 22.5019C308.981 21.3837 308.863 20.4301 308.589 19.6345L306.698 20.2864C306.873 20.7952 306.981 21.506 306.981 22.5019H308.981ZM308.588 19.6334C308.332 18.894 307.899 18.2232 307.282 17.6944L305.98 19.2127C306.308 19.4936 306.549 19.8574 306.698 20.2875L308.588 19.6334ZM307.205 17.6344C306.599 17.2099 305.841 16.9457 305.011 16.7949L304.654 18.7627C305.308 18.8818 305.765 19.0674 306.058 19.2727L307.205 17.6344ZM304.993 16.7917C304.108 16.6482 303.213 16.5749 302.288 16.5992L302.34 18.5985C303.124 18.5779 303.893 18.6395 304.672 18.7659L304.993 16.7917ZM302.314 16.5989H296.648V18.5989H302.314V16.5989ZM45.0211 4.77958L38.1178 0.168911L37.007 1.83207L43.9103 6.44273L45.0211 4.77958ZM37.5624 0.000488281H25.3974V2.00049H37.5624V0.000488281ZM24.7926 1.79687L30.8639 6.40754L32.0735 4.81477L26.0022 0.204106L24.7926 1.79687ZM31.4687 6.61115H44.4657V4.61115H31.4687V6.61115ZM20.6955 4.81477L14.6243 0.204106L13.4147 1.79687L19.4859 6.40754L20.6955 4.81477ZM14.0195 0.000488281H1V2.00049H14.0195V0.000488281ZM0.395207 1.79687L6.46646 6.40754L7.67605 4.81477L1.60479 0.204106L0.395207 1.79687ZM7.07125 6.61115H20.0907V4.61115H7.07125V6.61115ZM133.284 4.81477L127.212 0.204106L126.003 1.79687L132.074 6.40754L133.284 4.81477ZM126.607 0.000488281H113.588V2.00049H126.607V0.000488281ZM112.983 1.79687L119.054 6.40754L120.264 4.81477L114.193 0.204106L112.983 1.79687ZM119.659 6.61115H132.679V4.61115H119.659V6.61115ZM120.262 63.4025L114.191 58.8144L112.985 60.41L119.056 64.9981L120.262 63.4025ZM113.588 60.6122H123.122V58.6122H113.588V60.6122ZM122.324 59.0097L118.861 63.5979L120.457 64.8027L123.92 60.2146L122.324 59.0097ZM152.599 51.4162L146.528 46.8056L145.318 48.3983L151.39 53.009L152.599 51.4162ZM145.923 46.6019H132.656V48.6019H145.923V46.6019ZM131.656 47.6019V52.2126H133.656V47.6019H131.656ZM132.656 53.2126H151.994V51.2126H132.656V53.2126ZM65.3736 63.4025L59.3023 58.8144L58.0965 60.41L64.1677 64.9981L65.3736 63.4025ZM58.7064 60.6121L71.546 60.5222L71.532 58.5222L58.6924 58.6122L58.7064 60.6121ZM70.9704 58.6996L64.2021 63.3777L65.3392 65.023L72.1076 60.3448L70.9704 58.6996ZM167.012 63.4036L160.963 58.8154L159.755 60.4089L165.804 64.9971L167.012 63.4036ZM160.366 60.6121L173.79 60.5222L173.777 58.5222L160.352 58.6122L160.366 60.6121ZM173.248 58.6777L165.872 63.3559L166.944 65.0448L174.319 60.3666L173.248 58.6777ZM197.999 63.4039L191.927 58.7933L190.718 60.386L196.789 64.9967L197.999 63.4039ZM191.329 60.5896L204.641 60.4997L204.628 58.4997L191.316 58.5897L191.329 60.5896ZM204.09 58.661L196.849 63.3616L197.938 65.0391L205.179 60.3384L204.09 58.661ZM195.369 4.81585L189.32 0.205188L188.108 1.79579L194.157 6.40645L195.369 4.81585ZM188.714 0.000488281H176.369V2.00049H188.714V0.000488281ZM175.763 1.79579L181.812 6.40645L183.024 4.81585L176.975 0.205189L175.763 1.79579ZM182.418 6.61115H194.763V4.61115H182.418V6.61115ZM226.533 63.4036L220.484 58.8154L219.276 60.4089L225.324 64.9971L226.533 63.4036ZM219.887 60.6121L232.906 60.5222L232.892 58.5222L219.873 58.6122L219.887 60.6121ZM232.342 58.6919L225.371 63.37L226.486 65.0307L233.457 60.3525L232.342 58.6919ZM226.533 4.81477L220.462 0.204106L219.253 1.79687L225.324 6.40754L226.533 4.81477ZM219.857 2.00049H232.382V0.000488281H219.857V2.00049ZM231.777 1.79687L237.849 6.40754L239.058 4.81477L232.987 0.204106L231.777 1.79687ZM238.453 4.61115H225.929V6.61115H238.453V4.61115ZM250.908 4.81477L244.837 0.204106L243.628 1.79687L249.699 6.40754L250.908 4.81477ZM244.232 2.00049H257.252V0.000488281H244.232V2.00049ZM256.647 1.79687L262.718 6.40754L263.928 4.81477L257.857 0.204106L256.647 1.79687ZM263.323 4.61115H250.304V6.61115H263.323V4.61115ZM251.401 63.4025L245.33 58.8144L244.124 60.41L250.195 64.9981L251.401 63.4025ZM244.734 60.6121L257.259 60.5222L257.245 58.5222L244.72 58.6122L244.734 60.6121ZM256.665 58.7125L250.211 63.3907L251.385 65.01L257.839 60.3318L256.665 58.7125ZM284.232 63.4036L278.184 58.8154L276.975 60.4089L283.024 64.9971L284.232 63.4036ZM277.579 60.6122H293.612V58.6122H277.579V60.6122ZM293.194 58.7035L283.211 63.2917L284.046 65.109L294.029 60.5208L293.194 58.7035ZM89.8221 5.30519L95.4437 9.57849L96.654 7.98629L91.0325 3.71299L89.8221 5.30519ZM96.4275 7.85687L89.5018 5.023L88.7444 6.87404L95.6701 9.70791L96.4275 7.85687ZM89.8642 6.61996L91.1684 5.18053L89.6862 3.83765L88.382 5.27708L89.8642 6.61996ZM13.7748 61.0462L6.4668 55.4235L5.24721 57.0086L12.5552 62.6313L13.7748 61.0462ZM5.857 57.216H12.2206V55.216H5.857V57.216ZM11.2344 56.3817L12.1788 62.0044L14.1512 61.6731L13.2068 56.0504L11.2344 56.3817ZM308.764 5.41331L313.778 9.28177L315 7.69824L309.986 3.82978L308.764 5.41331ZM314.774 7.56708L309.76 5.47542L308.99 7.32126L314.004 9.41293L314.774 7.56708Z" fill="#232323" mask="url(#path-1-outside-1)"/>
<path d="M25.3795 0.5C25.1034 0.5 24.8795 0.723858 24.8795 1V43.5306C24.8795 45.354 24.4791 46.4695 23.8157 47.0434L23.8156 47.0433L23.8064 47.0516C23.208 47.5957 22.0662 47.9336 20.2527 47.9336H19.1733C17.3645 47.9336 16.1962 47.5976 15.5725 47.0496C14.9453 46.4734 14.5465 45.3501 14.5465 43.5306V1C14.5465 0.723858 14.3226 0.5 14.0465 0.5H1.02704C0.750896 0.5 0.527039 0.723858 0.527039 1V43.4856C0.527039 46.1853 0.915619 48.6308 1.75036 50.8126C2.49451 52.8577 3.67997 54.7407 5.23813 56.2992L5.24884 56.3096C6.84757 57.8159 8.72783 59.0011 10.8209 59.7454L10.8243 59.7466C13.0193 60.5093 15.4365 60.8989 18.1165 60.8989H21.2646C23.9662 60.8989 26.4061 60.5095 28.6017 59.7466L28.6017 59.7467L28.6093 59.7439C30.7652 58.9556 32.602 57.7938 34.1374 56.3046L34.1376 56.3044C35.7239 54.7644 36.9098 52.8782 37.6758 50.8122C38.4864 48.6347 38.899 46.1905 38.899 43.4856V1C38.899 0.723858 38.6751 0.5 38.399 0.5H25.3795ZM77.9071 29.8058C77.8553 29.8058 77.8054 29.8137 77.7584 29.8283H72.2234V13.5102H77.9071C78.9908 13.5102 79.8089 13.5998 80.3897 13.7802L80.3943 13.7815C80.9903 13.9604 81.4145 14.2261 81.7212 14.582C81.9979 14.9556 82.2172 15.4599 82.3623 16.1158C82.4918 16.963 82.5556 17.8048 82.5341 18.6427L82.5339 18.6427V18.6555V24.6606H82.5338L82.5341 24.6734C82.5556 25.5137 82.4914 26.3581 82.3611 27.2078C82.2377 27.8609 82.0192 28.3594 81.7262 28.7281C81.4192 29.087 80.9936 29.3547 80.3943 29.5345L80.3897 29.5359C79.8089 29.7162 78.9908 29.8058 77.9071 29.8058ZM58.2039 59.5892C58.2039 59.8653 58.4278 60.0892 58.7039 60.0892H71.7234C71.9996 60.0892 72.2234 59.8653 72.2234 59.5892V42.7711H78.964C84.6119 42.7711 89.0106 41.1903 92.0769 37.9364C95.0913 34.7574 96.5534 30.3001 96.5534 24.6381V18.633C96.5534 12.9923 95.0907 8.53605 92.0776 5.33541L92.0775 5.33525C89.0111 2.08094 84.6123 0.5 78.964 0.5H58.7039C58.4278 0.5 58.2039 0.723858 58.2039 1V59.5892ZM146.428 47.6015C146.428 47.3253 146.204 47.1015 145.928 47.1015H127.112V1C127.112 0.723858 126.888 0.5 126.612 0.5H113.593C113.316 0.5 113.093 0.723858 113.093 1V59.5892C113.093 59.8653 113.316 60.0892 113.593 60.0892H145.928C146.204 60.0892 146.428 59.8653 146.428 59.5892V47.6015ZM173.743 60.0892C173.973 60.0892 174.173 59.9326 174.228 59.7096L176.563 50.3056H188.464L190.842 59.7117C190.898 59.9337 191.098 60.0892 191.327 60.0892H204.684C204.84 60.0892 204.987 60.0165 205.081 59.8927C205.176 59.7689 205.207 59.6081 205.166 59.4577L189.201 0.868546C189.142 0.650964 188.944 0.5 188.719 0.5H176.374C176.149 0.5 175.951 0.650703 175.892 0.86803L159.859 59.4572C159.818 59.6076 159.849 59.7686 159.944 59.8925C160.038 60.0165 160.185 60.0892 160.341 60.0892H173.743ZM244.237 0.5C243.961 0.5 243.737 0.723858 243.737 1V26.723L232.848 0.80632C232.77 0.620727 232.588 0.5 232.387 0.5H219.862C219.586 0.5 219.362 0.723858 219.362 1V59.5892C219.362 59.8653 219.586 60.0892 219.862 60.0892H232.881C233.158 60.0892 233.381 59.8653 233.381 59.5892V33.8662L244.271 59.7829C244.349 59.9685 244.53 60.0892 244.732 60.0892H257.256C257.533 60.0892 257.756 59.8653 257.756 59.5892V1C257.756 0.723858 257.533 0.5 257.256 0.5H244.237ZM277.561 0.5C277.429 0.5 277.302 0.552705 277.208 0.646514C277.114 0.740324 277.061 0.86755 277.061 1.00019L277.084 59.5894C277.084 59.8655 277.308 60.0892 277.584 60.0892H296.247C302.228 60.0892 306.88 58.7478 310.15 55.9913C313.692 53.0352 315.433 48.5553 315.433 42.6534V17.9358C315.433 12.0549 313.691 7.57622 310.151 4.5983C306.88 1.84137 302.206 0.5 296.247 0.5H277.561ZM296.261 47.1015H296.247H291.081V13.4877L296.247 13.4879L296.261 13.4876C297.078 13.466 297.877 13.5303 298.681 13.6604C299.365 13.7852 299.888 13.9852 300.258 14.2381C300.648 14.5786 300.931 15.0133 301.104 15.5128C301.304 16.0933 301.414 16.8646 301.414 17.8908V42.6984C301.414 43.7028 301.304 44.4963 301.104 45.0764C300.931 45.5759 300.648 46.0106 300.258 46.3511C299.888 46.604 299.365 46.8039 298.681 46.9287C297.877 47.0589 297.056 47.1231 296.261 47.1015ZM179.789 37.3179L182.533 22.8913L185.26 37.3179H179.789Z" fill="#FFF71A" stroke="#232323" stroke-linecap="round" stroke-linejoin="round"/>
<path d="M8.12322 83.4382C8.12322 83.9194 8.03397 84.3269 7.85547 84.6606C7.67697 84.9865 7.43638 85.2504 7.1337 85.4522C6.83102 85.654 6.48178 85.8014 6.08597 85.8946C5.69016 85.9877 5.27883 86.0343 4.85197 86.0343H3.86245V89.1425H1.87177V80.9004H4.89854C5.34868 80.9004 5.76777 80.947 6.15582 81.0401C6.55163 81.1255 6.89311 81.269 7.18026 81.4708C7.47518 81.6648 7.70413 81.9248 7.86711 82.2508C8.03785 82.569 8.12322 82.9648 8.12322 83.4382ZM6.13253 83.4499C6.13253 83.2558 6.09373 83.0967 6.01612 82.9726C5.93851 82.8484 5.83374 82.7514 5.7018 82.6815C5.56986 82.6117 5.41852 82.5651 5.24778 82.5418C5.0848 82.5185 4.91406 82.5069 4.73556 82.5069H3.86245V84.451H4.70064C4.8869 84.451 5.0654 84.4355 5.23614 84.4045C5.40688 84.3734 5.55822 84.3191 5.69016 84.2415C5.82986 84.1639 5.93851 84.063 6.01612 83.9388C6.09373 83.8069 6.13253 83.6439 6.13253 83.4499Z" fill="#232323"/>
<path d="M21.6299 89.1425L19.8487 85.8713H19.1735V89.1425H17.2177V80.9004H20.3609C20.7568 80.9004 21.1409 80.9431 21.5134 81.0284C21.8937 81.1061 22.2313 81.2419 22.5262 81.4359C22.8289 81.6299 23.0695 81.886 23.248 82.2042C23.4265 82.5224 23.5158 82.9182 23.5158 83.3917C23.5158 83.9504 23.3644 84.42 23.0618 84.8003C22.7591 85.1806 22.34 85.4522 21.8045 85.6152L23.9581 89.1425H21.6299ZM21.5484 83.4266C21.5484 83.2326 21.5057 83.0773 21.4203 82.9609C21.3427 82.8367 21.2379 82.7436 21.106 82.6815C20.9818 82.6117 20.8382 82.5651 20.6753 82.5418C20.52 82.5185 20.3687 82.5069 20.2212 82.5069H19.1619V84.4277H20.1048C20.2678 84.4277 20.4347 84.4161 20.6054 84.3928C20.7762 84.3618 20.9314 84.3113 21.0711 84.2415C21.2108 84.1716 21.3233 84.0707 21.4087 83.9388C21.5018 83.8069 21.5484 83.6361 21.5484 83.4266Z" fill="#232323"/>
<path d="M41.428 84.9865C41.428 85.6385 41.3154 86.236 41.0904 86.7793C40.8653 87.3148 40.551 87.7766 40.1474 88.1646C39.7516 88.5449 39.2782 88.8399 38.7271 89.0494C38.1761 89.2589 37.5785 89.3637 36.9344 89.3637C36.2902 89.3637 35.6926 89.2589 35.1416 89.0494C34.5983 88.8399 34.1249 88.5449 33.7213 88.1646C33.3255 87.7766 33.0151 87.3148 32.79 86.7793C32.5649 86.236 32.4524 85.6385 32.4524 84.9865C32.4524 84.3269 32.5649 83.7331 32.79 83.2054C33.0151 82.6699 33.3255 82.2159 33.7213 81.8433C34.1249 81.4708 34.5983 81.1837 35.1416 80.9819C35.6926 80.7801 36.2902 80.6792 36.9344 80.6792C37.5785 80.6792 38.1761 80.7801 38.7271 80.9819C39.2782 81.1837 39.7516 81.4708 40.1474 81.8433C40.551 82.2159 40.8653 82.6699 41.0904 83.2054C41.3154 83.7331 41.428 84.3269 41.428 84.9865ZM39.2976 84.9865C39.2976 84.6295 39.2394 84.2958 39.123 83.9854C39.0065 83.6749 38.8436 83.4111 38.634 83.1938C38.4322 82.9687 38.1839 82.7941 37.889 82.6699C37.6018 82.5379 37.2836 82.472 36.9344 82.472C36.5851 82.472 36.2669 82.5379 35.9798 82.6699C35.6926 82.7941 35.4443 82.9687 35.2347 83.1938C35.0252 83.4111 34.8622 83.6749 34.7458 83.9854C34.6371 84.2958 34.5828 84.6295 34.5828 84.9865C34.5828 85.3591 34.641 85.7044 34.7574 86.0226C34.8738 86.3331 35.0329 86.6008 35.2347 86.8259C35.4443 87.0509 35.6926 87.2295 35.9798 87.3614C36.2669 87.4856 36.5851 87.5477 36.9344 87.5477C37.2836 87.5477 37.6018 87.4856 37.889 87.3614C38.1761 87.2295 38.4245 87.0509 38.634 86.8259C38.8436 86.6008 39.0065 86.3331 39.123 86.0226C39.2394 85.7044 39.2976 85.3591 39.2976 84.9865Z" fill="#232323"/>
<path d="M56.8896 83.4382C56.8896 83.9194 56.8004 84.3269 56.6219 84.6606C56.4434 84.9865 56.2028 85.2504 55.9001 85.4522C55.5974 85.654 55.2482 85.8014 54.8524 85.8946C54.4566 85.9877 54.0452 86.0343 53.6184 86.0343H52.6289V89.1425H50.6382V80.9004H53.665C54.1151 80.9004 54.5342 80.947 54.9222 81.0401C55.318 81.1255 55.6595 81.269 55.9467 81.4708C56.2416 81.6648 56.4705 81.9248 56.6335 82.2508C56.8043 82.569 56.8896 82.9648 56.8896 83.4382ZM54.899 83.4499C54.899 83.2558 54.8601 83.0967 54.7825 82.9726C54.7049 82.8484 54.6002 82.7514 54.4682 82.6815C54.3363 82.6117 54.1849 82.5651 54.0142 82.5418C53.8512 82.5185 53.6805 82.5069 53.502 82.5069H52.6289V84.451H53.4671C53.6533 84.451 53.8318 84.4355 54.0026 84.4045C54.1733 84.3734 54.3246 84.3191 54.4566 84.2415C54.5963 84.1639 54.7049 84.063 54.7825 83.9388C54.8601 83.8069 54.899 83.6439 54.899 83.4499Z" fill="#232323"/>
<path d="M65.9842 89.1425V80.9004H71.5255V82.5884H67.905V84.1367H71.3276V85.7316H67.905V87.4429H71.735V89.1425H65.9842Z" fill="#232323"/>
<path d="M85.3671 89.1425L83.5859 85.8713H82.9107V89.1425H80.955V80.9004H84.0982C84.494 80.9004 84.8782 80.9431 85.2507 81.0284C85.631 81.1061 85.9686 81.2419 86.2635 81.4359C86.5662 81.6299 86.8067 81.886 86.9853 82.2042C87.1637 82.5224 87.253 82.9182 87.253 83.3917C87.253 83.9504 87.1017 84.42 86.799 84.8003C86.4963 85.1806 86.0772 85.4522 85.5417 85.6152L87.6954 89.1425H85.3671ZM85.2856 83.4266C85.2856 83.2326 85.2429 83.0773 85.1575 82.9609C85.0799 82.8367 84.9752 82.7436 84.8432 82.6815C84.719 82.6117 84.5755 82.5651 84.4125 82.5418C84.2573 82.5185 84.1059 82.5069 83.9585 82.5069H82.8991V84.4277H83.8421C84.005 84.4277 84.1719 84.4161 84.3426 84.3928C84.5134 84.3618 84.6686 84.3113 84.8083 84.2415C84.948 84.1716 85.0605 84.0707 85.1459 83.9388C85.239 83.8069 85.2856 83.6361 85.2856 83.4266Z" fill="#232323"/>
<path d="M99.9648 82.6V89.1425H97.9741V82.6H95.6458V80.9004H102.293V82.6H99.9648Z" fill="#232323"/>
<path d="M114.969 85.6501V89.1425H112.979V85.6501L109.882 80.9004H112.292L114.05 83.9504L115.808 80.9004H118.136L114.969 85.6501Z" fill="#232323"/>
<path d="M140.421 82.6V89.1425H138.43V82.6H136.102V80.9004H142.749V82.6H140.421Z" fill="#232323"/>
<path d="M155.969 89.1425L154.188 85.8713H153.513V89.1425H151.557V80.9004H154.7C155.096 80.9004 155.48 80.9431 155.853 81.0284C156.233 81.1061 156.571 81.2419 156.866 81.4359C157.168 81.6299 157.409 81.886 157.587 82.2042C157.766 82.5224 157.855 82.9182 157.855 83.3917C157.855 83.9504 157.704 84.42 157.401 84.8003C157.099 85.1806 156.679 85.4522 156.144 85.6152L158.298 89.1425H155.969ZM155.888 83.4266C155.888 83.2326 155.845 83.0773 155.76 82.9609C155.682 82.8367 155.577 82.7436 155.445 82.6815C155.321 82.6117 155.178 82.5651 155.015 82.5418C154.86 82.5185 154.708 82.5069 154.561 82.5069H153.501V84.4277H154.444C154.607 84.4277 154.774 84.4161 154.945 84.3928C155.116 84.3618 155.271 84.3113 155.411 84.2415C155.55 84.1716 155.663 84.0707 155.748 83.9388C155.841 83.8069 155.888 83.6361 155.888 83.4266Z" fill="#232323"/>
<path d="M172.764 89.1425L172.124 87.5244H168.934L168.329 89.1425H166.163L169.621 80.9004H171.553L174.976 89.1425H172.764ZM170.552 83.1006L169.504 85.9295H171.577L170.552 83.1006Z" fill="#232323"/>
<path d="M191.252 84.9982C191.252 85.7199 191.116 86.3447 190.844 86.8724C190.58 87.3924 190.227 87.8232 189.785 88.1646C189.35 88.4984 188.857 88.7467 188.306 88.9097C187.755 89.0649 187.196 89.1425 186.63 89.1425H183.557V80.9004H186.537C187.119 80.9004 187.693 80.9702 188.26 81.1099C188.826 81.2419 189.331 81.4669 189.773 81.7851C190.215 82.0956 190.572 82.5147 190.844 83.0424C191.116 83.5702 191.252 84.2221 191.252 84.9982ZM189.179 84.9982C189.179 84.5325 189.102 84.1483 188.947 83.8457C188.799 83.5352 188.597 83.2908 188.341 83.1123C188.093 82.926 187.806 82.7941 187.48 82.7165C187.162 82.6388 186.832 82.6 186.49 82.6H185.501V87.4196H186.444C186.801 87.4196 187.142 87.3808 187.468 87.3032C187.802 87.2178 188.093 87.082 188.341 86.8957C188.597 86.7095 188.799 86.4611 188.947 86.1507C189.102 85.8402 189.179 85.4561 189.179 84.9982Z" fill="#232323"/>
<path d="M200.471 89.1425V80.9004H202.474V89.1425H200.471Z" fill="#232323"/>
<path d="M217.316 89.1425L213.998 83.7525H213.963L214.01 89.1425H212.077V80.9004H214.347L217.653 86.2787H217.688L217.642 80.9004H219.574V89.1425H217.316Z" fill="#232323"/>
<path d="M236.496 88.6419C236.093 88.8515 235.619 89.0222 235.076 89.1542C234.541 89.2861 233.955 89.3521 233.318 89.3521C232.659 89.3521 232.049 89.2473 231.491 89.0378C230.94 88.8282 230.462 88.5333 230.059 88.153C229.663 87.7727 229.352 87.3187 229.127 86.791C228.902 86.2555 228.79 85.6617 228.79 85.0098C228.79 84.3501 228.902 83.7525 229.127 83.217C229.36 82.6815 229.678 82.2275 230.082 81.855C230.486 81.4747 230.959 81.1837 231.502 80.9819C232.045 80.7801 232.631 80.6792 233.26 80.6792C233.912 80.6792 234.517 80.7801 235.076 80.9819C235.635 81.1759 236.089 81.4398 236.438 81.7735L235.181 83.2054C234.987 82.9803 234.731 82.7979 234.413 82.6582C234.094 82.5108 233.733 82.4371 233.33 82.4371C232.981 82.4371 232.659 82.503 232.364 82.635C232.069 82.7591 231.813 82.9376 231.595 83.1705C231.378 83.3955 231.207 83.6672 231.083 83.9854C230.967 84.2958 230.908 84.6373 230.908 85.0098C230.908 85.3901 230.963 85.7393 231.071 86.0575C231.18 86.3757 231.339 86.6513 231.549 86.8841C231.766 87.1092 232.03 87.2877 232.34 87.4196C232.659 87.5438 233.019 87.6059 233.423 87.6059C233.656 87.6059 233.877 87.5903 234.087 87.5593C234.296 87.5205 234.49 87.4623 234.669 87.3847V85.8829H233.097V84.2764H236.496V88.6419Z" fill="#232323"/>
<path d="M264.153 88.6419C263.749 88.8515 263.276 89.0222 262.733 89.1542C262.197 89.2861 261.611 89.3521 260.975 89.3521C260.315 89.3521 259.706 89.2473 259.147 89.0378C258.596 88.8282 258.119 88.5333 257.715 88.153C257.319 87.7727 257.009 87.3187 256.784 86.791C256.559 86.2555 256.446 85.6617 256.446 85.0098C256.446 84.3501 256.559 83.7525 256.784 83.217C257.017 82.6815 257.335 82.2275 257.738 81.855C258.142 81.4747 258.615 81.1837 259.159 80.9819C259.702 80.7801 260.288 80.6792 260.917 80.6792C261.569 80.6792 262.174 80.7801 262.733 80.9819C263.291 81.1759 263.745 81.4398 264.095 81.7735L262.837 83.2054C262.643 82.9803 262.387 82.7979 262.069 82.6582C261.751 82.5108 261.39 82.4371 260.986 82.4371C260.637 82.4371 260.315 82.503 260.02 82.635C259.725 82.7591 259.469 82.9376 259.252 83.1705C259.035 83.3955 258.864 83.6672 258.74 83.9854C258.623 84.2958 258.565 84.6373 258.565 85.0098C258.565 85.3901 258.619 85.7393 258.728 86.0575C258.837 86.3757 258.996 86.6513 259.205 86.8841C259.423 87.1092 259.686 87.2877 259.997 87.4196C260.315 87.5438 260.676 87.6059 261.08 87.6059C261.312 87.6059 261.534 87.5903 261.743 87.5593C261.953 87.5205 262.147 87.4623 262.325 87.3847V85.8829H260.754V84.2764H264.153V88.6419Z" fill="#232323"/>
<path d="M279.265 89.1425L278.625 87.5244H275.435L274.83 89.1425H272.664L276.122 80.9004H278.054L281.477 89.1425H279.265ZM277.053 83.1006L276.005 85.9295H278.078L277.053 83.1006Z" fill="#232323"/>
<path d="M297.531 89.1425L297.578 83.3102H297.543L295.401 89.1425H294.004L291.92 83.3102H291.885L291.932 89.1425H290.058V80.9004H292.887L294.761 86.1856H294.807L296.6 80.9004H299.476V89.1425H297.531Z" fill="#232323"/>
<path d="M309.076 89.1425V80.9004H314.617V82.5884H310.996V84.1367H314.419V85.7316H310.996V87.4429H314.827V89.1425H309.076Z" fill="#232323"/>
</svg>
