<svg width="320" height="64" viewBox="0 0 320 64" fill="none" xmlns="http://www.w3.org/2000/svg">
<path fill-rule="evenodd" clip-rule="evenodd" d="M27.8219 3.5078H40.9385V46.376C40.9385 49.0474 40.5353 51.4542 39.7289 53.5963C38.9477 55.6881 37.8011 57.4774 36.2891 58.9643C34.8023 60.426 33.0005 61.5475 30.8837 62.3287C28.7417 63.0848 26.3351 63.4628 23.6639 63.4628H20.4887C17.8427 63.4628 15.4487 63.0848 13.3067 62.3287C11.1899 61.5475 9.37555 60.426 7.86354 58.9643C6.37674 57.4774 5.24275 55.6881 4.46155 53.5963C3.65515 51.4542 3.25195 49.0474 3.25195 46.376V3.5078H16.3685V46.4138C16.3685 48.304 16.7717 49.6145 17.5781 50.3453C18.3593 51.0258 19.6823 51.366 21.5471 51.366H22.6433C24.5081 51.366 25.8185 51.0258 26.5745 50.3453C27.4061 49.6145 27.8219 48.304 27.8219 46.4138V3.5078ZM80.7634 33.0695C81.8722 33.0695 82.7542 32.9687 83.4094 32.7671C84.0898 32.5655 84.619 32.2378 84.997 31.7842C85.3498 31.3306 85.6018 30.7383 85.753 30.0075C85.879 29.3522 85.942 28.4702 85.942 27.3613V21.3129C85.942 20.204 85.879 19.3219 85.753 18.6667C85.6018 17.9358 85.3498 17.3436 84.997 16.8899C84.619 16.4363 84.0898 16.1087 83.4094 15.9071C82.7542 15.7055 81.8722 15.6047 80.7634 15.6047H74.5264V33.0695H80.7634ZM61.4098 3.5078V62.6312H74.5264V45.1663H81.8218C87.4162 45.1663 91.7002 43.5912 94.6738 40.441C97.597 37.3412 99.0585 32.9813 99.0585 27.3613V21.3129C99.0585 15.6928 97.597 11.333 94.6738 8.23314C91.7002 5.0829 87.4162 3.5078 81.8218 3.5078H61.4098ZM129.849 50.5343H149.316V62.6312H116.733V3.5078H129.849V50.5343ZM192.581 52.7647H179.805L177.348 62.6312H163.853L179.994 3.5078H192.43L208.533 62.6312H195.076L192.581 52.7647ZM186.193 22.9006L189.557 40.6678H182.829L186.193 22.9006ZM248.395 3.5078V31.9732L236.45 3.5078H223.825V62.6312H236.942V34.1658L248.887 62.6312H261.512V3.5078H248.395ZM281.983 3.5078H300.808C306.755 3.5078 311.316 4.84348 314.491 7.51489C317.918 10.3879 319.632 14.7478 319.632 20.5946V45.5444C319.632 51.3912 317.918 55.7511 314.491 58.6241C311.316 61.2955 306.755 62.6312 300.808 62.6312H281.983V3.5078ZM300.808 50.5343H295.1V15.6047H300.808C301.866 15.6047 302.71 15.6677 303.34 15.7937C304.096 15.9197 304.701 16.1465 305.155 16.4741C305.608 16.8521 305.948 17.3562 306.175 17.9862C306.402 18.6415 306.515 19.4983 306.515 20.5568V45.5822C306.515 46.6406 306.402 47.4975 306.175 48.1528C305.948 48.7828 305.608 49.2868 305.155 49.6649C304.701 49.9925 304.096 50.2193 303.34 50.3453C302.71 50.4713 301.866 50.5343 300.808 50.5343Z" fill="black"/>
<path fill-rule="evenodd" clip-rule="evenodd" d="M24.5699 0.255535H37.6865V43.1238C37.6865 45.7952 37.2833 48.2019 36.4769 50.3441C35.6957 52.4358 34.5491 54.2251 33.0371 55.712C31.5503 57.1738 29.7485 58.2952 27.6317 59.0765C25.4897 59.8325 23.0832 60.2106 20.412 60.2106H17.2368C14.5908 60.2106 12.1968 59.8325 10.0548 59.0765C7.93797 58.2952 6.12359 57.1738 4.61159 55.712C3.12479 54.2251 1.9908 52.4358 1.2096 50.3441C0.403195 48.2019 0 45.7952 0 43.1238V0.255535H13.1166V43.1616C13.1166 45.0517 13.5198 46.3622 14.3262 47.093C15.1074 47.7735 16.4304 48.1137 18.2952 48.1137H19.3914C21.2562 48.1137 22.5665 47.7735 23.3226 47.093C24.1542 46.3622 24.5699 45.0517 24.5699 43.1616V0.255535ZM77.5114 29.8172C78.6202 29.8172 79.5022 29.7164 80.1574 29.5148C80.8378 29.3132 81.367 28.9856 81.745 28.5319C82.0978 28.0783 82.3498 27.4861 82.501 26.7552C82.627 26.1 82.69 25.2179 82.69 24.109V18.0606C82.69 16.9517 82.627 16.0697 82.501 15.4144C82.3498 14.6835 82.0978 14.0913 81.745 13.6377C81.367 13.184 80.8378 12.8564 80.1574 12.6548C79.5022 12.4532 78.6202 12.3524 77.5114 12.3524H71.2745V29.8172H77.5114ZM58.1579 0.255535V59.3789H71.2745V41.9141H78.5698C84.1643 41.9141 88.4482 40.339 91.4218 37.1887C94.345 34.0889 95.8066 29.729 95.8066 24.109V18.0606C95.8066 12.4406 94.345 8.0807 91.4218 4.98087C88.4482 1.83063 84.1643 0.255535 78.5698 0.255535H58.1579ZM126.597 47.2821H146.064V59.3789H113.481V0.255535H126.597V47.2821ZM189.329 49.5124H176.553L174.096 59.3789H160.601L176.742 0.255535H189.178L205.281 59.3789H191.824L189.329 49.5124ZM182.941 19.6483L186.305 37.4156H179.577L182.941 19.6483ZM245.143 0.255535V28.7209L233.199 0.255535H220.573V59.3789H233.69V30.9135L245.635 59.3789H258.26V0.255535H245.143ZM278.731 0.255535H297.556C303.503 0.255535 308.064 1.59122 311.239 4.26262C314.666 7.13563 316.38 11.4955 316.38 17.3423V42.2921C316.38 48.1389 314.666 52.4988 311.239 55.3718C308.064 58.0432 303.503 59.3789 297.556 59.3789H278.731V0.255535ZM297.556 47.282H291.848V12.3524H297.556C298.614 12.3524 299.458 12.4154 300.088 12.5414C300.844 12.6674 301.449 12.8942 301.903 13.2218C302.356 13.5999 302.696 14.1039 302.923 14.734C303.15 15.3892 303.263 16.2461 303.263 17.3045V42.3299C303.263 43.3884 303.15 44.2452 302.923 44.9005C302.696 45.5305 302.356 46.0346 301.903 46.4126C301.449 46.7402 300.844 46.967 300.088 47.093C299.458 47.219 298.614 47.282 297.556 47.282Z" fill="#FFF23E"/>
</svg>
