<svg width="24" height="24" viewBox="0 0 24 24" fill="none" xmlns="http://www.w3.org/2000/svg">
<path d="M23 12C23 18.0751 18.0751 23 12 23C5.92487 23 1 18.0751 1 12C1 5.92487 5.92487 1 12 1C18.0751 1 23 5.92487 23 12Z" fill="#CCCCCC" stroke="#999999" stroke-width="2"/>
<path fill-rule="evenodd" clip-rule="evenodd" d="M18.7154 11.3167C18.9044 11.7513 18.9044 12.2493 18.7154 12.6836C18.2232 13.8153 17.4327 14.7671 16.4498 15.4801L18.1173 17.069C18.3412 17.2822 18.3412 17.627 18.1173 17.8402C18.0056 17.9466 17.8591 18 17.7126 18C17.566 18 17.4195 17.9466 17.3074 17.8397L15.4646 16.0839L13.144 13.8726L5.8593 6.93116C5.63552 6.71793 5.63552 6.37316 5.8593 6.15992C6.08319 5.94669 6.4449 5.94669 6.66879 6.15992L8.50964 7.91413C9.55203 7.38389 10.741 7.09106 11.9883 7.09106C14.9581 7.09106 17.5986 8.74968 18.7154 11.3167ZM11.9882 9.81831C11.564 9.81831 11.1684 9.93067 10.8291 10.1243L13.9567 13.1047C14.16 12.7812 14.2779 12.4043 14.2779 12.0002C14.2779 10.7969 13.251 9.81831 11.9882 9.81831Z" fill="#999999"/>
<path d="M11.8761 14.2388C10.6381 14.2388 9.63133 13.2636 9.63133 12.0646C9.63133 11.9858 9.64705 11.9112 9.65548 11.8352L6.86319 9.13046C6.19653 9.75997 5.65164 10.5182 5.28183 11.3835C5.09657 11.8162 5.09657 12.3124 5.28183 12.7457C6.37604 15.3036 8.96467 16.9566 11.8761 16.9566C12.7835 16.9566 13.6594 16.7956 14.4686 16.4972L12.1128 14.2154C12.0343 14.2235 11.9574 14.2388 11.8761 14.2388Z" fill="#999999"/>
</svg>
