<svg width="16" height="12" viewBox="0 0 16 12" fill="none" xmlns="http://www.w3.org/2000/svg">
<path fill-rule="evenodd" clip-rule="evenodd" d="M7.99998 0C11.4589 0 14.5343 2.02734 15.835 5.16467C16.055 5.69531 16.055 6.30469 15.835 6.83533C14.5343 9.97266 11.4589 12 7.99998 12C4.54123 12 1.46579 9.97266 0.165076 6.83533C-0.0550254 6.30408 -0.0550254 5.69531 0.165076 5.16467C1.46579 2.02734 4.54123 0 7.99998 0ZM5.3332 6.00002C5.3332 7.47073 6.5293 8.66677 7.99994 8.66677C9.4707 8.66677 10.6668 7.47073 10.6668 6.00002C10.6668 4.52944 9.4707 3.3334 7.99994 3.3334C6.5293 3.3334 5.3332 4.52944 5.3332 6.00002Z" fill="#8B8B8B"/>
</svg>
