<svg id="Слой_1" data-name="Слой 1" xmlns="http://www.w3.org/2000/svg" xmlns:xlink="http://www.w3.org/1999/xlink" viewBox="0 0 54 58">
  <defs>
    <style>
      .cls-1, .cls-4 {
        fill-rule: evenodd;
      }

      .cls-1 {
        opacity: 0.25;
      }

      .cls-2 {
        fill: url(#Безымянный_градиент);
      }

      .cls-3 {
        fill: none;
        stroke: #232323;
        stroke-width: 2px;
      }

      .cls-4 {
        fill: #b1ad29;
      }
    </style>
    <linearGradient id="Безымянный_градиент" data-name="Безымянный градиент" x1="27" y1="43.21" x2="27" y2="18.68" gradientTransform="matrix(1, 0, 0, -1, 0, 60)" gradientUnits="userSpaceOnUse">
      <stop offset="0" stop-color="#fff71a"/>
      <stop offset="1" stop-color="#ece636"/>
    </linearGradient>
  </defs>
  <path class="cls-1" d="M.06,36.9c.08,5.45.88,9.72,1.82,12a18.09,18.09,0,0,0,1.49,2.85,16.92,16.92,0,0,0,2.3,2.73c3.09,2.87,8.38,3.44,9.05,3.51H40A14.23,14.23,0,0,0,54,43.56V36.9A14.24,14.24,0,0,1,40,51.34H14.08A14.24,14.24,0,0,1,.06,36.9Z"/>
  <g>
    <rect class="cls-2" width="54" height="54" rx="15"/>
    <rect class="cls-3" x="1" y="1" width="52" height="52" rx="14"/>
  </g>
  <path class="cls-4" d="M2,33v6A13,13,0,0,0,15,52H39A13,13,0,0,0,52,39V33A13,13,0,0,1,39,46H15A13,13,0,0,1,2,33Z"/>
  <path d="M22.33,20.4a7.44,7.44,0,0,1-1.71.61,8.73,8.73,0,0,1-2.11.24,6,6,0,0,1-2.2-.38,5,5,0,0,1-1.72-1.06,4.83,4.83,0,0,1-1.12-1.64A5.48,5.48,0,0,1,13.06,16a5.58,5.58,0,0,1,.41-2.16,4.79,4.79,0,0,1,1.14-1.63,5,5,0,0,1,1.71-1.05,5.91,5.91,0,0,1,2.12-.37,6.2,6.2,0,0,1,2.18.37,4.43,4.43,0,0,1,1.64,1l-1.51,1.72a2.6,2.6,0,0,0-.93-.66,3,3,0,0,0-1.3-.26,2.93,2.93,0,0,0-1.16.23,2.74,2.74,0,0,0-.93.65,3,3,0,0,0-.61,1A3.45,3.45,0,0,0,15.61,16a3.87,3.87,0,0,0,.19,1.26,3,3,0,0,0,.58,1,2.92,2.92,0,0,0,.95.65,3.55,3.55,0,0,0,1.3.22,6.73,6.73,0,0,0,.8,0,3.58,3.58,0,0,0,.7-.21V17.08H18.24V15.15h4.09Zm2.75.6V11.09h6.67v2H27.39V15h4.12V16.9H27.39V19H32v2Zm13.55-7.87V21h-2.4V13.13h-2.8v-2h8v2Zm-17,18.13a4.32,4.32,0,0,1-.3,1.64,3.45,3.45,0,0,1-.86,1.26,3.76,3.76,0,0,1-1.36.81,4.83,4.83,0,0,1-1.75.3,4.89,4.89,0,0,1-1.76-.3,3.72,3.72,0,0,1-1.33-.81,3.67,3.67,0,0,1-.84-1.26,4.31,4.31,0,0,1-.29-1.64V25.09h2.38v6a3.25,3.25,0,0,0,.09.77,2.34,2.34,0,0,0,.33.65,1.59,1.59,0,0,0,.57.45,2.08,2.08,0,0,0,.87.17,2,2,0,0,0,.85-.17,1.5,1.5,0,0,0,.59-.45,1.72,1.72,0,0,0,.32-.65,2.8,2.8,0,0,0,.1-.77v-6h2.39Zm9.66-3.12A3.13,3.13,0,0,1,31,29.61a2.74,2.74,0,0,1-.87.95,4,4,0,0,1-1.26.53,6.08,6.08,0,0,1-1.49.17H26.18V35H23.79V25.09h3.64a6,6,0,0,1,1.51.17,3.26,3.26,0,0,1,1.23.51,2.43,2.43,0,0,1,.83.94A2.94,2.94,0,0,1,31.31,28.14Zm-2.4,0a1,1,0,0,0-.14-.57.89.89,0,0,0-.37-.35,1.77,1.77,0,0,0-.55-.17,4.12,4.12,0,0,0-.62,0H26.18v2.34h1a3.42,3.42,0,0,0,.65-.06,1.82,1.82,0,0,0,.54-.19,1,1,0,0,0,.53-1Zm10,6.85-2.17-3.5L34.67,35H31.81l3.47-5.24-3.19-4.67H35l1.84,3.08,1.82-3.08h2.79l-3.14,4.67L41.88,35Z"/>
</svg>
