<svg width="66" height="83" viewBox="0 0 66 83" fill="none" xmlns="http://www.w3.org/2000/svg">
    <path fill-rule="evenodd" clip-rule="evenodd" d="M8.68739 76.8962L22.9085 82.9999H48.0782L64.0249 70.5072L64.5604 61.8364L65.0959 50.5986L60.8117 33.7704L58.0151 32.2872L55.04 41.6426L46.3526 16.657L29.8108 11.1237L11.008 33.5993L6.96181 53.3367L1.42806 48.8872L0 60.5243L8.68739 76.8962Z" fill="#FFA600"/>
    <path fill-rule="evenodd" clip-rule="evenodd" d="M46.3526 16.657L29.8108 11.1237L23.444 0L36.1776 3.1945L46.3526 16.657Z" fill="#FED406"/>
    <path fill-rule="evenodd" clip-rule="evenodd" d="M29.8109 11.1237L23.4441 0L22.7301 10.5533L29.8109 11.1237Z" fill="#FFA600"/>
    <path fill-rule="evenodd" clip-rule="evenodd" d="M29.8108 11.1237L22.73 10.5532L11.008 33.5993L29.8108 11.1237Z" fill="#FED406"/>
    <path fill-rule="evenodd" clip-rule="evenodd" d="M55.04 41.6426L46.3526 16.657L53.0764 53.6219L55.04 41.6426Z" fill="#FF880C"/>
    <path fill-rule="evenodd" clip-rule="evenodd" d="M11.008 33.5994L19.9334 22.932L6.96184 53.3368L11.008 33.5994Z" fill="#FF880C"/>
    <path fill-rule="evenodd" clip-rule="evenodd" d="M6.96179 53.3368L1.42804 48.8874L4.9387 36.6798L8.62786 45.0654L6.96179 53.3368Z" fill="#FED406"/>
    <path fill-rule="evenodd" clip-rule="evenodd" d="M55.04 41.6427L55.278 31.7169L58.0151 32.2874L58.7292 44.7231L53.0764 53.6221L55.04 41.6427Z" fill="#FED406"/>
    <path fill-rule="evenodd" clip-rule="evenodd" d="M8.68744 76.8962L12.8526 69.5945L22.016 76.0976L22.9086 83L8.68744 76.8962Z" fill="#EB3D08"/>
    <path fill-rule="evenodd" clip-rule="evenodd" d="M22.9085 83.0001L22.016 76.0976L46.9476 75.9265L48.0782 83.0001H22.9085Z" fill="#D41E02"/>
    <path fill-rule="evenodd" clip-rule="evenodd" d="M48.0782 83L46.9476 75.9264L56.8845 68.91L56.7655 64.0612L64.0249 70.5072L48.0782 83Z" fill="#EB3D08"/>
    <path fill-rule="evenodd" clip-rule="evenodd" d="M46.9476 75.9265L22.016 76.0976L12.8526 69.5945L9.46091 60.2962L51.1128 59.6117L56.8845 68.91L46.9476 75.9265Z" fill="#FA6400"/>
    <path fill-rule="evenodd" clip-rule="evenodd" d="M53.0764 53.6219L51.1128 59.6116L10.77 63.89L6.96184 53.3367L19.1004 34.8542L22.611 41.3573L31.4174 30.2336L32.0125 16.0865L43.6155 33.4281L53.0764 53.6219Z" fill="#FED406"/>
    <path fill-rule="evenodd" clip-rule="evenodd" d="M13.0906 50.0282L16.6607 44.1526L20.8854 47.7464L26.1812 48.7732L25.9431 56.3031L11.008 56.0749L17.3748 55.1052L18.2673 49.8L16.5417 47.0048L13.0906 50.0282Z" fill="#030303"/>
    <path fill-rule="evenodd" clip-rule="evenodd" d="M18.2673 49.8L17.3748 55.1051L13.1501 55.7326L14.1617 49.0584L16.5418 47.0048L18.2673 49.8Z" fill="#FF880C"/>
    <path fill-rule="evenodd" clip-rule="evenodd" d="M20.1119 52.6522L20.4094 49.9711L17.9698 49.8571L17.5533 52.5382L20.1119 52.6522Z" fill="white"/>
    <path fill-rule="evenodd" clip-rule="evenodd" d="M48.3756 50.0282L44.8054 44.1526L40.5808 47.7464L35.285 48.7732L35.523 56.3031L50.4582 56.0749L44.0914 55.1052L43.1989 49.8L44.9244 47.0048L48.3756 50.0282Z" fill="#030303"/>
    <path fill-rule="evenodd" clip-rule="evenodd" d="M43.199 49.8L44.0915 55.1051L48.3162 55.7326L47.3047 49.0584L44.9246 47.0048L43.199 49.8Z" fill="#FF880C"/>
    <path fill-rule="evenodd" clip-rule="evenodd" d="M41.3543 52.6522L41.0568 49.9711L43.4964 49.8571L43.8534 52.5382L41.3543 52.6522Z" fill="white"/>
    <path fill-rule="evenodd" clip-rule="evenodd" d="M16.2442 66.8564L17.4342 68.2254L24.158 66.1148L49.6847 72.3327L46.888 62.1787L24.9911 64.4605L16.2442 66.8564Z" fill="#030303"/>
    <path fill-rule="evenodd" clip-rule="evenodd" d="M47.2451 69.7085L27.6092 65.4872L45.5195 63.5477L47.2451 69.7085Z" fill="white"/>
    <path fill-rule="evenodd" clip-rule="evenodd" d="M12.8526 69.5945L6.96184 53.3368L8.68742 76.8962L12.8526 69.5945Z" fill="#FF880C"/>
    <path fill-rule="evenodd" clip-rule="evenodd" d="M64.0248 70.5072L56.8845 68.91L51.1128 59.6117L65.0959 50.5986L64.5604 61.8364L64.0248 70.5072Z" fill="#FF880C"/>
</svg>
