<svg width="168" height="168" viewBox="0 0 168 168" fill="none" xmlns="http://www.w3.org/2000/svg">
<g clip-path="url(#clip0)">
<path d="M152.016 44.3766L83.5078 83.8766V163L152.016 123.5V44.3766Z" fill="#BDBDBD"/>
<path fill-rule="evenodd" clip-rule="evenodd" d="M154.517 40.0472C156.063 40.9405 157.016 42.5908 157.016 44.3766V123.5C157.016 125.287 156.062 126.939 154.513 127.832L86.0053 167.332C84.4582 168.224 82.5529 168.223 81.0066 167.329C79.4603 166.436 78.5078 164.786 78.5078 163V83.8766C78.5078 82.0892 79.4619 80.4378 81.0103 79.545L149.518 40.045C151.065 39.153 152.971 39.1538 154.517 40.0472ZM83.5078 83.8766L152.016 44.3766V123.5L83.5078 163V83.8766Z" fill="black"/>
<path d="M15 44.3766L83.5078 83.8766V163L15 123.5V44.3766Z" fill="#EFEFEF"/>
<path d="M46.1497 86.2025C50.8897 88.9659 54.8652 95.721 54.8652 101.248C54.8652 106.775 50.8897 108.924 46.1497 106.161C41.4097 103.397 37.4342 96.6421 37.4342 91.1152C37.4342 85.5884 41.4097 83.439 46.1497 86.2025Z" fill="black"/>
<path d="M52.8775 109.845C56.5471 114.604 59.1465 120.899 58.9936 126.272V131.339L33 116.14V111.073C33 105.7 35.5994 102.322 39.269 101.862C41.1039 104.625 43.5503 107.082 45.9968 108.617C48.5962 110.152 51.0426 110.459 52.8775 109.845Z" fill="black"/>
<path d="M121.85 85.2025C117.11 87.9659 113.135 94.721 113.135 100.248C113.135 105.775 117.11 107.924 121.85 105.161C126.59 102.397 130.566 95.6421 130.566 90.1152C130.566 84.5884 126.59 82.439 121.85 85.2025Z" fill="black"/>
<path d="M115.123 108.845C111.453 113.604 108.854 119.899 109.006 125.272V130.339L135 115.14V110.073C135 104.7 132.401 101.322 128.731 100.862C126.896 103.625 124.45 106.082 122.003 107.617C119.404 109.152 116.957 109.459 115.123 108.845Z" fill="black"/>
<path fill-rule="evenodd" clip-rule="evenodd" d="M12.4987 40.0472C14.045 39.1538 15.9504 39.153 17.4975 40.045L86.0053 79.545C87.5537 80.4378 88.5078 82.0892 88.5078 83.8766V163C88.5078 164.786 87.5554 166.436 86.0091 167.329C84.4628 168.223 82.5574 168.224 81.0103 167.332L12.5025 127.832C10.9541 126.939 10 125.287 10 123.5V44.3766C10 42.5908 10.9524 40.9405 12.4987 40.0472ZM15 44.3766V123.5L83.5078 163V83.8766L15 44.3766Z" fill="black"/>
<path d="M15 44.5L85.5078 84.1234L152.016 44.5L83.5078 5L15 44.5Z" fill="#EFEFEF"/>
<path fill-rule="evenodd" clip-rule="evenodd" d="M10.0001 44.5276C9.99017 42.7304 10.9456 41.0661 12.5025 40.1684L81.0103 0.668423C82.556 -0.222808 84.4596 -0.222808 86.0053 0.668423L154.513 40.1684C156.05 41.0548 157.003 42.6897 157.015 44.4643C157.028 46.2388 156.099 47.8872 154.575 48.7954L88.0669 88.4189C86.5291 89.3351 84.6188 89.3593 83.0582 88.4823L12.5504 48.8588C10.9837 47.9784 10.01 46.3248 10.0001 44.5276ZM85.5078 84.1234L15 44.5L83.5078 5L152.016 44.5L85.5078 84.1234Z" fill="black"/>
<g clip-path="url(#clip1)">
<path d="M91.9375 48.7742C93.3438 52.4838 91.7812 56.5161 87.0938 59.258L82.5625 62L56 46.0322L60.375 43.4516C65.0625 40.5484 71.7813 39.5806 78.0312 40.5484C78.3438 42.6451 79.9062 44.5806 82.5625 46.1935C85.2188 47.6451 88.5 48.4516 91.9375 48.7742Z" fill="black"/>
<path d="M102.406 34.258C107.25 37.1612 107.406 41.8387 102.406 44.9032C97.5625 47.8064 89.5937 47.8064 84.75 44.9032C79.9062 41.9999 79.75 37.3225 84.75 34.258C89.5937 31.1935 97.4062 31.1935 102.406 34.258Z" fill="black"/>
</g>
</g>
<defs>
<clipPath id="clip0">
<rect width="168" height="168" fill="white"/>
</clipPath>
<clipPath id="clip1">
<rect width="50" height="30" fill="white" transform="translate(56 32)"/>
</clipPath>
</defs>
</svg>
