<svg width="243" height="156" viewBox="0 0 243 156" fill="none" xmlns="http://www.w3.org/2000/svg">
<path fill-rule="evenodd" clip-rule="evenodd" d="M87.3108 111.955L18.0678 113.158L0 143.309H87.3108H241.316L223.248 113.158L87.3108 111.955Z" fill="#82CE23"/>
<path fill-rule="evenodd" clip-rule="evenodd" d="M175.927 112.74L226.755 126.821L179.791 143.308H0L9.97197 127.739L49.4826 112.607L175.927 112.74Z" fill="#5A9102"/>
<path fill-rule="evenodd" clip-rule="evenodd" d="M33.3521 42.3652L22.3605 49.5434L33.0972 56.6604L61.2491 56.6808L72.1082 49.5434L61.1064 42.3652H33.3521Z" fill="#82CE23"/>
<path fill-rule="evenodd" clip-rule="evenodd" d="M61.1063 56.7323L72.1081 49.5439L80.6424 61.3614L66.0719 70.9459L61.1063 56.7323Z" fill="#5AA300"/>
<path fill-rule="evenodd" clip-rule="evenodd" d="M33.0971 56.6611L61.2491 56.6815L66.0719 70.9461L28.2437 70.9257L33.0971 56.6611Z" fill="#6CBA0D"/>
<path fill-rule="evenodd" clip-rule="evenodd" d="M33.0972 56.661L22.3605 49.5439L13.816 61.3614L28.2437 70.9255L33.0972 56.661Z" fill="#5AA300"/>
<path fill-rule="evenodd" clip-rule="evenodd" d="M33.2093 56.0594L22.3605 49.5439L33.0972 56.661L47.1069 56.7017L61.1064 56.7323L72.1082 49.5439L61.2593 55.8656L47.2394 55.9676L33.2093 56.0594Z" fill="white"/>
<path fill-rule="evenodd" clip-rule="evenodd" d="M60.5455 93.5408L66.1025 91.9502L80.6424 61.3613L66.0719 70.9458L60.5455 93.5408Z" fill="#457000"/>
<path fill-rule="evenodd" clip-rule="evenodd" d="M33.8007 93.5207L60.5455 93.5411L66.0719 70.9462L28.2437 70.9258L33.8007 93.5207Z" fill="#5A9102"/>
<path fill-rule="evenodd" clip-rule="evenodd" d="M33.8007 93.5204L27.9786 90.8898L13.816 61.3613L28.2437 70.9254L33.8007 93.5204Z" fill="#457000"/>
<path fill-rule="evenodd" clip-rule="evenodd" d="M9.97198 108.295L38.1239 115.799V135.244L9.97198 127.739V108.295Z" fill="#919296"/>
<path fill-rule="evenodd" clip-rule="evenodd" d="M82.1005 108.295L38.1239 115.799V135.244L82.1005 127.739V108.295Z" fill="#B8BDBF"/>
<path fill-rule="evenodd" clip-rule="evenodd" d="M82.1005 108.295L67.0814 110.854L53.6631 132.593L82.1005 127.739V108.295Z" fill="#919296"/>
<path fill-rule="evenodd" clip-rule="evenodd" d="M38.1239 115.799L82.1005 108.295L53.9486 100.79L9.97198 108.295L38.1239 115.799Z" fill="#D0D6D9"/>
<path fill-rule="evenodd" clip-rule="evenodd" d="M34.9121 105.97L59.2914 108.101L33.1073 114.463L16.1203 109.936L34.9121 105.97Z" fill="#B8BDBF"/>
<path fill-rule="evenodd" clip-rule="evenodd" d="M42.1412 93.5303H59.2914V108.101L42.1412 110.609V93.5303Z" fill="#5AA300"/>
<path fill-rule="evenodd" clip-rule="evenodd" d="M59.2914 93.5302V108.101L62.2789 104.236L62.2178 92.7451L59.2914 93.5302Z" fill="#6CBA0D"/>
<path fill-rule="evenodd" clip-rule="evenodd" d="M42.1413 93.5305V110.609L32.5975 107.989V92.9697L33.8007 93.5203L42.1413 93.5305Z" fill="#457000"/>
<path fill-rule="evenodd" clip-rule="evenodd" d="M0 155.84H241.316V143.309H0V155.84Z" fill="#5AA300"/>
<path fill-rule="evenodd" clip-rule="evenodd" d="M111.823 116.809L81.9374 117.267L74.1372 128.789H111.823H178.282L170.482 117.267L111.823 116.809Z" fill="#E3E3E3"/>
<path fill-rule="evenodd" clip-rule="evenodd" d="M77.7875 123.396L74.1372 128.789H111.823H132.837L138.67 125.832L77.7875 123.396Z" fill="#B8BDBF"/>
<path fill-rule="evenodd" clip-rule="evenodd" d="M74.1372 138.353H178.282V128.789H74.1372V138.353Z" fill="#B8BDBF"/>
<path fill-rule="evenodd" clip-rule="evenodd" d="M74.1372 138.353H113.893L132.837 128.789H74.1372V138.353Z" fill="#919296"/>
<path fill-rule="evenodd" clip-rule="evenodd" d="M178.282 132.919V131.645L157.278 132.501L178.282 132.919Z" fill="#A7ADB0"/>
<path fill-rule="evenodd" clip-rule="evenodd" d="M74.1372 135.917V134.397L106.5 135.407L74.1372 135.917Z" fill="#A7ADB0"/>
<path fill-rule="evenodd" clip-rule="evenodd" d="M67.0814 107.826L107.55 117.39V132.746L67.0814 123.192V107.826Z" fill="#A7ADB0"/>
<path fill-rule="evenodd" clip-rule="evenodd" d="M96.7423 114.83L85.5366 118.052L72.3325 109.069L96.7423 114.83Z" fill="#919296"/>
<path fill-rule="evenodd" clip-rule="evenodd" d="M170.767 107.826L107.55 117.39V132.746L170.767 123.192V107.826Z" fill="#D0D6D9"/>
<path fill-rule="evenodd" clip-rule="evenodd" d="M156.584 109.978L150.732 110.854L148.305 126.587L160.826 124.691L156.584 109.978Z" fill="#A7ADB0"/>
<path fill-rule="evenodd" clip-rule="evenodd" d="M107.55 117.39L170.767 107.825L130.298 98.2715L67.0814 107.825L107.55 117.39Z" fill="#E3E3E3"/>
<path fill-rule="evenodd" clip-rule="evenodd" d="M67.0814 115.513V112.862L96.8443 121.223L67.0814 115.513Z" fill="#D0D6D9"/>
<path fill-rule="evenodd" clip-rule="evenodd" d="M74.6165 96.7725L99.1997 107.02V115.401L74.6165 105.164V96.7725Z" fill="#A7ADB0"/>
<path fill-rule="evenodd" clip-rule="evenodd" d="M76.1051 97.3945L89.1971 102.85L77.1961 106.235L76.1051 97.3945Z" fill="#919296"/>
<path fill-rule="evenodd" clip-rule="evenodd" d="M176.712 98.5879L99.1997 107.02V115.402L176.712 106.969V98.5879Z" fill="#D0D6D9"/>
<path fill-rule="evenodd" clip-rule="evenodd" d="M125.435 104.165L173.908 97.415L168.494 102.85L145.44 108.539L125.435 104.165Z" fill="#A7ADB0"/>
<path fill-rule="evenodd" clip-rule="evenodd" d="M99.1997 107.02L176.712 98.5881L152.129 88.3408L74.6165 96.7731L99.1997 107.02Z" fill="#E3E3E3"/>
<path fill-rule="evenodd" clip-rule="evenodd" d="M112.567 82.4268L84.2519 82.8652L76.8596 93.7854H112.567H175.56L168.167 82.8652L112.567 82.4268Z" fill="#E3E3E3"/>
<path fill-rule="evenodd" clip-rule="evenodd" d="M76.8596 102.85H175.56V93.7852H76.8596V102.85Z" fill="#B8BDBF"/>
<path fill-rule="evenodd" clip-rule="evenodd" d="M90.2167 93.7852H151.894L129.534 102.85H106.408L90.2167 93.7852Z" fill="#A7ADB0"/>
<path fill-rule="evenodd" clip-rule="evenodd" d="M137.956 102.799L125.435 104.165L89.1971 102.85L137.956 102.799Z" fill="#A7ADB0"/>
<path fill-rule="evenodd" clip-rule="evenodd" d="M168.31 80.1836L143.727 90.4207V98.8122L168.31 88.5649V80.1836Z" fill="#D0D6D9"/>
<path fill-rule="evenodd" clip-rule="evenodd" d="M66.2147 81.9883L143.727 90.4206V98.8122L66.2147 90.3798V81.9883Z" fill="#B8BDBF"/>
<path fill-rule="evenodd" clip-rule="evenodd" d="M143.727 90.4204L66.2147 81.988L90.798 71.751L168.31 80.1833L143.727 90.4204Z" fill="#E3E3E3"/>
<path fill-rule="evenodd" clip-rule="evenodd" d="M104.685 73.2607L133.469 81.3668L109.019 86.6485L74.0862 82.8452L104.685 73.2607Z" fill="#A7ADB0"/>
<path fill-rule="evenodd" clip-rule="evenodd" d="M170.767 113.964V111.914L126.148 118.409L170.767 113.964Z" fill="#A7ADB0"/>
<path fill-rule="evenodd" clip-rule="evenodd" d="M170.767 118.654V116.604L154.606 120.265L170.767 118.654Z" fill="#A7ADB0"/>
<path fill-rule="evenodd" clip-rule="evenodd" d="M74.0863 82.8447L109.019 86.6479L89.9517 92.9594L66.2147 90.3798L74.0863 82.8447Z" fill="#919296"/>
<path fill-rule="evenodd" clip-rule="evenodd" d="M133.908 19.4443L152.608 37.8282L152.842 64.0429L134.458 82.7531L108.234 82.9774L89.5336 64.6037L89.2991 38.3788L107.683 19.6687L133.908 19.4443Z" fill="#74C1E8"/>
<path fill-rule="evenodd" clip-rule="evenodd" d="M131.909 24.3994L147.693 39.908L147.887 62.0441L132.368 77.8279L111.7 74.402L97.8639 60.9837L94.0709 40.377L109.59 24.5931L131.909 24.3994Z" fill="#ABABAB"/>
<path fill-rule="evenodd" clip-rule="evenodd" d="M152.608 37.8282L133.908 19.4443L130.839 27.0304L145.419 40.8769L152.608 37.8282Z" fill="#1C4B63"/>
<path fill-rule="evenodd" clip-rule="evenodd" d="M152.608 37.8281L145.419 40.8768L144.257 60.576L152.842 64.0428L152.608 37.8281Z" fill="#2B6887"/>
<path fill-rule="evenodd" clip-rule="evenodd" d="M131.695 77.838L111.7 74.4019L97.8639 60.9836L94.2545 40.3769L104.706 29.7422L129.289 29.3955L142.789 42.6303L144.726 64.5829L131.695 77.838Z" fill="#E3E3E3"/>
<path fill-rule="evenodd" clip-rule="evenodd" d="M96.1612 41.1421L98.0475 60.9841L89.5336 64.6037L89.2991 38.3789L96.1612 41.1421Z" fill="#5AADD6"/>
<path fill-rule="evenodd" clip-rule="evenodd" d="M107.683 19.6689L89.2991 38.3791L96.1612 41.1423L110.834 27.0918L107.683 19.6689Z" fill="#4089AD"/>
<path fill-rule="evenodd" clip-rule="evenodd" d="M130.298 72.4033L111.7 74.4018L108.234 82.9769L134.458 82.7526L130.298 72.4033Z" fill="#5AADD6"/>
<path fill-rule="evenodd" clip-rule="evenodd" d="M144.257 60.5762L130.298 72.4039L134.458 82.7531L152.842 64.0429L144.257 60.5762Z" fill="#4089AD"/>
<path fill-rule="evenodd" clip-rule="evenodd" d="M107.683 19.6687L110.834 27.0915L130.839 27.0304L133.908 19.4443L107.683 19.6687Z" fill="#2B6887"/>
<path fill-rule="evenodd" clip-rule="evenodd" d="M124.13 27.2959L128.585 31.6803L128.647 37.9204L124.262 42.3762L118.012 42.4374L113.556 38.053L113.505 31.8027L117.879 27.3469L124.13 27.2959Z" fill="white"/>
<path fill-rule="evenodd" clip-rule="evenodd" d="M124.13 27.2959L128.585 31.6803L128.647 37.9204L124.884 41.744L118.726 41.8052L114.27 37.4208L114.219 31.1705L117.971 27.3469L124.13 27.2959Z" fill="#2B6887"/>
<path fill-rule="evenodd" clip-rule="evenodd" d="M108.162 38.7157L103.37 36.1768L106.031 33.332L109.335 37.3086L108.162 38.7157Z" fill="#CFCFCF"/>
<path fill-rule="evenodd" clip-rule="evenodd" d="M104.226 50.0942L98.9753 51.3891L99.0569 47.4941L104.165 48.2589L104.226 50.0942Z" fill="#CFCFCF"/>
<path fill-rule="evenodd" clip-rule="evenodd" d="M109.875 62.1362L107.194 66.8469L104.43 64.0939L108.499 60.9229L109.875 62.1362Z" fill="#CFCFCF"/>
<path fill-rule="evenodd" clip-rule="evenodd" d="M131.93 62.4424L136.202 65.7664L133.092 68.1115L130.533 63.6252L131.93 62.4424Z" fill="#CFCFCF"/>
<path fill-rule="evenodd" clip-rule="evenodd" d="M137.935 48.0655L143.248 47.0459L142.952 50.9307L137.895 49.9009L137.935 48.0655Z" fill="#CFCFCF"/>
<path fill-rule="evenodd" clip-rule="evenodd" d="M132.521 37.1651L135.284 32.5156L137.997 35.3094L133.867 38.4091L132.521 37.1651Z" fill="#CFCFCF"/>
<path fill-rule="evenodd" clip-rule="evenodd" d="M132.939 15.9268L133.908 19.4445L107.683 19.6688L108.754 16.2428L132.939 15.9268Z" fill="#5AADD6"/>
<path fill-rule="evenodd" clip-rule="evenodd" d="M122.529 18.9344H119.062V8.97266H122.529V18.9344Z" fill="#4089AD"/>
<path fill-rule="evenodd" clip-rule="evenodd" d="M122.529 18.9342L123.436 18.4447V8.49316L122.529 8.97239V18.9342Z" fill="#74C1E8"/>
<path fill-rule="evenodd" clip-rule="evenodd" d="M119.062 18.9342L118.155 18.4447V8.49316L119.062 8.97239V18.9342Z" fill="#2B6887"/>
<path fill-rule="evenodd" clip-rule="evenodd" d="M151.109 33.9946L132.939 15.9268L133.908 19.4445L152.608 37.8284L151.109 33.9946Z" fill="#74C1E8"/>
<path fill-rule="evenodd" clip-rule="evenodd" d="M89.9516 34.9635L108.754 16.2432L107.683 19.6691L89.2991 38.3793L89.9516 34.9635Z" fill="#1C4B63"/>
<path fill-rule="evenodd" clip-rule="evenodd" d="M123.579 12.5518H118.012V6.16895H123.579V12.5518Z" fill="#4089AD"/>
<path fill-rule="evenodd" clip-rule="evenodd" d="M123.579 12.5518L125.047 11.7667V5.38379L123.579 6.1689V12.5518Z" fill="#74C1E8"/>
<path fill-rule="evenodd" clip-rule="evenodd" d="M118.012 12.5518L116.544 11.7667V5.38379L118.012 6.1689V12.5518Z" fill="#2B6887"/>
<path fill-rule="evenodd" clip-rule="evenodd" d="M124.201 0L129.146 4.87383L129.207 11.8175L124.344 16.7729L123.12 16.7831V14.5807H123.416L127.005 10.9202L126.964 5.79149L123.304 2.2024L118.175 2.24318L114.586 5.90365L114.627 11.0324L118.287 14.6317H118.471V16.8239L117.4 16.8341L112.445 11.9602L112.383 5.01657L117.247 0.0611777L124.201 0Z" fill="#2B6887"/>
<path fill-rule="evenodd" clip-rule="evenodd" d="M116.544 5.38375L118.012 6.16886H123.579L125.047 5.38375L123.579 4.59863H118.012L116.544 5.38375Z" fill="#5AADD6"/>
<path fill-rule="evenodd" clip-rule="evenodd" d="M145.511 30.2525L141.576 26.3066L146.092 21.7998L150.028 25.7356L145.511 30.2525Z" fill="#2B6887"/>
<path fill-rule="evenodd" clip-rule="evenodd" d="M145.511 30.2523L147.102 30.7315L151.619 26.2146L150.028 25.7354L145.511 30.2523Z" fill="#1C4B63"/>
<path fill-rule="evenodd" clip-rule="evenodd" d="M141.575 26.3166L141.096 24.7259L145.613 20.209L146.092 21.7996L141.575 26.3166Z" fill="#4089AD"/>
<path fill-rule="evenodd" clip-rule="evenodd" d="M145.613 20.209L146.092 21.7996L150.028 25.7354L151.619 26.2146L151.14 24.624L147.194 20.6882L145.613 20.209Z" fill="#74C1E8"/>
<path fill-rule="evenodd" clip-rule="evenodd" d="M100.158 26.7757L96.2223 30.7115L91.7054 26.1946L95.6411 22.2588L100.158 26.7757Z" fill="#4089AD"/>
<path fill-rule="evenodd" clip-rule="evenodd" d="M100.158 26.7755L100.637 25.1849L96.1203 20.668L95.6411 22.2586L100.158 26.7755Z" fill="#5AADD6"/>
<path fill-rule="evenodd" clip-rule="evenodd" d="M96.2224 30.7113L94.6317 31.1905L90.1147 26.6736L91.7054 26.1943L96.2224 30.7113Z" fill="#1C4B63"/>
<path fill-rule="evenodd" clip-rule="evenodd" d="M90.1147 26.6736L91.7054 26.1944L95.6411 22.2586L96.1204 20.668L94.5297 21.1472L90.594 25.083L90.1147 26.6736Z" fill="#2B6887"/>
<path fill-rule="evenodd" clip-rule="evenodd" d="M121.805 33.4746L122.529 34.1883L122.539 35.208L121.825 35.9217L120.816 35.9319L120.092 35.2284L120.082 34.2087L120.795 33.4848L121.805 33.4746Z" fill="white"/>
<path fill-rule="evenodd" clip-rule="evenodd" d="M117.736 31.7315L116.36 30.9973L117.125 30.1816L118.083 31.3236L117.736 31.7315Z" fill="white"/>
<path fill-rule="evenodd" clip-rule="evenodd" d="M116.605 35.0041L115.096 35.3814L115.116 34.2598L116.595 34.4739L116.605 35.0041Z" fill="white"/>
<path fill-rule="evenodd" clip-rule="evenodd" d="M118.236 38.4814L117.461 39.8375L116.666 39.0422L117.838 38.1348L118.236 38.4814Z" fill="white"/>
<path fill-rule="evenodd" clip-rule="evenodd" d="M121.703 39.7041L122.1 41.2132L120.979 41.203L121.173 39.7245L121.703 39.7041Z" fill="white"/>
<path fill-rule="evenodd" clip-rule="evenodd" d="M124.588 38.5732L125.822 39.5215L124.925 40.2046L124.191 38.9097L124.588 38.5732Z" fill="white"/>
<path fill-rule="evenodd" clip-rule="evenodd" d="M126.322 34.4226L127.851 34.127L127.77 35.2486L126.312 34.9529L126.322 34.4226Z" fill="white"/>
<path fill-rule="evenodd" clip-rule="evenodd" d="M124.762 31.2824L125.557 29.9365L126.342 30.7522L125.149 31.6393L124.762 31.2824Z" fill="white"/>
<path fill-rule="evenodd" clip-rule="evenodd" d="M121.05 27.3262L120.337 32.822H122.08L121.05 27.3262Z" fill="#E66161"/>
<path fill-rule="evenodd" clip-rule="evenodd" d="M141.106 44.3435L133.235 40.8359L127.188 42.9466L127.382 51.746L141.657 51.2463L136.957 50.4918L136.029 44.2415L141.106 44.3435Z" fill="#030303"/>
<path fill-rule="evenodd" clip-rule="evenodd" d="M136.029 44.2412L136.956 50.4915L141.657 51.246L140.801 44.333L136.029 44.2412Z" fill="#999999"/>
<path fill-rule="evenodd" clip-rule="evenodd" d="M133.949 47.5447L133.643 44.4552L136.345 44.3125L136.763 47.4529L133.949 47.5447Z" fill="white"/>
<path fill-rule="evenodd" clip-rule="evenodd" d="M121.489 66.3984L122.743 71.6597L118.848 71.5374L119.653 66.4392L121.489 66.3984Z" fill="#CFCFCF"/>
<path fill-rule="evenodd" clip-rule="evenodd" d="M105.603 54.6826L104.93 57.7925L116.595 65.9597L127.912 66.1433L138.486 57.1297L136.559 54.8254L118.777 56.7321L105.603 54.6826Z" fill="#030303"/>
<path fill-rule="evenodd" clip-rule="evenodd" d="M117.166 64.2875L107.173 56.7219L118.98 58.5368L135.835 56.416L130.584 61.4632L124.629 62.2789L129.574 62.4726L128.065 64.2875H117.166Z" fill="white"/>
<path fill-rule="evenodd" clip-rule="evenodd" d="M100.648 44.3435L108.529 40.8359L114.565 42.9466L114.372 51.746L100.097 51.2463L104.797 50.4918L105.735 44.2415L100.648 44.3435Z" fill="#030303"/>
<path fill-rule="evenodd" clip-rule="evenodd" d="M105.735 44.2412L104.797 50.4915L100.097 51.246L100.953 44.333L105.735 44.2412Z" fill="#999999"/>
<path fill-rule="evenodd" clip-rule="evenodd" d="M107.805 47.5447L108.111 44.4552L105.409 44.3125L104.991 47.4529L107.805 47.5447Z" fill="white"/>
<path fill-rule="evenodd" clip-rule="evenodd" d="M144.206 46.4643L202.366 34.0146L226.755 126.322L168.606 141.82L144.206 46.4643Z" fill="#F0F0F0"/>
<path fill-rule="evenodd" clip-rule="evenodd" d="M162.009 128.789H157.237L154.922 138.353H164.772L162.009 128.789Z" fill="#919296"/>
<path fill-rule="evenodd" clip-rule="evenodd" d="M162.009 128.789H157.237L155.779 125.455L160.826 124.69L162.009 128.789Z" fill="#B8BDBF"/>
<path fill-rule="evenodd" clip-rule="evenodd" d="M144.206 46.4642L168.596 141.82L162.977 140.861L139.271 45.832L144.206 46.4642Z" fill="#B8BDBF"/>
<path fill-rule="evenodd" clip-rule="evenodd" d="M139.271 45.832L144.206 46.4642L202.366 34.0145L196.268 33.3008L139.271 45.832Z" fill="white"/>
<path fill-rule="evenodd" clip-rule="evenodd" d="M0 143.309H179.791L172.827 155.84H0V143.309Z" fill="#457000"/>
<path fill-rule="evenodd" clip-rule="evenodd" d="M153.311 55.7125L199.307 45.873L200.123 48.9625L154.137 58.8019L153.311 55.7125Z" fill="#A7ADB0"/>
<path fill-rule="evenodd" clip-rule="evenodd" d="M154.759 61.1675L200.755 51.3281L201.57 54.4176L155.575 64.257L154.759 61.1675Z" fill="#A7ADB0"/>
<path fill-rule="evenodd" clip-rule="evenodd" d="M156.391 67.3463L202.386 57.5068L203.202 60.5963L157.217 70.4357L156.391 67.3463Z" fill="#A7ADB0"/>
<path fill-rule="evenodd" clip-rule="evenodd" d="M158.032 73.525L204.028 63.6855L204.843 66.775L158.848 76.6145L158.032 73.525Z" fill="#A7ADB0"/>
<path fill-rule="evenodd" clip-rule="evenodd" d="M159.674 79.7146L190.059 73.1992L190.885 76.2989L160.49 82.8041L159.674 79.7146Z" fill="#A7ADB0"/>
<path fill-rule="evenodd" clip-rule="evenodd" d="M161.305 85.8935L207.301 76.0439L208.116 79.1334L162.121 88.983L161.305 85.8935Z" fill="#A7ADB0"/>
<path fill-rule="evenodd" clip-rule="evenodd" d="M163.763 95.1621L209.758 85.3125L210.574 88.402L164.578 98.2516L163.763 95.1621Z" fill="#A7ADB0"/>
<path fill-rule="evenodd" clip-rule="evenodd" d="M165.404 101.34L211.389 91.501L212.215 94.5904L166.22 104.43L165.404 101.34Z" fill="#A7ADB0"/>
<path fill-rule="evenodd" clip-rule="evenodd" d="M167.036 107.52L197.431 101.015L198.246 104.104L167.851 110.609L167.036 107.52Z" fill="#A7ADB0"/>
<path d="M168.708 115.615L195.871 85.7811L196.676 84.8838L197.563 85.6995L210.717 97.6699L211.604 98.4856L210.798 99.3727L183.635 129.207L182.819 130.094L181.932 129.289L168.789 117.308L167.892 116.502L168.708 115.615ZM177.976 117.767L198.879 94.8048L201.53 97.2213L180.627 120.234L177.976 117.818V117.767ZM196.839 88.2893L171.298 116.339L182.667 126.689L208.157 98.6386L196.839 88.2893Z" fill="#1F93D1"/>
<path d="M195.983 125.394L197.37 120.785L198.991 120.377L201.285 122.671L202.916 112.342L204.721 112.006L210.033 121.152L210.859 117.614L212.756 118.052L211.359 123.966L209.574 124.231L204.405 115.33L202.906 124.853L201.265 125.394L198.766 122.895L197.839 125.954L195.983 125.394Z" fill="#030303"/>
<path fill-rule="evenodd" clip-rule="evenodd" d="M221.565 103.339L213.357 116.493L211.532 115.718L215.713 100.597L221.565 103.339Z" fill="#030303"/>
<path fill-rule="evenodd" clip-rule="evenodd" d="M221.565 103.339L215.713 100.596L237.359 48.3301L242.672 50.9811L221.565 103.339Z" fill="#5A9102"/>
</svg>
