<svg width="375" height="418" viewBox="0 0 375 390" fill="none" xmlns="http://www.w3.org/2000/svg">
<path d="M127.333 348.705C49.9641 315.094 14.3847 225.309 47.9153 148.062C81.4216 70.8575 171.282 35.4676 248.675 69.0379C326.044 102.649 361.558 192.451 328.093 269.68C294.562 346.927 204.702 382.316 127.333 348.705Z" fill="#006792"/>
<path d="M127.334 348.705C49.9653 315.094 14.386 225.309 47.9166 148.063C51.8456 138.946 56.5926 130.422 62.0265 122.526C74.8933 126.446 86.1228 151.156 90.2102 152.899C95.6908 155.297 131.328 148.885 125.437 160.009C121.095 187.085 58.7119 185.392 80.2133 200.506C87.9636 202.355 112.651 198.202 120.5 202.051C128.35 205.9 114.174 220.799 121.841 223.542C174.708 242.602 135.26 250.763 111.175 266.814C104.586 271.2 90.5254 280.339 98.8293 295.111C109.734 316.411 153.537 310.483 167.015 306.106C180.516 301.688 196.864 308.381 196.111 295.229C195.4 282.101 201.802 274.164 210.437 268.099C219.072 262.033 216.115 256.017 211.247 247.487C206.379 238.958 206.51 237.981 198.647 231.515C191.253 230.098 187.798 205.309 194.193 197.479C194.193 197.479 244.551 245.694 245.165 257.1C245.804 268.465 235.575 294.68 246.379 297.384C257.183 300.089 269.329 287.879 271.48 284.985C273.59 282.066 282.606 293.651 285.941 293.84C289.276 294.03 293.201 297.841 291.437 304.794C289.739 311.729 284.101 321.67 280.318 330.539C237.862 362.568 179.732 371.484 127.334 348.705ZM339.734 225.983C338.085 240.662 334.245 255.38 328.053 269.656C323.696 279.686 318.381 288.985 312.345 297.526C318.972 283.173 317.601 269.656 309.834 265.856C302.067 262.055 291.303 279.464 285.006 283.355C278.709 287.247 274.385 260.724 269.501 248.356C264.576 235.963 231.752 185.262 236.843 182.38C279.236 198.93 242.357 143.508 268.718 147.834C297.535 149.501 322.941 224.855 339.734 225.983Z" fill="#074872"/>
<path fill-rule="evenodd" clip-rule="evenodd" d="M37.1785 184.856C60.3724 182.764 50.7216 193.947 72.2322 212.064C93.7016 230.156 116.702 223.677 107.586 244.61C98.5114 265.567 78.9315 269.733 82.4327 292.274C85.9339 314.816 95.7297 320.645 106.681 337.81C54.7002 305.176 27.7111 244.484 37.1785 184.856ZM274.77 83.53C323.096 116.895 347.881 175.29 338.798 232.758C333.038 230.362 326.442 222.313 319.447 215.693C316.161 212.591 312.788 209.826 309.3 208.103C298.448 202.651 289.688 201.761 285.92 188.441C282.177 175.08 291.852 178.285 275.412 160.715C267.614 152.346 260.573 164.29 246.229 156.557C236.066 151.067 239.485 141.872 242.985 133.39C245.688 126.825 246.725 120.444 252.226 117.526C264.299 111.1 274.761 121.928 279.059 115.582C288.382 101.653 262.034 94.0048 274.77 83.53ZM38.9472 175.631C41.0193 166.364 43.9702 157.114 47.9162 148.063C77.1462 80.6584 149.352 45.1305 218.658 59.5055C218.913 59.5447 219.144 59.6251 219.399 59.6643C220.542 59.8941 221.702 60.1895 222.887 60.4436C234.574 63.7244 245.085 73.5266 254.73 83.7615C265.277 94.917 207.702 96.6684 185.291 94.2262C162.855 91.8251 205.507 70.4016 168.802 73.9088C132.122 77.3749 181.703 105.875 172.074 106.082C162.444 106.29 170.523 121.54 182.334 123.007C194.145 124.474 171.586 146.141 157.996 140.241C144.407 134.34 135.706 151.078 121.332 163.861C106.998 176.669 94.2621 175.545 73.7751 175.402C53.3464 175.349 47.9332 148.129 38.9472 175.631ZM271.189 188.25C264.857 182.298 242.786 189.935 231.449 178.703C220.089 167.512 200.005 181.87 194.487 196.321C188.97 210.773 210.057 236.02 223.811 242.018C237.566 248.016 231.704 261.543 224.215 278.773C216.726 296.003 204.824 312.796 225.938 313.197C247.01 313.573 282.07 291.449 287.927 261.048C288.926 255.865 284.326 240.279 285.235 236.097C291.724 205.569 293.867 205.611 271.189 188.25Z" fill="#9DD12C"/>
<path fill-rule="evenodd" clip-rule="evenodd" d="M237.881 327.171C232.083 333.799 224.032 343.872 238.483 340.956C252.909 338.082 266.35 333.295 271.218 325.509C276.305 317.352 271.027 310.745 263.71 311.65C259.618 312.179 255.932 317.11 250.55 320.487C247.275 322.552 240.653 323.977 237.881 327.171Z" fill="#9DD12C"/>
<path fill-rule="evenodd" clip-rule="evenodd" d="M199.814 104.672C191.149 103.338 184.297 100.909 182.669 108.386C181.066 115.821 186.537 115.216 193.398 120.647C200.301 126.103 189.113 139.987 179.638 144.837C170.163 149.686 161.398 138.526 146.081 150.643C130.765 162.76 124.776 177.822 117.617 181.761C110.458 185.7 116.089 190.295 133.205 198.606C153.356 208.374 139.026 226.456 180.591 219.986C188.619 218.723 187.574 208.895 181.331 196.946C175.087 184.998 197.537 160.214 214.586 165.434C231.635 170.654 258.129 176.168 243.783 163.44C229.437 150.711 227.834 141.831 234.737 132.857C241.639 123.884 240.062 119.957 239.298 116.066C238.534 112.175 248.396 104.501 253.439 106.697C258.483 108.893 260.296 97.1414 241.027 100.214C221.651 103.279 216.104 104.672 199.814 104.672Z" fill="#0C77AD"/>
<path fill-rule="evenodd" clip-rule="evenodd" d="M42.7829 245.042C46.8364 260.139 55.6516 279.986 65.0507 292.24C74.4497 304.495 72.9269 295.384 72.3901 283.469C71.8533 271.554 76.57 270.06 79.9858 267.19C83.4016 264.319 86.1039 260.584 83.3767 253.705C80.6496 246.825 92.0426 238.722 96.1208 237.463C100.175 236.245 101.622 231.715 85.4714 226.858C69.3205 222.001 59.275 213.861 57.009 207.142C54.743 200.423 46.9681 187.017 42.0543 191.391C37.1575 195.831 37.8403 220.041 42.7829 245.042Z" fill="#B5F035"/>
<path fill-rule="evenodd" clip-rule="evenodd" d="M196.281 58.1368C182.551 58.9801 162.372 62.1821 177.045 64.1704C191.694 66.1999 197.169 73.6998 192.692 78.2758C188.256 82.8762 182.013 85.3565 197.358 86.2982C212.745 87.2643 208.902 78.506 217.332 79.2012C225.762 79.8964 249.533 82.8623 237.868 76.4314C226.203 70.0005 235.522 68.0563 224.19 63.9855C212.923 59.8979 216.153 59.4157 196.281 58.1368Z" fill="#B5F035"/>
<path fill-rule="evenodd" clip-rule="evenodd" d="M133.932 68.1747C149.781 63.6415 148.018 67.7636 142.134 78.7807C136.251 89.7978 141.445 90.4174 150.237 93.9893C159.052 97.5201 155.456 105.223 156.962 110.496C158.469 115.768 175.253 123.606 156.525 126.609C137.797 129.612 135.705 130.71 126.183 140.637C116.661 150.564 82.9286 160.818 87.4458 147.497C91.9387 134.218 85.8753 133.752 75.2206 138.905C64.566 144.058 39.3998 153.644 64.9608 121.037C90.4563 88.4474 120.092 74.3918 133.932 68.1747Z" fill="#B5F035"/>
<path fill-rule="evenodd" clip-rule="evenodd" d="M284.433 95.995C292.591 102.246 316.176 123.915 327.308 153.507C338.398 183.074 338.815 211.79 329.467 202.562C320.118 193.334 314.637 190.937 309.137 192.911C303.636 194.886 302.36 191.581 298.055 182.662C293.751 173.743 318.465 177.653 305.218 168.625C291.971 159.597 293.494 170.595 285.376 162.203C277.323 153.794 292.077 151.779 277.635 147.984C263.217 144.148 260.46 154.955 251.438 149.416C242.417 143.877 245.556 125.915 253.152 124.065C260.747 122.215 263.747 127.312 277.079 122.239C290.452 117.19 289.846 110.673 285.058 104.743C280.311 98.8377 276.793 90.6595 284.433 95.995Z" fill="#B5F035"/>
<path fill-rule="evenodd" clip-rule="evenodd" d="M334.802 181.067L334.768 180.936C333.376 172.734 332.753 168.038 327.268 153.484C321.782 138.93 307.806 118.594 297.642 108.109L296.921 107.351C289.288 100.022 283.17 95.9721 289.615 107.485C296.06 118.997 290.398 125.206 285.565 125.576C280.798 125.93 273.135 126.574 275.624 133.48C278.113 140.386 286.883 141.448 293.276 143.995C299.67 146.542 302.755 143.477 310.958 152.196C319.137 160.957 337.032 201.804 334.802 181.067Z" fill="#E5FF96"/>
<path fill-rule="evenodd" clip-rule="evenodd" d="M223.437 180.695C217.42 180.811 196.812 188.7 199.997 200.178C203.207 211.615 204.911 214.006 211.008 215.547C217.146 217.111 216.972 216.842 218.983 222.578C220.994 228.314 223.235 228.191 236.386 231.724C249.536 235.257 253.216 239.202 249.17 248.139C245.083 257.051 248.356 268.192 249.425 275.149C250.47 282.147 241.267 301.53 264.43 283.271C287.568 265.053 285.911 261.357 281.4 252.316C276.889 243.275 275.261 238.209 279.823 232.074C284.41 225.898 288.203 213.427 285.682 210.443C283.16 207.458 285.909 204.305 277.403 202.511C268.898 200.717 265.273 195.362 257.28 192.982C249.328 190.626 248.226 192.307 238.225 190.409C228.225 188.511 231.491 178.727 223.437 180.695Z" fill="#B5F035"/>
<path fill-rule="evenodd" clip-rule="evenodd" d="M265.111 314.084C261.414 314.791 257.852 320.739 252.625 323.097C247.399 325.456 236.111 329.514 245.595 328.61C255.144 327.69 278.024 316.7 265.111 314.084Z" fill="#B5F035"/>
<path fill-rule="evenodd" clip-rule="evenodd" d="M204.973 58.7653C195.009 58.2203 174.616 58.5774 186.665 61.9049C198.714 65.2323 201.395 69.643 200.575 70.6577C199.713 71.6482 197.513 73.6816 209.956 75.0212C222.439 76.3851 233.621 67.6029 224.189 63.9863C214.798 60.394 213.177 59.9378 204.973 58.7653Z" fill="#E5FF96"/>
<path fill-rule="evenodd" clip-rule="evenodd" d="M139.889 66.7464C120.312 72.1344 87.941 95.733 78.5735 111.245C69.206 126.758 84.5313 119.529 99.3858 111.025C114.24 102.52 109.523 122.216 123.739 112.059C137.956 101.902 131.713 88.0662 139.212 80.7208C146.712 73.3755 150.073 63.1472 139.889 66.7464Z" fill="#E5FF96"/>
<path fill-rule="evenodd" clip-rule="evenodd" d="M257.345 192.965C250.483 193.194 240.768 194.961 234.936 192.689C229.103 190.417 225.05 185.975 216.67 190.193C208.29 194.411 211.807 199.48 224.009 199.624C236.211 199.767 230.508 205.951 242.606 210.14C254.662 214.304 261.102 210.83 268.794 216.362C276.485 221.894 292.217 208.412 283.032 204.941C273.847 201.47 264.062 193.927 257.345 192.965Z" fill="#E5FF96"/>
<path fill-rule="evenodd" clip-rule="evenodd" d="M85.512 226.882C97.8541 232.824 102.594 237.893 86.4641 237.433C70.3343 236.972 60.9857 227.744 61.2875 237.134C61.5893 246.525 47.6796 237.772 45.183 216.544C42.6622 195.357 46.4573 188.825 51.5316 196.533C64.0002 215.369 63.2597 216.154 85.512 226.882Z" fill="#E5FF96"/>
</svg>
