<svg width="30" height="30" viewBox="0 0 30 30" fill="none" xmlns="http://www.w3.org/2000/svg">
<path fill-rule="evenodd" clip-rule="evenodd" d="M27.9189 10.3609C28.9091 12.5528 29.8079 13.3139 29.9907 14.2729C29.945 16.8911 30.0517 19.5397 28.8634 22.0209C27.3705 25.1414 24.5217 27.7443 20.6826 29.0838C16.8436 30.4234 12.7456 30.2407 9.21123 28.886C5.69212 27.516 2.4777 24.3955 1.18279 21.549C-0.0968911 18.7025 -0.0816574 15.9473 0.0706851 13.1769C0.360136 11.9896 0.740992 12.2636 0.98474 11.0763L1.67028 11.1829C3.26988 8.50379 5.9054 6.31184 9.33311 5.10931C13.1721 3.76978 17.2702 3.95244 20.8045 5.30719C24.3084 6.67717 26.9439 8.18413 27.9189 10.3609Z" fill="#ABA803"/>
<path fill-rule="evenodd" clip-rule="evenodd" d="M27.9185 9.87365C28.9087 12.0656 29.8075 12.8724 29.9903 13.8314C30.0208 16.48 30.0513 19.0525 28.863 21.5336C27.3701 24.6541 24.5212 27.2571 20.6822 28.5966C16.8432 29.9361 12.7452 29.7535 9.21083 28.3987C5.69172 27.0288 2.47729 23.9083 1.18238 21.0618C-0.0972959 18.2153 0.0550465 15.3383 0.192155 12.5527C0.3902 11.7307 0.740589 10.5434 1.65464 10.6804C3.25424 8.00136 5.88976 5.8094 9.31747 4.60687C13.1565 3.26734 17.2545 3.45 20.7889 4.80475C24.308 6.18995 26.9435 7.69691 27.9185 9.87365Z" fill="#ABA803"/>
<path fill-rule="evenodd" clip-rule="evenodd" d="M28.3564 7.90979C30.2302 11.4717 30.4435 15.4294 29.2552 18.9457C28.0669 22.462 25.4924 25.5672 21.8057 27.3786C18.119 29.1901 14.0057 29.3879 10.3648 28.2463C6.72377 27.1047 3.52458 24.6235 1.65077 21.0615C-0.223044 17.4996 -0.436324 13.5419 0.751946 10.0104C1.94022 6.49415 4.5148 3.4041 8.20149 1.57747C11.8882 -0.233942 15.9862 -0.431826 19.6424 0.709819C23.2834 1.86669 26.4826 4.34786 28.3564 7.90979Z" fill="#DED700"/>
<path fill-rule="evenodd" clip-rule="evenodd" d="M27.8868 8.15194C29.6997 11.5921 29.8977 15.4128 28.7552 18.8073C27.6126 22.2018 25.1294 25.1853 21.5646 26.9358C17.9998 28.6863 14.0389 28.869 10.5198 27.773C7.00068 26.677 3.92336 24.272 2.11048 20.847C0.297607 17.4069 0.0995626 13.5862 1.24213 10.1917C2.3847 6.79718 4.86788 3.81369 8.43269 2.06316C11.9975 0.312642 15.9432 0.114756 19.4623 1.22596C22.9966 2.30672 26.0739 4.71178 27.8868 8.15194Z" fill="url(#paint0_radial)"/>
<path fill-rule="evenodd" clip-rule="evenodd" d="M25.4358 9.2496C26.8983 12.0048 27.0659 15.0796 26.1366 17.8195C25.2073 20.5443 23.1964 22.9493 20.3323 24.365C17.4531 25.7806 14.2539 25.9176 11.4051 25.0347C8.55627 24.1519 6.07309 22.2187 4.59537 19.4635C3.13288 16.7083 2.9653 13.6335 3.89459 10.8936C4.82388 8.16884 6.8348 5.76378 9.71407 4.36336C12.5933 2.94772 15.7925 2.7955 18.6413 3.6936C21.4749 4.56125 23.9733 6.47921 25.4358 9.2496Z" fill="#232323"/>
<path fill-rule="evenodd" clip-rule="evenodd" d="M24.7652 9.56924C26.1362 12.157 26.2886 15.0187 25.4202 17.576C24.5519 20.1333 22.6781 22.3709 19.9816 23.6952C17.2851 25.0195 14.2992 25.1565 11.6332 24.3193C8.96724 23.4973 6.6364 21.6859 5.26532 19.1134C3.89424 16.5257 3.74189 13.6487 4.61025 11.1067C5.4786 8.54937 7.35241 6.31175 10.0489 4.98744C12.7453 3.66313 15.7312 3.52614 18.3972 4.34812C21.048 5.18533 23.3941 6.99673 24.7652 9.56924Z" fill="#DED700"/>
<path fill-rule="evenodd" clip-rule="evenodd" d="M20.6214 23.3601C20.4082 23.4819 20.1949 23.5885 19.9816 23.695C17.2851 25.0193 14.2992 25.1563 11.6332 24.3191C8.96724 23.4971 6.6364 21.6857 5.26532 19.1132C3.89424 16.5255 3.74189 13.6485 4.61025 11.1065C5.17391 9.43207 6.17937 7.89466 7.56569 6.66168C7.77897 6.5399 7.99225 6.43335 8.20553 6.3268C10.902 5.00249 13.8879 4.86549 16.5539 5.68748C19.2199 6.50946 21.5507 8.32087 22.9218 10.9086C24.2929 13.4963 24.4452 16.358 23.5769 18.9153C23.0132 20.5897 22.0078 22.1271 20.6214 23.3601Z" fill="url(#paint1_radial)"/>
<path d="M7.1392 18.2301C8.1599 18.2301 9.19583 18.2301 10.2318 18.2301C10.5974 17.8648 10.9782 17.5147 11.3439 17.1494C11.3591 16.1599 11.3743 15.1857 11.3896 14.1963C11.4048 13.2069 11.42 12.2327 11.42 11.2432C10.8716 11.2432 10.3384 11.2432 9.78996 11.2432C9.77473 12.1566 9.75949 13.0547 9.74426 13.968C9.72902 14.8813 9.71379 15.7794 9.69856 16.6927C9.05872 16.6927 8.41888 16.6927 7.7638 16.6927C7.79427 15.7794 7.80951 14.8813 7.83997 13.968C7.87044 13.0547 7.88568 12.1566 7.91615 11.2432C7.36771 11.2432 6.83451 11.2432 6.28608 11.2432C6.25561 12.2327 6.22515 13.2069 6.19468 14.1963C6.16421 15.1857 6.13374 16.1599 6.10327 17.1494C6.42319 17.5147 6.78881 17.88 7.1392 18.2301ZM12.3493 18.2301C12.913 18.2301 13.4614 18.2301 14.0251 18.2301C14.0251 17.8648 14.0251 17.4995 14.0251 17.1341C14.0251 16.7688 14.0251 16.4035 14.0251 16.0382C14.8782 16.0382 15.7466 16.0382 16.5997 16.0382C16.9653 15.6728 17.3157 15.3227 17.6813 14.9574C17.6813 14.516 17.6661 14.0745 17.6661 13.6331C17.6661 13.1917 17.6508 12.7502 17.6508 12.3088C17.2852 11.9435 16.9196 11.5934 16.5692 11.228C15.1829 11.228 13.7966 11.228 12.4103 11.228C12.395 12.3849 12.395 13.557 12.3798 14.7139C12.3798 15.9164 12.3645 17.0733 12.3493 18.2301ZM14.0403 14.5312C14.0403 13.9528 14.0403 13.3743 14.0403 12.7807C14.6954 12.7807 15.3657 12.7807 16.0208 12.7807C16.0208 13.3287 16.0208 13.8614 16.0208 14.4094C16.0208 14.4551 16.0208 14.4855 16.0208 14.5312C15.3657 14.5312 14.6954 14.5312 14.0403 14.5312ZM17.8184 18.2301C18.443 18.2301 19.0676 18.2301 19.6922 18.2301C19.8903 17.8343 20.0731 17.4538 20.2711 17.058C20.4692 16.6623 20.652 16.2817 20.85 15.8859C21.0633 16.2817 21.2613 16.6623 21.4746 17.058C21.6879 17.4538 21.9012 17.8343 22.1145 18.2301C22.7391 18.2301 23.3637 18.2301 23.9883 18.2301C23.6684 17.6517 23.3484 17.0732 23.0438 16.4948C22.7238 15.9164 22.4192 15.3379 22.0992 14.7443C22.3887 14.1659 22.6629 13.5874 22.9371 12.9938C23.2113 12.4153 23.4855 11.8369 23.7598 11.2432C23.1504 11.2432 22.541 11.2432 21.9317 11.2432C21.7488 11.639 21.5508 12.0196 21.368 12.4153C21.1699 12.8111 20.9871 13.1917 20.7891 13.5874C20.5758 13.1917 20.3778 12.8111 20.1797 12.4153C19.9817 12.0196 19.7684 11.639 19.5703 11.2432C18.961 11.2432 18.3516 11.2432 17.7422 11.2432C18.0469 11.8217 18.3364 12.4001 18.6411 12.9938C18.9457 13.5722 19.2504 14.1506 19.5551 14.7443C19.2657 15.3227 18.9762 15.9012 18.6868 16.4948C18.3973 17.0732 18.1079 17.6517 17.8184 18.2301Z" fill="#232323"/>
<defs>
<radialGradient id="paint0_radial" cx="0" cy="0" r="1" gradientUnits="userSpaceOnUse" gradientTransform="translate(14.4153 2.69923) scale(26.4511 26.4297)">
<stop stop-color="#FFF915"/>
<stop offset="1" stop-color="#ECE735"/>
</radialGradient>
<radialGradient id="paint1_radial" cx="0" cy="0" r="1" gradientUnits="userSpaceOnUse" gradientTransform="translate(20.9247 10.3404) scale(18.379 18.3641)">
<stop stop-color="#FFF915"/>
<stop offset="1" stop-color="#ECE735"/>
</radialGradient>
</defs>
</svg>
