<svg width="268" height="156" viewBox="0 0 268 156" fill="none" xmlns="http://www.w3.org/2000/svg">
<path fill-rule="evenodd" clip-rule="evenodd" d="M96.931 122.021L20.0554 122.958L0 146.198H96.931H267.908L247.852 122.958L96.931 122.021Z" fill="#DECBBC"/>
<path fill-rule="evenodd" clip-rule="evenodd" d="M206.429 122.538L213.412 140.571L263.045 140.56L260.979 138.193H215.929L209.097 122.484L206.429 122.538Z" fill="white"/>
<path fill-rule="evenodd" clip-rule="evenodd" d="M260.979 138.193L247.853 122.958L216.919 122.71L214.563 122.689H214.176L209.13 122.549L215.93 138.193H260.979Z" fill="#6CBA0D"/>
<path fill-rule="evenodd" clip-rule="evenodd" d="M20.0554 122.957L0 146.198H196.003L200.113 140.571L209.926 131.554L203.944 125.271L105.668 122.097L20.0554 122.957Z" fill="#CEBBAC"/>
<path fill-rule="evenodd" clip-rule="evenodd" d="M61.479 122.538L54.4854 140.571L4.86328 140.56L6.91832 138.193H51.9785L58.8107 122.484L61.479 122.538Z" fill="#E3E3E3"/>
<path fill-rule="evenodd" clip-rule="evenodd" d="M6.91821 138.193L20.0554 122.958L50.9885 122.71L53.3448 122.689H53.7322L58.7783 122.549L51.9784 138.193H6.91821Z" fill="#6CBA0D"/>
<path fill-rule="evenodd" clip-rule="evenodd" d="M6.91821 138.193L47.4272 122.71L58.8429 122.484L51.9784 138.193H6.91821Z" fill="#549900"/>
<path fill-rule="evenodd" clip-rule="evenodd" d="M40.4767 133.051L39.0995 133.815V112.027L40.4767 110.854V133.051Z" fill="#543D1D"/>
<path fill-rule="evenodd" clip-rule="evenodd" d="M39.0994 112.026L35.9792 112.016V133.814H39.0994V112.026Z" fill="#975904"/>
<path fill-rule="evenodd" clip-rule="evenodd" d="M37.2811 110.854L35.9792 112.027H39.0995L40.4766 110.854H37.2811Z" fill="#F0F0F0"/>
<path fill-rule="evenodd" clip-rule="evenodd" d="M46.5341 112.371L40.4443 117.622V97.2758L46.5556 92.1328L46.5341 112.371Z" fill="#4D8C00"/>
<path fill-rule="evenodd" clip-rule="evenodd" d="M40.4444 97.2754L26.6616 97.2539V117.589L40.4444 117.621V97.2754Z" fill="#549900"/>
<path fill-rule="evenodd" clip-rule="evenodd" d="M32.4179 92.1328L26.6616 97.2758H40.4444L46.5557 92.1328H32.4179Z" fill="#68BD00"/>
<path fill-rule="evenodd" clip-rule="evenodd" d="M49.4929 116.621L45.9746 119.655V107.885L49.5037 104.904L49.4929 116.621Z" fill="#4D8C00"/>
<path fill-rule="evenodd" clip-rule="evenodd" d="M45.9746 107.885L37.9912 107.863V119.645L45.9746 119.656V107.885Z" fill="#549900"/>
<path fill-rule="evenodd" clip-rule="evenodd" d="M41.3266 104.904L37.9912 107.885H45.9746L49.5037 104.904H41.3266Z" fill="#68BD00"/>
<path fill-rule="evenodd" clip-rule="evenodd" d="M0 155.86H267.908V146.198H0V155.86Z" fill="#998782"/>
<path fill-rule="evenodd" clip-rule="evenodd" d="M230.842 133.051L232.219 133.815V112.027L230.831 110.854L230.842 133.051Z" fill="#975904"/>
<path fill-rule="evenodd" clip-rule="evenodd" d="M232.219 112.026L235.339 112.016V133.814H232.219V112.026Z" fill="#C28025"/>
<path fill-rule="evenodd" clip-rule="evenodd" d="M234.038 110.854L235.339 112.027H232.219L230.831 110.854H234.038Z" fill="#F0F0F0"/>
<path fill-rule="evenodd" clip-rule="evenodd" d="M224.774 112.371L230.864 117.622V97.2758L224.763 92.1328L224.774 112.371Z" fill="#549900"/>
<path fill-rule="evenodd" clip-rule="evenodd" d="M230.864 97.2754L244.657 97.2539V117.589L230.864 117.621V97.2754Z" fill="#68BD00"/>
<path fill-rule="evenodd" clip-rule="evenodd" d="M238.89 92.1328L244.657 97.2758H230.864L224.763 92.1328H238.89Z" fill="#A2E540"/>
<path fill-rule="evenodd" clip-rule="evenodd" d="M221.815 116.621L225.344 119.655V107.885L221.804 104.904L221.815 116.621Z" fill="#549900"/>
<path fill-rule="evenodd" clip-rule="evenodd" d="M225.344 107.885L233.327 107.863V119.645L225.344 119.656V107.885Z" fill="#68BD00"/>
<path fill-rule="evenodd" clip-rule="evenodd" d="M229.992 104.904L233.327 107.885H225.344L221.804 104.904H229.992Z" fill="#A2E540"/>
<path fill-rule="evenodd" clip-rule="evenodd" d="M95.9626 14.8262H171.945V140.076H95.9626V14.8262Z" fill="#B8A39E"/>
<path fill-rule="evenodd" clip-rule="evenodd" d="M171.945 66.6862V140.076H95.9626V22.8203L171.945 66.6862Z" fill="#665B59"/>
<path fill-rule="evenodd" clip-rule="evenodd" d="M124.733 122.506H143.164V138.58H124.733V122.506Z" fill="#181028"/>
<path fill-rule="evenodd" clip-rule="evenodd" d="M133.438 118.644H134.47V139.517H133.438V118.644Z" fill="#665B59"/>
<path fill-rule="evenodd" clip-rule="evenodd" d="M111.994 122.506H121.731V138.58H111.994V122.506Z" fill="#181028"/>
<path fill-rule="evenodd" clip-rule="evenodd" d="M99.255 122.506H108.992V138.58H99.255V122.506Z" fill="#181028"/>
<path fill-rule="evenodd" clip-rule="evenodd" d="M158.819 122.506H168.556V138.58H158.819V122.506Z" fill="#181028"/>
<path fill-rule="evenodd" clip-rule="evenodd" d="M146.08 122.506H155.828V138.58H146.08V122.506Z" fill="#181028"/>
<path fill-rule="evenodd" clip-rule="evenodd" d="M89.9912 6.03613H67.7947V140.076H89.9912V6.03613Z" fill="#DECBBC"/>
<path fill-rule="evenodd" clip-rule="evenodd" d="M67.7947 42.7578V140.076H89.9912V55.5722L67.7947 42.7578Z" fill="#A3938F"/>
<path fill-rule="evenodd" clip-rule="evenodd" d="M95.9627 9.52216L89.9912 6.03613V140.076H95.9627V9.52216Z" fill="#373440"/>
<path fill-rule="evenodd" clip-rule="evenodd" d="M66.9769 6.38074L89.9912 5.22949V6.03644L67.7946 6.86492L66.9769 6.38074Z" fill="#665B59"/>
<path fill-rule="evenodd" clip-rule="evenodd" d="M66.9769 6.37991L89.9912 5.37929V2.07617L66.9769 3.07679V6.37991Z" fill="#4DB9D3"/>
<path fill-rule="evenodd" clip-rule="evenodd" d="M96.3285 9.19945L89.9912 5.37988V6.0362L95.9627 9.52223L96.3285 9.19945Z" fill="#514048"/>
<path fill-rule="evenodd" clip-rule="evenodd" d="M96.3285 9.19886L89.9912 5.37929V2.07617L96.3285 5.89574V9.19886Z" fill="#217C91"/>
<path fill-rule="evenodd" clip-rule="evenodd" d="M69.9358 105.593H73.6908H77.4673V121.635H69.9358V105.593ZM69.9358 16.0642L73.6908 15.9673L77.4673 15.849V31.9127C76.2085 31.9127 74.9604 31.9772 73.7016 31.9988L69.9358 32.0741V16.0642ZM79.5547 15.8275L83.3204 15.7306L87.0754 15.6338V31.7728L83.3204 31.8481L79.5547 31.9342V15.8275ZM69.9358 36.7221L73.6908 36.636L77.4566 36.5607V52.646L73.6908 52.7105L69.9358 52.7428V36.7221ZM79.5547 36.5069L83.3204 36.4316L87.0754 36.3455V52.4846L83.3204 52.5491L79.5547 52.6137V36.5069ZM69.9358 57.9503L73.6908 57.8858H77.4566V73.8742H73.6908H69.9358V57.9503ZM79.5547 57.7997H83.3204L87.0754 57.7351V73.7666L83.3204 73.8204H79.5547V57.7997ZM69.9358 81.8146H73.6908L77.4673 81.6962V97.8353H73.7016H69.9358V81.8146ZM79.5547 81.6962H83.3204H87.0754V97.8353H83.3204H79.5547V81.6962ZM79.5547 105.528H83.3204H87.0754V121.667H79.5439V105.55L79.5547 105.528Z" fill="#373440"/>
<path fill-rule="evenodd" clip-rule="evenodd" d="M77.4673 106.442V121.645H70.6459V106.442H74.4009H77.4673ZM70.6566 16.9245L74.4116 16.8276L77.4673 16.7201V31.9123C76.2085 31.9123 74.9604 31.9768 73.7015 31.9983L70.6566 32.0629V16.9245ZM80.2755 16.6985L84.0305 16.6017L87.0862 16.5156V31.7186L83.3311 31.7939L80.2755 31.8692V16.6555V16.6985ZM70.6459 37.5824L74.4009 37.4964H77.4565V52.6455L73.6908 52.7101H70.6459V37.5824ZM80.2647 37.3888L84.0197 37.3242L87.0754 37.2489V52.4519L83.3204 52.5164H80.2647V37.3672V37.3888ZM70.6459 58.7891L74.4009 58.7246H77.4565V73.8737H73.6908H70.6459V58.7891ZM80.2647 58.6385C81.5128 58.6385 82.7717 58.6385 84.0197 58.6385L87.0754 58.5847V73.7661L83.3204 73.8199H80.2647V58.6385ZM70.6459 82.6641H74.4009H77.4565V97.8348H73.6908H70.6459V82.6641ZM80.2647 82.5673H84.0197H87.0754V97.738H83.3204H80.2647V82.5673ZM80.2647 106.442H87.0754V121.678H80.2647V106.442Z" fill="#6A6579"/>
<path fill-rule="evenodd" clip-rule="evenodd" d="M77.4673 106.443V121.646H70.6459V106.443H74.4009H77.4673ZM84.6653 52.5384L80.2647 49.9561V52.5706H83.3204H84.6546L84.6653 52.5384ZM77.4673 48.3422L70.6566 44.415V52.7428H73.7015L77.4673 52.6459V48.3422ZM70.6566 58.8003L74.4116 58.7357H77.4673V73.8741H73.7015H70.6566V58.8003ZM80.2755 58.6497H84.0305L87.0862 58.5959V73.7665L83.3311 73.8203H80.2755V58.6389V58.6497ZM70.6459 82.6645H74.4009H77.4565V97.8352H73.6908H70.6459V82.6645ZM80.2647 82.5677H84.0197H87.0754V97.7384H83.3204H80.2647V82.5677ZM80.2647 106.443H87.0754V121.678H80.2647V106.443Z" fill="#373440"/>
<path fill-rule="evenodd" clip-rule="evenodd" d="M177.917 6.03613H200.113V140.076H177.917V6.03613Z" fill="#DECBBC"/>
<path fill-rule="evenodd" clip-rule="evenodd" d="M177.917 42.7578V140.076H200.113V55.5722L177.917 42.7578Z" fill="#A3938F"/>
<path fill-rule="evenodd" clip-rule="evenodd" d="M171.945 9.52216L177.917 6.03613V140.076H171.945V9.52216Z" fill="#998782"/>
<path fill-rule="evenodd" clip-rule="evenodd" d="M177.917 70.9791V140.076H171.945V67.5254L177.917 70.9791Z" fill="#665B59"/>
<path fill-rule="evenodd" clip-rule="evenodd" d="M200.931 6.38074L177.917 5.22949V6.03644L200.103 6.86492L200.931 6.38074Z" fill="#665B59"/>
<path fill-rule="evenodd" clip-rule="evenodd" d="M200.931 6.37991L177.917 5.37929V2.07617L200.931 3.07679V6.37991Z" fill="#4DB9D3"/>
<path fill-rule="evenodd" clip-rule="evenodd" d="M171.579 9.19945L177.917 5.37988V6.0362L171.945 9.52223L171.579 9.19945Z" fill="#514048"/>
<path fill-rule="evenodd" clip-rule="evenodd" d="M171.579 9.19886L177.917 5.37929V2.07617L171.579 5.89574V9.19886Z" fill="#217C91"/>
<path fill-rule="evenodd" clip-rule="evenodd" d="M197.972 105.593H194.217H190.441V121.635H197.972V105.593ZM197.972 16.0642L194.217 15.9673L190.441 15.849V31.9127C191.699 31.9127 192.948 31.9772 194.206 31.9988L197.961 32.0741L197.972 16.0642ZM188.343 15.8275L184.588 15.7306L180.833 15.6338V31.7728L184.588 31.8481L188.343 31.9342V15.8275ZM197.972 36.7221L194.217 36.636L190.451 36.5607V52.646L194.217 52.7105L197.972 52.7751V36.7221ZM188.343 36.5069H184.588L180.833 36.4209V52.5599L184.588 52.6244L188.343 52.689V36.5069ZM197.972 57.9503L194.217 57.8858H190.451V73.8742H194.217H197.972V57.9503ZM188.343 57.7997H184.588L180.833 57.7351V73.7666L184.588 73.8204H188.343V57.7997ZM197.972 81.8146H194.217L190.441 81.6962V97.8353H194.206H197.972V81.8146ZM188.343 81.6962H184.588H180.833V97.8353H184.588H188.343V81.6962ZM188.343 105.528H184.588H180.833V121.667H188.364V105.55L188.343 105.528Z" fill="#373440"/>
<path fill-rule="evenodd" clip-rule="evenodd" d="M190.441 106.442V121.645H197.251V106.442H193.496H190.441ZM197.251 16.9245L193.496 16.8276L190.441 16.7201V31.9123C191.699 31.9123 192.948 31.9768 194.206 31.9983L197.251 32.0629V16.9245ZM187.632 16.6985L183.877 16.6017L180.822 16.5156V31.7186L184.577 31.7939L187.632 31.8692V16.6555V16.6985ZM197.262 37.5824L193.507 37.4964H190.451V52.6455L194.217 52.7101H197.262V37.5824ZM187.643 37.3888L183.888 37.3242L180.833 37.2489V52.4519L184.588 52.5164H187.643V37.3672V37.3888ZM197.262 58.8106L193.507 58.7461H190.451V73.8737H194.217H197.262V58.8106ZM187.643 58.66C186.384 58.66 185.136 58.66 183.888 58.66L180.833 58.6062V73.7661L184.588 73.8199H187.643V58.6385V58.66ZM197.262 82.6856H193.507H190.451V97.8348H194.217H197.262V82.6856ZM187.643 82.5888H183.888H180.833V97.738H184.588H187.643V82.5673V82.5888ZM187.643 106.41H180.833V121.645H187.643V106.442V106.41Z" fill="#6A6579"/>
<path fill-rule="evenodd" clip-rule="evenodd" d="M190.441 106.443V121.646H197.251V106.443H193.496H190.441ZM195.121 52.6459L190.441 49.9991V52.6459L194.206 52.7105L195.121 52.6459ZM187.643 48.3422L180.833 44.415V52.42L184.588 52.4846H187.643V48.3422ZM197.262 58.7573L193.507 58.6927H190.451V73.8742H194.217H197.262V58.7573ZM187.643 58.6066C186.384 58.6066 185.136 58.6066 183.888 58.6066L180.833 58.5528V73.7666L184.588 73.8204H187.643V58.6389V58.6066ZM197.262 82.6323H193.507H190.451V97.8352H194.217H197.262V82.6323ZM187.643 82.5354H183.888H180.833V97.7384H184.588H187.643V82.5677V82.5354ZM187.643 106.357H180.833V121.592H187.643V106.443V106.357Z" fill="#373440"/>
<path fill-rule="evenodd" clip-rule="evenodd" d="M99.5026 21.3145H114.243V37.4427H99.5026V21.3145Z" fill="#6A6579"/>
<path fill-rule="evenodd" clip-rule="evenodd" d="M99.5026 40.8105H114.243V56.9388H99.5026V40.8105Z" fill="#6A6579"/>
<path fill-rule="evenodd" clip-rule="evenodd" d="M99.5026 60.3174H114.243V76.4349H99.5026V60.3174Z" fill="#6A6579"/>
<path fill-rule="evenodd" clip-rule="evenodd" d="M99.5026 79.8135H114.243V95.9417H99.5026V79.8135Z" fill="#6A6579"/>
<path fill-rule="evenodd" clip-rule="evenodd" d="M99.5026 99.3086H114.243V115.437H99.5026V99.3086Z" fill="#6A6579"/>
<path fill-rule="evenodd" clip-rule="evenodd" d="M117.557 21.3145H132.297V37.4427H117.557V21.3145Z" fill="#6A6579"/>
<path fill-rule="evenodd" clip-rule="evenodd" d="M117.557 40.8105H132.297V56.9388H117.557V40.8105Z" fill="#6A6579"/>
<path fill-rule="evenodd" clip-rule="evenodd" d="M117.557 60.3174H132.297V76.4349H117.557V60.3174Z" fill="#6A6579"/>
<path fill-rule="evenodd" clip-rule="evenodd" d="M117.557 79.8135H132.297V95.9417H117.557V79.8135Z" fill="#6A6579"/>
<path fill-rule="evenodd" clip-rule="evenodd" d="M117.557 99.3086H132.297V115.437H117.557V99.3086Z" fill="#6A6579"/>
<path fill-rule="evenodd" clip-rule="evenodd" d="M135.611 21.3145H150.351V37.4427H135.611V21.3145Z" fill="#6A6579"/>
<path fill-rule="evenodd" clip-rule="evenodd" d="M135.611 40.8105H150.351V56.9388H135.611V40.8105Z" fill="#6A6579"/>
<path fill-rule="evenodd" clip-rule="evenodd" d="M135.611 60.3174H150.351V76.4349H135.611V60.3174Z" fill="#6A6579"/>
<path fill-rule="evenodd" clip-rule="evenodd" d="M135.611 79.8135H150.351V95.9417H135.611V79.8135Z" fill="#6A6579"/>
<path fill-rule="evenodd" clip-rule="evenodd" d="M135.611 99.3086H150.351V115.437H135.611V99.3086Z" fill="#6A6579"/>
<path fill-rule="evenodd" clip-rule="evenodd" d="M153.665 21.3145H168.405V37.4427H153.665V21.3145Z" fill="#6A6579"/>
<path fill-rule="evenodd" clip-rule="evenodd" d="M153.665 40.8105H168.405V56.9388H153.665V40.8105Z" fill="#6A6579"/>
<path fill-rule="evenodd" clip-rule="evenodd" d="M153.665 60.3174H168.405V76.4349H153.665V60.3174Z" fill="#6A6579"/>
<path fill-rule="evenodd" clip-rule="evenodd" d="M153.665 79.8135H168.405V95.9417H153.665V79.8135Z" fill="#6A6579"/>
<path fill-rule="evenodd" clip-rule="evenodd" d="M153.665 99.3086H168.405V115.437H153.665V99.3086Z" fill="#6A6579"/>
<path fill-rule="evenodd" clip-rule="evenodd" d="M114.243 33.3759V37.4429H99.5026V24.8652L114.243 33.3759Z" fill="#181028"/>
<path fill-rule="evenodd" clip-rule="evenodd" d="M99.5026 40.8105H114.243V56.9388H99.5026V40.8105Z" fill="#181028"/>
<path fill-rule="evenodd" clip-rule="evenodd" d="M99.5026 60.3174H114.243V76.4349H99.5026V60.3174Z" fill="#181028"/>
<path fill-rule="evenodd" clip-rule="evenodd" d="M99.5026 79.8135H114.243V95.9417H99.5026V79.8135Z" fill="#181028"/>
<path fill-rule="evenodd" clip-rule="evenodd" d="M99.5026 99.3096H114.243V115.438H99.5026V99.3096Z" fill="#181028"/>
<path fill-rule="evenodd" clip-rule="evenodd" d="M121.29 37.4429H117.557V35.291L121.29 37.4429Z" fill="#181028"/>
<path fill-rule="evenodd" clip-rule="evenodd" d="M117.557 40.8105H127.122L132.297 43.8016V56.9388H117.557V40.8105Z" fill="#181028"/>
<path fill-rule="evenodd" clip-rule="evenodd" d="M117.557 60.3174H132.297V76.4349H117.557V60.3174Z" fill="#181028"/>
<path fill-rule="evenodd" clip-rule="evenodd" d="M117.557 79.8135H132.297V95.9417H117.557V79.8135Z" fill="#181028"/>
<path fill-rule="evenodd" clip-rule="evenodd" d="M117.557 99.3096H132.297V115.438H117.557V99.3096Z" fill="#181028"/>
<path fill-rule="evenodd" clip-rule="evenodd" d="M150.351 54.2274V56.9388H135.611V45.7168L150.351 54.2274Z" fill="#181028"/>
<path fill-rule="evenodd" clip-rule="evenodd" d="M135.611 60.3174H150.351V76.4349H135.611V60.3174Z" fill="#181028"/>
<path fill-rule="evenodd" clip-rule="evenodd" d="M135.611 79.8135H150.351V95.9417H135.611V79.8135Z" fill="#181028"/>
<path fill-rule="evenodd" clip-rule="evenodd" d="M135.611 99.3096H150.351V115.438H135.611V99.3096Z" fill="#181028"/>
<path fill-rule="evenodd" clip-rule="evenodd" d="M155.053 56.9388H153.665V56.1318L155.053 56.9388Z" fill="#181028"/>
<path fill-rule="evenodd" clip-rule="evenodd" d="M153.665 60.3174H160.895L168.405 64.6534V76.4349H153.665V60.3174Z" fill="#181028"/>
<path fill-rule="evenodd" clip-rule="evenodd" d="M153.665 79.8135H168.405V95.9417H153.665V79.8135Z" fill="#181028"/>
<path fill-rule="evenodd" clip-rule="evenodd" d="M153.665 99.3096H168.405V115.438H153.665V99.3096Z" fill="#181028"/>
<path fill-rule="evenodd" clip-rule="evenodd" d="M100.837 14.8261H166.662V4.906L157.065 3.22754H110.854L100.837 4.48638V14.8261Z" fill="#4DB9D3"/>
<path fill-rule="evenodd" clip-rule="evenodd" d="M112.78 14.8261H163.036L165.49 11.3186L133.965 3.22754H112.78V14.8261Z" fill="#359EB8"/>
<path fill-rule="evenodd" clip-rule="evenodd" d="M157.065 14.8261H166.662V4.906L157.065 3.22754V14.8261Z" fill="#217C91"/>
<path fill-rule="evenodd" clip-rule="evenodd" d="M110.854 14.8264H117.557V0H110.854V14.8264Z" fill="#DECBBC"/>
<path fill-rule="evenodd" clip-rule="evenodd" d="M110.854 2.75439H159.497V0H110.854V2.75439Z" fill="#DECBBC"/>
<path fill-rule="evenodd" clip-rule="evenodd" d="M159.497 1.24809V0L160.529 0.763914L160.54 3.22781L159.497 2.75439V1.24809Z" fill="#998782"/>
<path fill-rule="evenodd" clip-rule="evenodd" d="M159.497 2.75488L160.54 3.22829L159.486 3.65867L157.065 3.22829H117.557V2.75488H159.497Z" fill="#373440"/>
<path fill-rule="evenodd" clip-rule="evenodd" d="M117.557 14.8261H119.924V3.22754H117.557V14.8261Z" fill="#217C91"/>
<path fill-rule="evenodd" clip-rule="evenodd" d="M117.557 6.95061H157.065V6.0791H117.557V6.95061Z" fill="#217C91"/>
<path fill-rule="evenodd" clip-rule="evenodd" d="M117.557 12.2123H157.065V11.3301H117.557V12.2123Z" fill="#217C91"/>
<path fill-rule="evenodd" clip-rule="evenodd" d="M110.821 6.95061L105.818 7.32719L100.804 7.69301V6.93985L105.818 6.50948L110.821 6.0791V6.95061Z" fill="#359EB8"/>
<path fill-rule="evenodd" clip-rule="evenodd" d="M110.821 12.2016H100.837V11.4484L105.851 11.3946L110.821 11.3301V12.2016Z" fill="#359EB8"/>
<path fill-rule="evenodd" clip-rule="evenodd" d="M171.945 95.5645V125.82L151.879 140.076H121.01L99.255 130.543L95.9626 130.436V101.676L96.9633 101.579L132.297 107.367L166.114 95.941L171.945 95.5645Z" fill="#B8A39E"/>
<path fill-rule="evenodd" clip-rule="evenodd" d="M171.945 95.5645V125.82L151.879 140.076H121.01L99.255 130.543L95.9626 130.436V101.676L96.9633 101.579L132.297 107.367L166.114 95.941L171.945 95.5645Z" fill="#373440"/>
<path fill-rule="evenodd" clip-rule="evenodd" d="M124.733 122.506H143.164V138.57H124.733V122.506Z" fill="#181028"/>
<path fill-rule="evenodd" clip-rule="evenodd" d="M133.438 118.644H134.47V139.517H133.438V118.644Z" fill="#665B59"/>
<path fill-rule="evenodd" clip-rule="evenodd" d="M111.994 122.506H121.731V138.57H117.578L111.994 136.127V122.506Z" fill="#181028"/>
<path fill-rule="evenodd" clip-rule="evenodd" d="M99.255 122.506H108.992V134.815L99.255 130.543V122.506Z" fill="#181028"/>
<path fill-rule="evenodd" clip-rule="evenodd" d="M158.819 122.506H168.556V128.219L158.819 135.148V122.506Z" fill="#181028"/>
<path fill-rule="evenodd" clip-rule="evenodd" d="M146.08 122.506H155.828V137.278L153.999 138.57H146.08V122.506Z" fill="#181028"/>
<path fill-rule="evenodd" clip-rule="evenodd" d="M67.7947 104.258V114.652L89.9912 130.253V102.214L67.7947 104.258Z" fill="#DECBBC"/>
<path fill-rule="evenodd" clip-rule="evenodd" d="M67.7947 104.258V114.652L89.9912 130.253V102.214L67.7947 104.258Z" fill="#665B59"/>
<path fill-rule="evenodd" clip-rule="evenodd" d="M89.9912 102.214V130.253L95.9626 130.436V101.676L89.9912 102.214Z" fill="#373440"/>
<path fill-rule="evenodd" clip-rule="evenodd" d="M69.9358 105.592H73.6908H77.4673V121.473L69.9358 116.125V105.592ZM79.5547 105.592H83.3204H87.0754V121.731H79.5439V105.549L79.5547 105.592Z" fill="#373440"/>
<path fill-rule="evenodd" clip-rule="evenodd" d="M77.4673 106.442V121.505L70.6566 116.718V106.442H74.4116H77.4673ZM80.2755 106.442H87.0862V121.678H80.2647V106.442H80.2755Z" fill="#6A6579"/>
<path fill-rule="evenodd" clip-rule="evenodd" d="M77.4673 106.442V121.505L70.6566 116.718V106.442H74.4116H77.4673ZM80.2755 106.442H87.0862V121.678H80.2647V106.442H80.2755Z" fill="#181028"/>
<path fill-rule="evenodd" clip-rule="evenodd" d="M200.113 93.7783V110.477L177.917 126.745V95.1878L200.113 93.7783Z" fill="#DECBBC"/>
<path fill-rule="evenodd" clip-rule="evenodd" d="M177.917 95.1878V126.745L200.113 110.477V93.7783L177.917 95.1878Z" fill="#665B59"/>
<path fill-rule="evenodd" clip-rule="evenodd" d="M177.917 95.1875V126.745L171.945 125.819V95.5641L177.917 95.1875Z" fill="#998782"/>
<path fill-rule="evenodd" clip-rule="evenodd" d="M177.917 95.1875V126.745L171.945 125.819V95.5641L177.917 95.1875Z" fill="#373440"/>
<path fill-rule="evenodd" clip-rule="evenodd" d="M197.972 105.592H194.206H190.441V117.578L197.972 112.069V105.613V105.592ZM184.921 121.602L188.343 119.095V105.549H184.588H180.833V121.688H184.921V121.602ZM197.972 93.9072L190.441 94.3914V97.8344H194.196C195.455 97.8344 196.703 97.8344 197.961 97.8344V93.9072H197.972ZM188.343 94.5205L180.811 94.9939V97.7376H184.566H188.321V94.5098L188.343 94.5205Z" fill="#373440"/>
<path fill-rule="evenodd" clip-rule="evenodd" d="M190.441 106.442V117.588L197.251 112.607V106.442H193.496H190.441ZM184.91 121.645L187.632 119.654V106.442H180.822V121.677H184.91V121.645ZM197.251 93.9932L190.441 94.3913V97.8343H194.196H197.251V93.9932ZM187.643 94.6064L180.833 95.0368V97.7805H184.588H187.643V94.6064Z" fill="#6A6579"/>
<path fill-rule="evenodd" clip-rule="evenodd" d="M190.441 106.442V117.588L197.251 112.607V106.442H193.496H190.441ZM184.91 121.645L187.632 119.654V106.442H180.822V121.677H184.91V121.645ZM197.251 93.9932L190.441 94.3913V97.8343H194.196H197.251V93.9932ZM187.643 94.6064L180.833 95.0368V97.7805H184.588H187.643V94.6064Z" fill="#181028"/>
<path fill-rule="evenodd" clip-rule="evenodd" d="M114.243 104.408V115.436H99.5026V101.998L114.243 104.408Z" fill="#6A6579"/>
<path fill-rule="evenodd" clip-rule="evenodd" d="M132.297 107.367V115.437H117.557V104.957L132.297 107.367Z" fill="#6A6579"/>
<path fill-rule="evenodd" clip-rule="evenodd" d="M150.351 101.267V115.437H135.611V106.248L150.351 101.267Z" fill="#6A6579"/>
<path fill-rule="evenodd" clip-rule="evenodd" d="M168.406 95.79V95.9407H166.114L168.406 95.79Z" fill="#6A6579"/>
<path fill-rule="evenodd" clip-rule="evenodd" d="M156.14 99.3086H168.405V115.437H153.665V100.148L156.14 99.3086Z" fill="#6A6579"/>
<path fill-rule="evenodd" clip-rule="evenodd" d="M114.243 104.408V115.436H99.5026V101.998L114.243 104.408Z" fill="#181028"/>
<path fill-rule="evenodd" clip-rule="evenodd" d="M132.297 107.367V115.437H117.557V104.957L132.297 107.367Z" fill="#181028"/>
<path fill-rule="evenodd" clip-rule="evenodd" d="M150.351 101.267V115.437H135.611V106.248L150.351 101.267Z" fill="#181028"/>
<path fill-rule="evenodd" clip-rule="evenodd" d="M168.406 95.79V95.9407H166.114L168.406 95.79Z" fill="#181028"/>
<path fill-rule="evenodd" clip-rule="evenodd" d="M156.14 99.3086H168.405V115.437H153.665V100.148L156.14 99.3086Z" fill="#181028"/>
<path fill-rule="evenodd" clip-rule="evenodd" d="M137.709 94.9302L100.223 90.3037L100.815 95.8125L127.24 100.052L137.709 94.9302Z" fill="#AD0025"/>
<path fill-rule="evenodd" clip-rule="evenodd" d="M172.892 98.6201L207.161 97.2429L203.341 93.8322L175.582 91.293L172.892 98.6201Z" fill="#CF002D"/>
<path fill-rule="evenodd" clip-rule="evenodd" d="M173.043 64.1475C177.081 70.0436 181.116 75.9397 185.147 81.8358L197.262 99.535C187.514 104.786 177.766 110.047 168.018 115.319L138.796 131.114L125.723 107.206C121.376 99.2445 117.029 91.2826 112.683 83.3206L142.809 73.734L173 64.1475H173.043ZM167.91 76.3163C170.062 79.6732 172.279 83.0194 174.463 86.3655C176.647 89.7117 178.831 93.0578 181.026 96.404C174.735 99.4668 168.445 102.53 162.154 105.592L143.282 114.781C140.98 110.721 138.684 106.665 136.396 102.612L129.521 90.4541L148.705 83.3959C155.103 81.0504 161.505 78.6905 167.91 76.3163Z" fill="#FC194A"/>
<path fill-rule="evenodd" clip-rule="evenodd" d="M138.796 131.113L112.683 83.3203L104.71 95.048L132.781 140.528L138.796 131.113Z" fill="#8F001F"/>
<path fill-rule="evenodd" clip-rule="evenodd" d="M132.781 140.528L138.796 131.114L197.262 99.5352L189.515 109.219L132.781 140.528Z" fill="#AD0025"/>
<path fill-rule="evenodd" clip-rule="evenodd" d="M129.521 90.4972L131.598 94.1769L166.458 81.8251L167.91 76.3594L129.521 90.4972Z" fill="#AD0025"/>
<path fill-rule="evenodd" clip-rule="evenodd" d="M167.911 76.3594L166.458 81.8251L177.594 98.104L181.026 96.4363L167.911 76.3594Z" fill="#8F001F"/>
<path fill-rule="evenodd" clip-rule="evenodd" d="M100.492 86.0645L77.3275 92.391L54.1411 98.7282L86.7635 105.367C97.6197 107.594 108.508 109.8 119.354 112.027L138.172 101.709L156.968 91.3796L143.099 90.0885L131.598 94.1662L137.709 94.9194L132.469 97.4801L132.308 97.5662L132.146 97.6415L131.985 97.7276L131.813 97.8029L131.652 97.889L131.49 97.9643L131.329 98.0396L131.167 98.1257L130.995 98.201L130.834 98.2871L130.672 98.3624L130.511 98.4485L130.35 98.5238L130.177 98.6099L130.016 98.6852L129.855 98.7713L129.693 98.8466L129.532 98.9219L129.36 99.008L129.198 99.0833L129.037 99.1693L127.24 100.052L117.277 104.936L117.116 105.012L116.943 105.098L116.782 105.173H116.47L116.147 105.109H115.835H115.523H115.2L114.888 105.044H114.576H114.254L113.942 104.979H113.619L113.307 104.926L112.995 104.861L112.672 104.807L110.821 104.086H110.499H110.273L96.5545 101.504L76.3161 97.8352L88.2267 94.0694L100.223 90.3036L107.335 91.1859L110.187 86.979L100.503 86.0645H100.492Z" fill="#F00034"/>
<path fill-rule="evenodd" clip-rule="evenodd" d="M100.223 72.9269L109.713 69.1826L99.169 101.977L91.3362 100.557L100.223 72.9269Z" fill="#8F001F"/>
<path fill-rule="evenodd" clip-rule="evenodd" d="M119.354 112.048L156.968 91.4004L157.173 101.815L121.269 125.249L119.354 112.048Z" fill="#AD0025"/>
<path fill-rule="evenodd" clip-rule="evenodd" d="M119.354 112.047L54.7113 98.8457L59.1764 112.94L121.269 125.249L119.354 112.047Z" fill="#8F001F"/>
<path fill-rule="evenodd" clip-rule="evenodd" d="M76.3162 97.8352L89.0122 100.138L100.815 95.8125L100.223 90.3037L76.3162 97.8352Z" fill="#8F001F"/>
<path fill-rule="evenodd" clip-rule="evenodd" d="M141.658 111.94L142.12 112.758L133.653 121.699L131.823 118.353L141.658 111.94Z" fill="#CF002D"/>
<path fill-rule="evenodd" clip-rule="evenodd" d="M64.6853 42.7793L67.7947 46.5666V49.4286L44.9956 60.7151L42.5963 58.305L64.6853 42.7793Z" fill="#8F001F"/>
<path fill-rule="evenodd" clip-rule="evenodd" d="M91.3362 100.557L82.0508 98.8786L87.4843 79.1782L55.0879 60.9411L52.8392 84.3427L67.4611 95.0913L57.1107 97.921L44.6836 88.6034L46.3836 45.8564L100.223 72.927L91.3362 100.557Z" fill="#AD0025"/>
<path fill-rule="evenodd" clip-rule="evenodd" d="M78.6401 116.761L85.7521 118.17L84.547 121.667L78.6401 116.761Z" fill="#AD0025"/>
<path fill-rule="evenodd" clip-rule="evenodd" d="M67.7947 46.5661L64.0182 46.1357L62.6625 47.018L53.2373 45.5655L63.1682 38.7979L67.7947 39.6801V46.5661Z" fill="#FC194A"/>
<path fill-rule="evenodd" clip-rule="evenodd" d="M100.223 72.9273L46.3835 45.8568L58.4555 45.0283L109.713 69.1831L100.223 72.9273Z" fill="#F00034"/>
<path fill-rule="evenodd" clip-rule="evenodd" d="M85.752 118.17L84.547 121.667L92.014 119.45L85.752 118.17Z" fill="#8F001F"/>
<path fill-rule="evenodd" clip-rule="evenodd" d="M55.0879 60.9414L52.8392 84.343L58.4233 81.1797L60.7796 64.1477L55.0879 60.9414Z" fill="#8F001F"/>
<path fill-rule="evenodd" clip-rule="evenodd" d="M52.8392 84.3429L58.4233 81.1797L74.5516 93.1548L67.4612 95.0915L52.8392 84.3429Z" fill="#CF002D"/>
<path fill-rule="evenodd" clip-rule="evenodd" d="M64.2979 66.1267L56.5188 61.7477L44.6298 59.004L45.8886 58.1648L46.2114 50.3535L29.2546 61.9198L61.9093 68.9134L64.2979 66.1267Z" fill="#F00034"/>
<path fill-rule="evenodd" clip-rule="evenodd" d="M66.1593 69.5591L29.2547 61.9199L28.8243 70.6242L65.2017 78.9304L66.1593 69.5591Z" fill="#CF002D"/>
<path fill-rule="evenodd" clip-rule="evenodd" d="M66.1592 69.559L65.2017 78.9304L68.1174 73.4216L67.7947 68.0957L66.1592 69.559Z" fill="#8F001F"/>
<path fill-rule="evenodd" clip-rule="evenodd" d="M56.5188 61.7482L53.3556 61.0166L57.4549 67.9564L66.1592 69.5595L67.7946 68.0963L56.5188 61.7482Z" fill="#CF002D"/>
<path fill-rule="evenodd" clip-rule="evenodd" d="M177.271 97.6305L176.206 97.652L184.426 75.251L217.791 78.8769L207.161 97.2431L195.788 97.3937L197.262 99.5456L192.442 105.56L210.905 104.656L232.101 72.3782L177.917 64.2227L165.554 103.978L177.594 98.1146L177.271 97.6305Z" fill="#AD0025"/>
<path fill-rule="evenodd" clip-rule="evenodd" d="M165.554 103.978L177.917 64.2222L171.945 54.1191L159.303 95.0154L165.554 103.978Z" fill="#CF002D"/>
<path fill-rule="evenodd" clip-rule="evenodd" d="M223.902 62.576L171.945 54.1191L177.917 64.2222L232.101 72.3778L223.902 62.576Z" fill="#F00034"/>
<path fill-rule="evenodd" clip-rule="evenodd" d="M207.161 97.2434L203.341 93.8327L210.959 78.1348L217.791 78.8772L207.161 97.2434Z" fill="#8F001F"/>
<path fill-rule="evenodd" clip-rule="evenodd" d="M178.229 92.154L178.734 92.9395L186.61 83.9877L183.103 78.8555L178.229 92.154Z" fill="#CF002D"/>
<path fill-rule="evenodd" clip-rule="evenodd" d="M200.113 84.8807V76.9618L201.329 77.091L203.266 78.3068L206.246 60.5431L200.113 56.7558V48.2344L214.821 57.2292L207.505 89.5503L200.113 84.8807Z" fill="#8F001F"/>
<path fill-rule="evenodd" clip-rule="evenodd" d="M214.821 57.2291L207.505 89.5503L215.499 86.5591L223.257 54.3887L214.821 57.2291Z" fill="#CF002D"/>
<path fill-rule="evenodd" clip-rule="evenodd" d="M200.113 48.2345L214.821 57.2293L223.257 54.3888L200.113 39.6055V48.2345Z" fill="#F00034"/>
<path fill-rule="evenodd" clip-rule="evenodd" d="M203.438 77.3168L201.329 77.0908L203.266 78.3066L203.438 77.3168Z" fill="#CF002D"/>
<path fill-rule="evenodd" clip-rule="evenodd" d="M204.406 59.4028L196.089 57.918L204.955 68.29L206.246 60.5433L204.406 59.4028Z" fill="#CF002D"/>
<path fill-rule="evenodd" clip-rule="evenodd" d="M171.945 140.076L133.954 147.081L109.003 140.076H171.945Z" fill="#8B8376"/>
<path fill-rule="evenodd" clip-rule="evenodd" d="M157.087 6.95061L161.885 7.32719L166.684 7.69301V6.93985L161.885 6.50948L157.087 6.0791V6.95061Z" fill="#359EB8"/>
<path fill-rule="evenodd" clip-rule="evenodd" d="M157.087 12.2016H166.684V11.4484L161.885 11.3946L157.087 11.3301V12.2016Z" fill="#359EB8"/>
</svg>
